<?xml version="1.0"?>
<svg version="1.1" xmlns="http://www.w3.org/2000/svg"
    width="800" height="480">
  <defs>
  <marker id="arrow" refX="7" refY="2" markerWidth="6" markerHeight="9" orient="auto" markerUnits="strokeWidth">
    <path d="M0,0 L0,4 L7,2 z" fill="#000" />
  </marker>
  </defs>
  <line x1="128" y1="142.5" x2="235" y2="82" stroke="black" stroke-width="2" marker-end="url(#arrow)" />
<text x="181.5" y="112.25" font-family="sans-serif" font-size="16">1</text>
<line x1="128" y1="142.5" x2="275" y2="196" stroke="black" stroke-width="2" marker-end="url(#arrow)" />
<text x="201.5" y="169.25" font-family="sans-serif" font-size="16">2</text>
<line x1="128" y1="142.5" x2="263" y2="261" stroke="black" stroke-width="2" marker-end="url(#arrow)" />
<text x="195.5" y="201.75" font-family="sans-serif" font-size="16">3</text>
<line x1="235" y1="82" x2="383" y2="124" stroke="black" stroke-width="2" marker-end="url(#arrow)" />
<text x="309" y="103" font-family="sans-serif" font-size="16">4</text>
<line x1="263" y1="261" x2="393" y2="257" stroke="black" stroke-width="2" marker-end="url(#arrow)" />
<text x="328" y="259" font-family="sans-serif" font-size="16">5</text>
<line x1="383" y1="124" x2="559" y2="93" stroke="black" stroke-width="2" marker-end="url(#arrow)" />
<text x="471" y="108.5" font-family="sans-serif" font-size="16">6</text>
<line x1="383" y1="124" x2="500" y2="190" stroke="black" stroke-width="2" marker-end="url(#arrow)" />
<text x="441.5" y="157" font-family="sans-serif" font-size="16">7</text>
<line x1="393" y1="257" x2="521" y2="275" stroke="black" stroke-width="2" marker-end="url(#arrow)" />
<text x="457" y="266" font-family="sans-serif" font-size="16">8</text>
<line x1="521" y1="275" x2="700" y2="312" stroke="black" stroke-width="2" marker-end="url(#arrow)" />
<text x="610.5" y="293.5" font-family="sans-serif" font-size="16">9</text>
<line x1="559" y1="93" x2="655" y2="182" stroke="black" stroke-width="2" marker-end="url(#arrow)" />
<text x="607" y="137.5" font-family="sans-serif" font-size="16">10</text>
<line x1="275" y1="196" x2="383" y2="124" stroke="black" stroke-width="2" marker-end="url(#arrow)" />
<text x="329" y="160" font-family="sans-serif" font-size="16">11</text>
<line x1="500" y1="190" x2="655" y2="182" stroke="black" stroke-width="2" marker-end="url(#arrow)" />
<text x="577.5" y="186" font-family="sans-serif" font-size="16">12</text>
<line x1="521" y1="275" x2="655" y2="182" stroke="black" stroke-width="2" marker-end="url(#arrow)" />
<text x="588" y="228.5" font-family="sans-serif" font-size="16">13</text>
<circle cx="128" cy="142.5" r="4" style="fill:#dd0;"/>
<text x="128" y="158.5" style="fill:#dd0" font-family="sans-serif" font-size="16">1</text>
<circle cx="235" cy="82" r="4" style="fill:#d00;"/>
<text x="235" y="98" style="fill:#d00" font-family="sans-serif" font-size="16">A</text>
<circle cx="275" cy="196" r="4" style="fill:#d00;"/>
<text x="275" y="212" style="fill:#d00" font-family="sans-serif" font-size="16">B</text>
<circle cx="263" cy="261" r="4" style="fill:#d00;"/>
<text x="263" y="277" style="fill:#d00" font-family="sans-serif" font-size="16">G</text>
<circle cx="655" cy="182" r="4" style="fill:#d00;"/>
<text x="655" y="198" style="fill:#d00" font-family="sans-serif" font-size="16">F</text>
<circle cx="383" cy="124" r="4" style="fill:#d00;"/>
<text x="383" y="140" style="fill:#d00" font-family="sans-serif" font-size="16">C</text>
<circle cx="393" cy="257" r="4" style="fill:#d00;"/>
<text x="393" y="273" style="fill:#d00" font-family="sans-serif" font-size="16">H</text>
<circle cx="559" cy="93" r="4" style="fill:#d00;"/>
<text x="559" y="109" style="fill:#d00" font-family="sans-serif" font-size="16">D</text>
<circle cx="500" cy="190" r="4" style="fill:#d00;"/>
<text x="500" y="206" style="fill:#d00" font-family="sans-serif" font-size="16">E</text>
<circle cx="521" cy="275" r="4" style="fill:#d00;"/>
<text x="521" y="291" style="fill:#d00" font-family="sans-serif" font-size="16">I</text>
<circle cx="700" cy="312" r="4" style="fill:#d00;"/>
<text x="700" y="328" style="fill:#d00" font-family="sans-serif" font-size="16">J</text>
</svg>
