<?xml version="1.0"?>
<svg version="1.1" xmlns="http://www.w3.org/2000/svg" xmlns:xlink="http://www.w3.org/1999/xlink"
     width="800" height="480">

<defs>
  <marker id="arrow" refX="7" refY="2" markerWidth="6" markerHeight="9" orient="auto" markerUnits="strokeWidth">
    <path d="M0,0 L0,4 L7,2 z" fill="#000" />
  </marker>
</defs>
<line x1="65" y1="227" x2="227" y2="257" stroke="black" stroke-width="2" marker-end="url(#arrow)" />
<text x="146" y="242" font-family="sans-serif" font-size="12">1</text>
<line x1="227" y1="257" x2="374" y2="238" stroke="black" stroke-width="2" marker-end="url(#arrow)" />
<text x="300.5" y="247.5" font-family="sans-serif" font-size="12">2</text>
<line x1="227" y1="257" x2="287" y2="167" stroke="black" stroke-width="2" marker-end="url(#arrow)" />
<text x="257" y="212" font-family="sans-serif" font-size="12">3</text>
<line x1="227" y1="257" x2="144" y2="209" stroke="black" stroke-width="2" marker-end="url(#arrow)" />
<text x="185.5" y="233" font-family="sans-serif" font-size="12">4</text>
<line x1="144" y1="209" x2="167" y2="145" stroke="black" stroke-width="2" marker-end="url(#arrow)" />
<text x="155.5" y="177" font-family="sans-serif" font-size="12">5</text>
<line x1="167" y1="145" x2="324" y2="108" stroke="black" stroke-width="2" marker-end="url(#arrow)" />
<text x="245.5" y="126.5" font-family="sans-serif" font-size="12">6</text>
<line x1="324" y1="108" x2="180" y2="85" stroke="black" stroke-width="2" marker-end="url(#arrow)" />
<text x="252" y="96.5" font-family="sans-serif" font-size="12">7</text>
<line x1="374" y1="238" x2="412" y2="323" stroke="black" stroke-width="2" marker-end="url(#arrow)" />
<text x="393" y="280.5" font-family="sans-serif" font-size="12">8</text>
<line x1="412" y1="323" x2="311" y2="322" stroke="black" stroke-width="2" marker-end="url(#arrow)" />
<text x="361.5" y="322.5" font-family="sans-serif" font-size="12">9</text>
<line x1="311" y1="322" x2="218" y2="315" stroke="black" stroke-width="2" marker-end="url(#arrow)" />
<text x="264.5" y="318.5" font-family="sans-serif" font-size="12">10</text>
<line x1="287" y1="167" x2="418" y2="141" stroke="black" stroke-width="2" marker-end="url(#arrow)" />
<text x="352.5" y="154" font-family="sans-serif" font-size="12">11</text>
<line x1="418" y1="141" x2="515" y2="224" stroke="black" stroke-width="2" marker-end="url(#arrow)" />
<text x="466.5" y="182.5" font-family="sans-serif" font-size="12">12</text>
<line x1="418" y1="141" x2="537" y2="92" stroke="black" stroke-width="2" marker-end="url(#arrow)" />
<text x="477.5" y="116.5" font-family="sans-serif" font-size="12">13</text>
<line x1="412" y1="323" x2="528.15" y2="309" stroke="black" stroke-width="2" marker-end="url(#arrow)" />
<text x="470.075" y="316" font-family="sans-serif" font-size="12">14</text>
<line x1="528.15" y1="309" x2="709" y2="312" stroke="black" stroke-width="2" marker-end="url(#arrow)" />
<text x="618.575" y="310.5" font-family="sans-serif" font-size="12">15</text>
<line x1="515" y1="224" x2="664" y2="247" stroke="black" stroke-width="2" marker-end="url(#arrow)" />
<text x="589.5" y="235.5" font-family="sans-serif" font-size="12">16</text>
<line x1="537" y1="92" x2="664" y2="247" stroke="black" stroke-width="2" marker-end="url(#arrow)" />
<text x="600.5" y="169.5" font-family="sans-serif" font-size="12">17</text>
<line x1="528.15" y1="309" x2="664" y2="247" stroke="black" stroke-width="2" marker-end="url(#arrow)" />
<text x="596.075" y="278" font-family="sans-serif" font-size="12">18</text>
<line x1="324" y1="108" x2="418" y2="141" stroke="black" stroke-width="2" marker-end="url(#arrow)" />
<text x="371" y="124.5" font-family="sans-serif" font-size="12">19</text>
<circle cx="418" cy="141" r="4" style="fill:#d00;"/>
<text x="418" y="157" style="fill:#d00" font-family="sans-serif" font-size="16">G</text>
<circle cx="65" cy="227" r="4" style="fill:#dd0;"/>
<text x="65" y="243" style="fill:#dd0" font-family="sans-serif" font-size="16">1</text>
<circle cx="227" cy="257" r="4" style="fill:#d00;"/>
<text x="227" y="273" style="fill:#d00" font-family="sans-serif" font-size="16">A</text>
<circle cx="374" cy="238" r="4" style="fill:#d00;"/>
<text x="374" y="254" style="fill:#d00" font-family="sans-serif" font-size="16">K</text>
<circle cx="287" cy="167" r="4" style="fill:#d00;"/>
<text x="287" y="183" style="fill:#d00" font-family="sans-serif" font-size="16">F</text>
<circle cx="144" cy="209" r="4" style="fill:#d00;"/>
<text x="144" y="225" style="fill:#d00" font-family="sans-serif" font-size="16">B</text>
<circle cx="167" cy="145" r="4" style="fill:#d00;"/>
<text x="167" y="161" style="fill:#d00" font-family="sans-serif" font-size="16">C</text>
<circle cx="324" cy="108" r="4" style="fill:#d00;"/>
<text x="324" y="124" style="fill:#d00" font-family="sans-serif" font-size="16">D</text>
<circle cx="180" cy="85" r="4" style="fill:#d00;"/>
<text x="180" y="101" style="fill:#d00" font-family="sans-serif" font-size="16">E</text>
<circle cx="412" cy="323" r="4" style="fill:#d00;"/>
<text x="412" y="339" style="fill:#d00" font-family="sans-serif" font-size="16">L</text>
<circle cx="311" cy="322" r="4" style="fill:#d00;"/>
<text x="311" y="338" style="fill:#d00" font-family="sans-serif" font-size="16">M</text>
<circle cx="218" cy="315" r="4" style="fill:#d00;"/>
<text x="218" y="331" style="fill:#d00" font-family="sans-serif" font-size="16">N</text>
<circle cx="515" cy="224" r="4" style="fill:#d00;"/>
<text x="515" y="240" style="fill:#d00" font-family="sans-serif" font-size="16">I</text>
<circle cx="537" cy="92" r="4" style="fill:#d00;"/>
<text x="537" y="108" style="fill:#d00" font-family="sans-serif" font-size="16">H</text>
<circle cx="528.15" cy="309" r="4" style="fill:#d00;"/>
<text x="528.15" y="325" style="fill:#d00" font-family="sans-serif" font-size="16">O</text>
<circle cx="664" cy="247" r="4" style="fill:#d00;"/>
<text x="664" y="263" style="fill:#d00" font-family="sans-serif" font-size="16">J</text>
<circle cx="709" cy="312" r="4" style="fill:#d00;"/>
<text x="709" y="328" style="fill:#d00" font-family="sans-serif" font-size="16">P</text>
</svg>