<?xml version="1.0"?>
<svg version="1.1" xmlns="http://www.w3.org/2000/svg"
    width="800" height="480">
  <defs>
  <marker id="arrow" refX="7" refY="2" markerWidth="6" markerHeight="9" orient="auto" markerUnits="strokeWidth">
    <path d="M0,0 L0,4 L7,2 z" fill="#000" />
  </marker>
  </defs>
  <line x1="159" y1="315" x2="220" y2="150" stroke="black" stroke-width="2" marker-end="url(#arrow)" />
<text x="189.5" y="232.5" font-family="sans-serif" font-size="16">1</text>
<line x1="220" y1="150" x2="114" y2="163" stroke="black" stroke-width="2" marker-end="url(#arrow)" />
<text x="167" y="156.5" font-family="sans-serif" font-size="16">2</text>
<line x1="220" y1="150" x2="315" y2="271" stroke="black" stroke-width="2" marker-end="url(#arrow)" />
<text x="267.5" y="210.5" font-family="sans-serif" font-size="16">3</text>
<line x1="220" y1="150" x2="370" y2="92" stroke="black" stroke-width="2" marker-end="url(#arrow)" />
<text x="295" y="121" font-family="sans-serif" font-size="16">4</text>
<line x1="220" y1="150" x2="401" y2="202" stroke="black" stroke-width="2" marker-end="url(#arrow)" />
<text x="310.5" y="176" font-family="sans-serif" font-size="16">5</text>
<line x1="159" y1="315" x2="430" y2="308" stroke="black" stroke-width="2" marker-end="url(#arrow)" />
<text x="294.5" y="311.5" font-family="sans-serif" font-size="16">6</text>
<line x1="430" y1="308" x2="524" y2="234" stroke="black" stroke-width="2" marker-end="url(#arrow)" />
<text x="477" y="271" font-family="sans-serif" font-size="16">7</text>
<line x1="370" y1="92" x2="540" y2="116" stroke="black" stroke-width="2" marker-end="url(#arrow)" />
<text x="455" y="104" font-family="sans-serif" font-size="16">8</text>
<line x1="540" y1="116" x2="621" y2="62" stroke="black" stroke-width="2" marker-end="url(#arrow)" />
<text x="580.5" y="89" font-family="sans-serif" font-size="16">9</text>
<line x1="524" y1="234" x2="619" y2="252" stroke="black" stroke-width="2" marker-end="url(#arrow)" />
<text x="571.5" y="243" font-family="sans-serif" font-size="16">10</text>
<line x1="524" y1="234" x2="643" y2="150" stroke="black" stroke-width="2" marker-end="url(#arrow)" />
<text x="583.5" y="192" font-family="sans-serif" font-size="16">11</text>
<line x1="430" y1="308" x2="401" y2="202" stroke="black" stroke-width="2" marker-end="url(#arrow)" />
<text x="415.5" y="255" font-family="sans-serif" font-size="16">12</text>
<line x1="315" y1="271" x2="430" y2="308" stroke="black" stroke-width="2" marker-end="url(#arrow)" />
<text x="372.5" y="289.5" font-family="sans-serif" font-size="16">13</text>
<line x1="401" y1="202" x2="540" y2="116" stroke="black" stroke-width="2" marker-end="url(#arrow)" />
<text x="470.5" y="159" font-family="sans-serif" font-size="16">14</text>
<line x1="540" y1="116" x2="643" y2="150" stroke="black" stroke-width="2" marker-end="url(#arrow)" />
<text x="591.5" y="133" font-family="sans-serif" font-size="16">15</text>
<circle cx="159" cy="315" r="4" style="fill:#dd0;"/>
<text x="159" y="331" style="fill:#dd0" font-family="sans-serif" font-size="16">1</text>
<circle cx="114" cy="163" r="4" style="fill:#d00;"/>
<text x="114" y="179" style="fill:#d00" font-family="sans-serif" font-size="16">H</text>
<circle cx="220" cy="150" r="4" style="fill:#d00;"/>
<text x="220" y="166" style="fill:#d00" font-family="sans-serif" font-size="16">A</text>
<circle cx="315" cy="271" r="4" style="fill:#d00;"/>
<text x="315" y="287" style="fill:#d00" font-family="sans-serif" font-size="16">D</text>
<circle cx="370" cy="92" r="4" style="fill:#d00;"/>
<text x="370" y="108" style="fill:#d00" font-family="sans-serif" font-size="16">C</text>
<circle cx="401" cy="202" r="4" style="fill:#d00;"/>
<text x="401" y="218" style="fill:#d00" font-family="sans-serif" font-size="16">E</text>
<circle cx="430" cy="308" r="4" style="fill:#d00;"/>
<text x="430" y="324" style="fill:#d00" font-family="sans-serif" font-size="16">B</text>
<circle cx="524" cy="234" r="4" style="fill:#d00;"/>
<text x="524" y="250" style="fill:#d00" font-family="sans-serif" font-size="16">G</text>
<circle cx="540" cy="116" r="4" style="fill:#d00;"/>
<text x="540" y="132" style="fill:#d00" font-family="sans-serif" font-size="16">F</text>
<circle cx="621" cy="62" r="4" style="fill:#d00;"/>
<text x="621" y="78" style="fill:#d00" font-family="sans-serif" font-size="16">I</text>
<circle cx="619" cy="252" r="4" style="fill:#d00;"/>
<text x="619" y="268" style="fill:#d00" font-family="sans-serif" font-size="16">J</text>
<circle cx="643" cy="150" r="4" style="fill:#d00;"/>
<text x="643" y="166" style="fill:#d00" font-family="sans-serif" font-size="16">K</text>
</svg>
