<?xml version="1.0"?>
<svg version="1.1" xmlns="http://www.w3.org/2000/svg" xmlns:xlink="http://www.w3.org/1999/xlink"
     width="800" height="480">

<defs>
  <marker id="arrow" refX="7" refY="2" markerWidth="6" markerHeight="9" orient="auto" markerUnits="strokeWidth">
    <path d="M0,0 L0,4 L7,2 z" fill="#000" />
  </marker>
</defs>
<line x1="85" y1="224" x2="182" y2="297" stroke="black" stroke-width="2" marker-end="url(#arrow)" />
<text x="133.5" y="260.5" font-family="sans-serif" font-size="12">1</text>
<line x1="85" y1="224" x2="119" y2="134" stroke="black" stroke-width="2" marker-end="url(#arrow)" />
<text x="102" y="179" font-family="sans-serif" font-size="12">2</text>
<line x1="85" y1="224" x2="205" y2="197" stroke="black" stroke-width="2" marker-end="url(#arrow)" />
<text x="145" y="210.5" font-family="sans-serif" font-size="12">3</text>
<line x1="182" y1="297" x2="283" y2="301" stroke="black" stroke-width="2" marker-end="url(#arrow)" />
<text x="232.5" y="299" font-family="sans-serif" font-size="12">4</text>
<line x1="119" y1="134" x2="206" y2="85" stroke="black" stroke-width="2" marker-end="url(#arrow)" />
<text x="162.5" y="109.5" font-family="sans-serif" font-size="12">5</text>
<line x1="206" y1="85" x2="325" y2="83" stroke="black" stroke-width="2" marker-end="url(#arrow)" />
<text x="265.5" y="84" font-family="sans-serif" font-size="12">6</text>
<line x1="283" y1="301" x2="375" y2="163" stroke="black" stroke-width="2" marker-end="url(#arrow)" />
<text x="329" y="232" font-family="sans-serif" font-size="12">7</text>
<line x1="283" y1="301" x2="409" y2="253" stroke="black" stroke-width="2" marker-end="url(#arrow)" />
<text x="346" y="277" font-family="sans-serif" font-size="12">8</text>
<line x1="205" y1="197" x2="206" y2="85" stroke="black" stroke-width="2" marker-end="url(#arrow)" />
<text x="205.5" y="141" font-family="sans-serif" font-size="12">9</text>
<line x1="205" y1="197" x2="283" y2="301" stroke="black" stroke-width="2" marker-end="url(#arrow)" />
<text x="244" y="249" font-family="sans-serif" font-size="12">10</text>
<circle cx="85" cy="224" r="4" style="fill:#dd0;"/>
<text x="85" y="240" style="fill:#dd0" font-family="sans-serif" font-size="16">1</text>
<circle cx="182" cy="297" r="4" style="fill:#d00;"/>
<text x="182" y="313" style="fill:#d00" font-family="sans-serif" font-size="16">E</text>
<circle cx="119" cy="134" r="4" style="fill:#d00;"/>
<text x="119" y="150" style="fill:#d00" font-family="sans-serif" font-size="16">A</text>
<circle cx="205" cy="197" r="4" style="fill:#d00;"/>
<text x="205" y="213" style="fill:#d00" font-family="sans-serif" font-size="16">D</text>
<circle cx="283" cy="301" r="4" style="fill:#d00;"/>
<text x="283" y="317" style="fill:#d00" font-family="sans-serif" font-size="16">F</text>
<circle cx="206" cy="85" r="4" style="fill:#d00;"/>
<text x="206" y="101" style="fill:#d00" font-family="sans-serif" font-size="16">B</text>
<circle cx="325" cy="83" r="4" style="fill:#d00;"/>
<text x="325" y="99" style="fill:#d00" font-family="sans-serif" font-size="16">C</text>
<circle cx="375" cy="163" r="4" style="fill:#d00;"/>
<text x="375" y="179" style="fill:#d00" font-family="sans-serif" font-size="16">G</text>
<circle cx="409" cy="253" r="4" style="fill:#d00;"/>
<text x="409" y="269" style="fill:#d00" font-family="sans-serif" font-size="16">H</text>
</svg>