<?xml version="1.0"?>
<svg version="1.1" xmlns="http://www.w3.org/2000/svg" xmlns:xlink="http://www.w3.org/1999/xlink"
     width="800" height="480">

<defs>
  <marker id="arrow" refX="7" refY="2" markerWidth="6" markerHeight="9" orient="auto" markerUnits="strokeWidth">
    <path d="M0,0 L0,4 L7,2 z" fill="#000" />
  </marker>
</defs>
<line x1="662" y1="106" x2="559" y2="246" stroke="black" stroke-width="2" marker-end="url(#arrow)" />
<text x="610.5" y="176" font-family="sans-serif" font-size="12">1</text>
<line x1="662" y1="106" x2="488" y2="97" stroke="black" stroke-width="2" marker-end="url(#arrow)" />
<text x="575" y="101.5" font-family="sans-serif" font-size="12">2</text>
<line x1="559" y1="246" x2="456" y2="318" stroke="black" stroke-width="2" marker-end="url(#arrow)" />
<text x="507.5" y="282" font-family="sans-serif" font-size="12">3</text>
<line x1="559" y1="246" x2="397" y2="174" stroke="black" stroke-width="2" marker-end="url(#arrow)" />
<text x="478" y="210" font-family="sans-serif" font-size="12">4</text>
<line x1="456" y1="318" x2="313" y2="333" stroke="black" stroke-width="2" marker-end="url(#arrow)" />
<text x="384.5" y="325.5" font-family="sans-serif" font-size="12">5</text>
<line x1="488" y1="97" x2="283" y2="97" stroke="black" stroke-width="2" marker-end="url(#arrow)" />
<text x="385.5" y="97" font-family="sans-serif" font-size="12">6</text>
<line x1="397" y1="174" x2="258" y2="230" stroke="black" stroke-width="2" marker-end="url(#arrow)" />
<text x="327.5" y="202" font-family="sans-serif" font-size="12">7</text>
<line x1="283" y1="97" x2="96" y2="109" stroke="black" stroke-width="2" marker-end="url(#arrow)" />
<text x="189.5" y="103" font-family="sans-serif" font-size="12">8</text>
<line x1="258" y1="230" x2="121" y2="254" stroke="black" stroke-width="2" marker-end="url(#arrow)" />
<text x="189.5" y="242" font-family="sans-serif" font-size="12">9</text>
<line x1="397" y1="174" x2="313" y2="333" stroke="black" stroke-width="2" marker-end="url(#arrow)" />
<text x="355" y="253.5" font-family="sans-serif" font-size="12">10</text>
<line x1="258" y1="230" x2="313" y2="333" stroke="black" stroke-width="2" marker-end="url(#arrow)" />
<text x="285.5" y="281.5" font-family="sans-serif" font-size="12">11</text>
<line x1="283" y1="97" x2="121" y2="254" stroke="black" stroke-width="2" marker-end="url(#arrow)" />
<text x="202" y="175.5" font-family="sans-serif" font-size="12">12</text>
<circle cx="313" cy="333" r="4" style="fill:#d00;"/>
<text x="313" y="349" style="fill:#d00" font-family="sans-serif" font-size="16">I</text>
<circle cx="121" cy="254" r="4" style="fill:#d00;"/>
<text x="121" y="270" style="fill:#d00" font-family="sans-serif" font-size="16">D</text>
<circle cx="96" cy="109" r="4" style="fill:#d00;"/>
<text x="96" y="125" style="fill:#d00" font-family="sans-serif" font-size="16">C</text>
<circle cx="283" cy="97" r="4" style="fill:#d00;"/>
<text x="283" y="113" style="fill:#d00" font-family="sans-serif" font-size="16">B</text>
<circle cx="488" cy="97" r="4" style="fill:#d00;"/>
<text x="488" y="113" style="fill:#d00" font-family="sans-serif" font-size="16">A</text>
<circle cx="662" cy="106" r="4" style="fill:#dd0;"/>
<text x="662" y="122" style="fill:#dd0" font-family="sans-serif" font-size="16">1</text>
<circle cx="559" cy="246" r="4" style="fill:#d00;"/>
<text x="559" y="262" style="fill:#d00" font-family="sans-serif" font-size="16">E</text>
<circle cx="397" cy="174" r="4" style="fill:#d00;"/>
<text x="397" y="190" style="fill:#d00" font-family="sans-serif" font-size="16">F</text>
<circle cx="456" cy="318" r="4" style="fill:#d00;"/>
<text x="456" y="334" style="fill:#d00" font-family="sans-serif" font-size="16">H</text>
<circle cx="258" cy="230" r="4" style="fill:#d00;"/>
<text x="258" y="246" style="fill:#d00" font-family="sans-serif" font-size="16">G</text>
</svg>