<?xml version="1.0" encoding="utf-8"?>
<svg version="1.1" xmlns="http://www.w3.org/2000/svg" xmlns:xlink="http://www.w3.org/1999/xlink"
    width="800" height="480">
  <defs>
  <marker id="arrow" refx="7" refy="2" markerWidth="9" markerHeight="9" orient="auto" markerUnits="strokeWidth">
    <path d="M0,0 L0,4 L7,2 z" fill="#000" />
  </marker>
  </defs>
  <line x1="637" y1="228" x2="550" y2="120" stroke="black" stroke-width="2" marker-end="url(#arrow)" />
<text x="593.5" y="174" font-family="sans-serif" font-size="16">1</text>
<line x1="637" y1="228" x2="529" y2="281" stroke="black" stroke-width="2" marker-end="url(#arrow)" />
<text x="583" y="254.5" font-family="sans-serif" font-size="16">2</text>
<line x1="550" y1="120" x2="453" y2="77" stroke="black" stroke-width="2" marker-end="url(#arrow)" />
<text x="501.5" y="98.5" font-family="sans-serif" font-size="16">3</text>
<line x1="550" y1="120" x2="460" y2="191" stroke="black" stroke-width="2" marker-end="url(#arrow)" />
<text x="505" y="155.5" font-family="sans-serif" font-size="16">4</text>
<line x1="529" y1="281" x2="438" y2="319" stroke="black" stroke-width="2" marker-end="url(#arrow)" />
<text x="483.5" y="300" font-family="sans-serif" font-size="16">5</text>
<line x1="460" y1="191" x2="378" y2="212" stroke="black" stroke-width="2" marker-end="url(#arrow)" />
<text x="419" y="201.5" font-family="sans-serif" font-size="16">6</text>
<line x1="453" y1="77" x2="348" y2="97" stroke="black" stroke-width="2" marker-end="url(#arrow)" />
<text x="400.5" y="87" font-family="sans-serif" font-size="16">7</text>
<line x1="438" y1="319" x2="338" y2="307" stroke="black" stroke-width="2" marker-end="url(#arrow)" />
<text x="388" y="313" font-family="sans-serif" font-size="16">8</text>
<line x1="348" y1="97" x2="270" y2="154" stroke="black" stroke-width="2" marker-end="url(#arrow)" />
<text x="309" y="125.5" font-family="sans-serif" font-size="16">9</text>
<line x1="378" y1="212" x2="264" y2="275" stroke="black" stroke-width="2" marker-end="url(#arrow)" />
<text x="321" y="243.5" font-family="sans-serif" font-size="16">10</text>
<line x1="338" y1="307" x2="250" y2="342" stroke="black" stroke-width="2" marker-end="url(#arrow)" />
<text x="294" y="324.5" font-family="sans-serif" font-size="16">11</text>
<line x1="264" y1="275" x2="209.95" y2="191" stroke="black" stroke-width="2" marker-end="url(#arrow)" />
<text x="236.975" y="233" font-family="sans-serif" font-size="16">12</text>
<line x1="338" y1="307" x2="155" y2="311" stroke="black" stroke-width="2" marker-end="url(#arrow)" />
<text x="246.5" y="309" font-family="sans-serif" font-size="16">13</text>
<line x1="529" y1="281" x2="460" y2="191" stroke="black" stroke-width="2" marker-end="url(#arrow)" />
<text x="494.5" y="236" font-family="sans-serif" font-size="16">14</text>
<line x1="348" y1="97" x2="378" y2="212" stroke="black" stroke-width="2" marker-end="url(#arrow)" />
<text x="363" y="154.5" font-family="sans-serif" font-size="16">15</text>
<line x1="270" y1="154" x2="378" y2="212" stroke="black" stroke-width="2" marker-end="url(#arrow)" />
<text x="324" y="183" font-family="sans-serif" font-size="16">16</text>
<line x1="378" y1="212" x2="338" y2="307" stroke="black" stroke-width="2" marker-end="url(#arrow)" />
<text x="358" y="259.5" font-family="sans-serif" font-size="16">17</text>
<line x1="270" y1="154" x2="264" y2="275" stroke="black" stroke-width="2" marker-end="url(#arrow)" />
<text x="267" y="214.5" font-family="sans-serif" font-size="16">18</text>
<line x1="264" y1="275" x2="155" y2="311" stroke="black" stroke-width="2" marker-end="url(#arrow)" />
<text x="209.5" y="293" font-family="sans-serif" font-size="16">19</text>
<circle cx="637" cy="228" r="4" style="fill:#dd0;"/>
<text x="637" y="244" style="fill:#dd0" font-family="sans-serif" font-size="16">0</text>
<circle cx="550" cy="120" r="4" style="fill:#d00;"/>
<text x="550" y="136" style="fill:#d00" font-family="sans-serif" font-size="16">A</text>
<circle cx="529" cy="281" r="4" style="fill:#d00;"/>
<text x="529" y="297" style="fill:#d00" font-family="sans-serif" font-size="16">B</text>
<circle cx="453" cy="77" r="4" style="fill:#d00;"/>
<text x="453" y="93" style="fill:#d00" font-family="sans-serif" font-size="16">D</text>
<circle cx="460" cy="191" r="4" style="fill:#d00;"/>
<text x="460" y="207" style="fill:#d00" font-family="sans-serif" font-size="16">C</text>
<circle cx="378" cy="212" r="4" style="fill:#d00;"/>
<text x="378" y="228" style="fill:#d00" font-family="sans-serif" font-size="16">F</text>
<circle cx="348" cy="97" r="4" style="fill:#d00;"/>
<text x="348" y="113" style="fill:#d00" font-family="sans-serif" font-size="16">G</text>
<circle cx="338" cy="307" r="4" style="fill:#d00;"/>
<text x="338" y="323" style="fill:#d00" font-family="sans-serif" font-size="16">H</text>
<circle cx="438" cy="319" r="4" style="fill:#d00;"/>
<text x="438" y="335" style="fill:#d00" font-family="sans-serif" font-size="16">E</text>
<circle cx="270" cy="154" r="4" style="fill:#d00;"/>
<text x="270" y="170" style="fill:#d00" font-family="sans-serif" font-size="16">I</text>
<circle cx="264" cy="275" r="4" style="fill:#d00;"/>
<text x="264" y="291" style="fill:#d00" font-family="sans-serif" font-size="16">J</text>
<circle cx="250" cy="342" r="4" style="fill:#d00;"/>
<text x="250" y="358" style="fill:#d00" font-family="sans-serif" font-size="16">L</text>
<circle cx="209.95" cy="191" r="4" style="fill:#d00;"/>
<text x="209.95" y="207" style="fill:#d00" font-family="sans-serif" font-size="16">K</text>
<circle cx="155" cy="311" r="4" style="fill:#d00;"/>
<text x="155" y="327" style="fill:#d00" font-family="sans-serif" font-size="16">M</text>
</svg>
