<?xml version="1.0" encoding="utf-8"?>
<svg version="1.1" xmlns="http://www.w3.org/2000/svg" xmlns:xlink="http://www.w3.org/1999/xlink"
    width="800" height="480">
  <defs>
  <marker id="arrow" refx="7" refy="2" markerWidth="9" markerHeight="9" orient="auto" markerUnits="strokeWidth">
    <path d="M0,0 L0,4 L7,2 z" fill="#000" />
  </marker>
  </defs>
  <line x1="629" y1="231" x2="527" y2="292" stroke="black" stroke-width="2" marker-end="url(#arrow)" />
<text x="578" y="261.5" font-family="sans-serif" font-size="16">1</text>
<line x1="629" y1="231" x2="523" y2="179" stroke="black" stroke-width="2" marker-end="url(#arrow)" />
<text x="576" y="205" font-family="sans-serif" font-size="16">2</text>
<line x1="523" y1="179" x2="462" y2="103" stroke="black" stroke-width="2" marker-end="url(#arrow)" />
<text x="492.5" y="141" font-family="sans-serif" font-size="16">3</text>
<line x1="527" y1="292" x2="383" y2="334" stroke="black" stroke-width="2" marker-end="url(#arrow)" />
<text x="455" y="313" font-family="sans-serif" font-size="16">4</text>
<line x1="527" y1="292" x2="352" y2="200" stroke="black" stroke-width="2" marker-end="url(#arrow)" />
<text x="439.5" y="246" font-family="sans-serif" font-size="16">5</text>
<line x1="462" y1="103" x2="305" y2="99" stroke="black" stroke-width="2" marker-end="url(#arrow)" />
<text x="383.5" y="101" font-family="sans-serif" font-size="16">6</text>
<line x1="383" y1="334" x2="235" y2="235" stroke="black" stroke-width="2" marker-end="url(#arrow)" />
<text x="309" y="284.5" font-family="sans-serif" font-size="16">7</text>
<line x1="235" y1="235" x2="167" y2="331" stroke="black" stroke-width="2" marker-end="url(#arrow)" />
<text x="201" y="283" font-family="sans-serif" font-size="16">8</text>
<line x1="305" y1="99" x2="112" y2="159" stroke="black" stroke-width="2" marker-end="url(#arrow)" />
<text x="208.5" y="129" font-family="sans-serif" font-size="16">9</text>
<line x1="523" y1="179" x2="352" y2="200" stroke="black" stroke-width="2" marker-end="url(#arrow)" />
<text x="437.5" y="189.5" font-family="sans-serif" font-size="16">10</text>
<line x1="352" y1="200" x2="235" y2="235" stroke="black" stroke-width="2" marker-end="url(#arrow)" />
<text x="293.5" y="217.5" font-family="sans-serif" font-size="16">11</text>
<line x1="305" y1="99" x2="235" y2="235" stroke="black" stroke-width="2" marker-end="url(#arrow)" />
<text x="270" y="167" font-family="sans-serif" font-size="16">12</text>
<line x1="235" y1="235" x2="112" y2="159" stroke="black" stroke-width="2" marker-end="url(#arrow)" />
<text x="173.5" y="197" font-family="sans-serif" font-size="16">13</text>
<circle cx="629" cy="231" r="4" style="fill:#dd0;"/>
<text x="629" y="247" style="fill:#dd0" font-family="sans-serif" font-size="16">0</text>
<circle cx="352" cy="200" r="4" style="fill:#d00;"/>
<text x="352" y="216" style="fill:#d00" font-family="sans-serif" font-size="16">E</text>
<circle cx="235" cy="235" r="4" style="fill:#d00;"/>
<text x="235" y="251" style="fill:#d00" font-family="sans-serif" font-size="16">H</text>
<circle cx="112" cy="159" r="4" style="fill:#d00;"/>
<text x="112" y="175" style="fill:#d00" font-family="sans-serif" font-size="16">D</text>
<circle cx="167" cy="331" r="4" style="fill:#d00;"/>
<text x="167" y="347" style="fill:#d00" font-family="sans-serif" font-size="16">I</text>
<circle cx="383" cy="334" r="4" style="fill:#d00;"/>
<text x="383" y="350" style="fill:#d00" font-family="sans-serif" font-size="16">G</text>
<circle cx="527" cy="292" r="4" style="fill:#d00;"/>
<text x="527" y="308" style="fill:#d00" font-family="sans-serif" font-size="16">F</text>
<circle cx="523" cy="179" r="4" style="fill:#d00;"/>
<text x="523" y="195" style="fill:#d00" font-family="sans-serif" font-size="16">A</text>
<circle cx="462" cy="103" r="4" style="fill:#d00;"/>
<text x="462" y="119" style="fill:#d00" font-family="sans-serif" font-size="16">B</text>
<circle cx="305" cy="99" r="4" style="fill:#d00;"/>
<text x="305" y="115" style="fill:#d00" font-family="sans-serif" font-size="16">C</text>
</svg>
