<?xml version="1.0" encoding="utf-8"?>
<svg version="1.1" xmlns="http://www.w3.org/2000/svg" xmlns:xlink="http://www.w3.org/1999/xlink"
    width="800" height="480">
  <defs>
  <marker id="arrow" refx="7" refy="2" markerWidth="9" markerHeight="9" orient="auto" markerUnits="strokeWidth">
    <path d="M0,0 L0,4 L7,2 z" fill="#000" />
  </marker>
  </defs>
  <line x1="92" y1="91" x2="92" y2="231" stroke="black" stroke-width="2" marker-end="url(#arrow)" />
<text x="92" y="161" font-family="sans-serif" font-size="16">1</text>
<line x1="92" y1="91" x2="229" y2="170" stroke="black" stroke-width="2" marker-end="url(#arrow)" />
<text x="160.5" y="130.5" font-family="sans-serif" font-size="16">2</text>
<line x1="92" y1="231" x2="260" y2="344" stroke="black" stroke-width="2" marker-end="url(#arrow)" />
<text x="176" y="287.5" font-family="sans-serif" font-size="16">3</text>
<line x1="229" y1="170" x2="399" y2="125" stroke="black" stroke-width="2" marker-end="url(#arrow)" />
<text x="314" y="147.5" font-family="sans-serif" font-size="16">4</text>
<line x1="229" y1="170" x2="421" y2="277" stroke="black" stroke-width="2" marker-end="url(#arrow)" />
<text x="325" y="223.5" font-family="sans-serif" font-size="16">5</text>
<line x1="399" y1="125" x2="549" y2="132" stroke="black" stroke-width="2" marker-end="url(#arrow)" />
<text x="474" y="128.5" font-family="sans-serif" font-size="16">6</text>
<line x1="399" y1="125" x2="552" y2="253" stroke="black" stroke-width="2" marker-end="url(#arrow)" />
<text x="475.5" y="189" font-family="sans-serif" font-size="16">7</text>
<line x1="549" y1="132" x2="652" y2="81" stroke="black" stroke-width="2" marker-end="url(#arrow)" />
<text x="600.5" y="106.5" font-family="sans-serif" font-size="16">8</text>
<line x1="552" y1="253" x2="605" y2="345" stroke="black" stroke-width="2" marker-end="url(#arrow)" />
<text x="578.5" y="299" font-family="sans-serif" font-size="16">9</text>
<line x1="260" y1="344" x2="421" y2="277" stroke="black" stroke-width="2" marker-end="url(#arrow)" />
<text x="340.5" y="310.5" font-family="sans-serif" font-size="16">10</text>
<line x1="552" y1="253" x2="549" y2="132" stroke="black" stroke-width="2" marker-end="url(#arrow)" />
<text x="550.5" y="192.5" font-family="sans-serif" font-size="16">11</text>
<line x1="421" y1="277" x2="552" y2="253" stroke="black" stroke-width="2" marker-end="url(#arrow)" />
<text x="486.5" y="265" font-family="sans-serif" font-size="16">12</text>
<circle cx="92" cy="91" r="4" style="fill:#dd0;"/>
<text x="92" y="107" style="fill:#dd0" font-family="sans-serif" font-size="16">0</text>
<circle cx="92" cy="231" r="4" style="fill:#d00;"/>
<text x="92" y="247" style="fill:#d00" font-family="sans-serif" font-size="16">B</text>
<circle cx="229" cy="170" r="4" style="fill:#d00;"/>
<text x="229" y="186" style="fill:#d00" font-family="sans-serif" font-size="16">A</text>
<circle cx="260" cy="344" r="4" style="fill:#d00;"/>
<text x="260" y="360" style="fill:#d00" font-family="sans-serif" font-size="16">D</text>
<circle cx="399" cy="125" r="4" style="fill:#d00;"/>
<text x="399" y="141" style="fill:#d00" font-family="sans-serif" font-size="16">C</text>
<circle cx="421" cy="277" r="4" style="fill:#d00;"/>
<text x="421" y="293" style="fill:#d00" font-family="sans-serif" font-size="16">F</text>
<circle cx="549" cy="132" r="4" style="fill:#d00;"/>
<text x="549" y="148" style="fill:#d00" font-family="sans-serif" font-size="16">E</text>
<circle cx="552" cy="253" r="4" style="fill:#d00;"/>
<text x="552" y="269" style="fill:#d00" font-family="sans-serif" font-size="16">H</text>
<circle cx="652" cy="81" r="4" style="fill:#d00;"/>
<text x="652" y="97" style="fill:#d00" font-family="sans-serif" font-size="16">G</text>
<circle cx="605" cy="345" r="4" style="fill:#d00;"/>
<text x="605" y="361" style="fill:#d00" font-family="sans-serif" font-size="16">I</text>
</svg>
