<?xml version="1.0"?>
<svg version="1.1" xmlns="http://www.w3.org/2000/svg" xmlns:xlink="http://www.w3.org/1999/xlink"
     width="800" height="480">

<defs>
  <marker id="arrow" refX="7" refY="2" markerWidth="6" markerHeight="9" orient="auto" markerUnits="strokeWidth">
    <path d="M0,0 L0,4 L7,2 z" fill="#000" />
  </marker>
</defs>
<line x1="88" y1="214" x2="204" y2="191" stroke="black" stroke-width="2" marker-end="url(#arrow)" />
<text x="146" y="202.5" font-family="sans-serif" font-size="12">1</text>
<line x1="204" y1="191" x2="234" y2="121" stroke="black" stroke-width="2" marker-end="url(#arrow)" />
<text x="219" y="156" font-family="sans-serif" font-size="12">2</text>
<line x1="204" y1="191" x2="274" y2="274" stroke="black" stroke-width="2" marker-end="url(#arrow)" />
<text x="239" y="232.5" font-family="sans-serif" font-size="12">3</text>
<line x1="234" y1="121" x2="321" y2="103" stroke="black" stroke-width="2" marker-end="url(#arrow)" />
<text x="277.5" y="112" font-family="sans-serif" font-size="12">4</text>
<line x1="274" y1="274" x2="370" y2="185" stroke="black" stroke-width="2" marker-end="url(#arrow)" />
<text x="322" y="229.5" font-family="sans-serif" font-size="12">5</text>
<line x1="370" y1="185" x2="468" y2="294" stroke="black" stroke-width="2" marker-end="url(#arrow)" />
<text x="419" y="239.5" font-family="sans-serif" font-size="12">6</text>
<line x1="370" y1="185" x2="486" y2="162" stroke="black" stroke-width="2" marker-end="url(#arrow)" />
<text x="428" y="173.5" font-family="sans-serif" font-size="12">7</text>
<line x1="468" y1="294" x2="588" y2="240" stroke="black" stroke-width="2" marker-end="url(#arrow)" />
<text x="528" y="267" font-family="sans-serif" font-size="12">8</text>
<line x1="588" y1="240" x2="631" y2="312" stroke="black" stroke-width="2" marker-end="url(#arrow)" />
<text x="609.5" y="276" font-family="sans-serif" font-size="12">9</text>
<line x1="588" y1="240" x2="646" y2="153" stroke="black" stroke-width="2" marker-end="url(#arrow)" />
<text x="617" y="196.5" font-family="sans-serif" font-size="12">10</text>
<line x1="321" y1="103" x2="370" y2="185" stroke="black" stroke-width="2" marker-end="url(#arrow)" />
<text x="345.5" y="144" font-family="sans-serif" font-size="12">11</text>
<line x1="486" y1="162" x2="588" y2="240" stroke="black" stroke-width="2" marker-end="url(#arrow)" />
<text x="537" y="201" font-family="sans-serif" font-size="12">12</text>
<circle cx="88" cy="214" r="4" style="fill:#dd0;"/>
<text x="88" y="230" style="fill:#dd0" font-family="sans-serif" font-size="16">1</text>
<circle cx="204" cy="191" r="4" style="fill:#d00;"/>
<text x="204" y="207" style="fill:#d00" font-family="sans-serif" font-size="16">A</text>
<circle cx="234" cy="121" r="4" style="fill:#d00;"/>
<text x="234" y="137" style="fill:#d00" font-family="sans-serif" font-size="16">B</text>
<circle cx="274" cy="274" r="4" style="fill:#d00;"/>
<text x="274" y="290" style="fill:#d00" font-family="sans-serif" font-size="16">C</text>
<circle cx="321" cy="103" r="4" style="fill:#d00;"/>
<text x="321" y="119" style="fill:#d00" font-family="sans-serif" font-size="16">D</text>
<circle cx="370" cy="185" r="4" style="fill:#d00;"/>
<text x="370" y="201" style="fill:#d00" font-family="sans-serif" font-size="16">E</text>
<circle cx="468" cy="294" r="4" style="fill:#d00;"/>
<text x="468" y="310" style="fill:#d00" font-family="sans-serif" font-size="16">F</text>
<circle cx="486" cy="162" r="4" style="fill:#d00;"/>
<text x="486" y="178" style="fill:#d00" font-family="sans-serif" font-size="16">G</text>
<circle cx="588" cy="240" r="4" style="fill:#d00;"/>
<text x="588" y="256" style="fill:#d00" font-family="sans-serif" font-size="16">H</text>
<circle cx="631" cy="312" r="4" style="fill:#d00;"/>
<text x="631" y="328" style="fill:#d00" font-family="sans-serif" font-size="16">I</text>
<circle cx="646" cy="153" r="4" style="fill:#d00;"/>
<text x="646" y="169" style="fill:#d00" font-family="sans-serif" font-size="16">J</text>
</svg>