<?xml version="1.0"?>
<svg version="1.1" xmlns="http://www.w3.org/2000/svg"
    width="800" height="480">
  <defs>
  <marker id="arrow" refX="7" refY="2" markerWidth="6" markerHeight="9" orient="auto" markerUnits="strokeWidth">
    <path d="M0,0 L0,4 L7,2 z" fill="#000" />
  </marker>
  </defs>
  <line x1="113" y1="201" x2="227" y2="146" stroke="black" stroke-width="2" marker-end="url(#arrow)" />
<text x="170" y="173.5" font-family="sans-serif" font-size="16">1</text>
<line x1="113" y1="201" x2="261" y2="243" stroke="black" stroke-width="2" marker-end="url(#arrow)" />
<text x="187" y="222" font-family="sans-serif" font-size="16">2</text>
<line x1="261" y1="243" x2="181" y2="301" stroke="black" stroke-width="2" marker-end="url(#arrow)" />
<text x="221" y="272" font-family="sans-serif" font-size="16">3</text>
<line x1="227" y1="146" x2="395" y2="129" stroke="black" stroke-width="2" marker-end="url(#arrow)" />
<text x="311" y="137.5" font-family="sans-serif" font-size="16">4</text>
<line x1="395" y1="129" x2="407" y2="221" stroke="black" stroke-width="2" marker-end="url(#arrow)" />
<text x="401" y="175" font-family="sans-serif" font-size="16">5</text>
<line x1="261" y1="243" x2="397" y2="318" stroke="black" stroke-width="2" marker-end="url(#arrow)" />
<text x="329" y="280.5" font-family="sans-serif" font-size="16">6</text>
<line x1="395" y1="129" x2="512" y2="99" stroke="black" stroke-width="2" marker-end="url(#arrow)" />
<text x="453.5" y="114" font-family="sans-serif" font-size="16">7</text>
<line x1="512" y1="99" x2="489" y2="176" stroke="black" stroke-width="2" marker-end="url(#arrow)" />
<text x="500.5" y="137.5" font-family="sans-serif" font-size="16">8</text>
<line x1="407" y1="221" x2="532" y2="257" stroke="black" stroke-width="2" marker-end="url(#arrow)" />
<text x="469.5" y="239" font-family="sans-serif" font-size="16">9</text>
<line x1="397" y1="318" x2="610" y2="260" stroke="black" stroke-width="2" marker-end="url(#arrow)" />
<text x="503.5" y="289" font-family="sans-serif" font-size="16">10</text>
<line x1="512" y1="99" x2="654" y2="116" stroke="black" stroke-width="2" marker-end="url(#arrow)" />
<text x="583" y="107.5" font-family="sans-serif" font-size="16">11</text>
<line x1="227" y1="146" x2="261" y2="243" stroke="black" stroke-width="2" marker-end="url(#arrow)" />
<text x="244" y="194.5" font-family="sans-serif" font-size="16">12</text>
<line x1="261" y1="243" x2="395" y2="129" stroke="black" stroke-width="2" marker-end="url(#arrow)" />
<text x="328" y="186" font-family="sans-serif" font-size="16">13</text>
<line x1="397" y1="318" x2="407" y2="221" stroke="black" stroke-width="2" marker-end="url(#arrow)" />
<text x="402" y="269.5" font-family="sans-serif" font-size="16">14</text>
<line x1="532" y1="257" x2="489" y2="176" stroke="black" stroke-width="2" marker-end="url(#arrow)" />
<text x="510.5" y="216.5" font-family="sans-serif" font-size="16">15</text>
<line x1="397" y1="318" x2="532" y2="257" stroke="black" stroke-width="2" marker-end="url(#arrow)" />
<text x="464.5" y="287.5" font-family="sans-serif" font-size="16">16</text>
<line x1="532" y1="257" x2="654" y2="116" stroke="black" stroke-width="2" marker-end="url(#arrow)" />
<text x="593" y="186.5" font-family="sans-serif" font-size="16">17</text>
<line x1="610" y1="260" x2="654" y2="116" stroke="black" stroke-width="2" marker-end="url(#arrow)" />
<text x="632" y="188" font-family="sans-serif" font-size="16">18</text>
<circle cx="113" cy="201" r="4" style="fill:#dd0;"/>
<text x="113" y="217" style="fill:#dd0" font-family="sans-serif" font-size="16">1</text>
<circle cx="407" cy="221" r="4" style="fill:#d00;"/>
<text x="407" y="237" style="fill:#d00" font-family="sans-serif" font-size="16">E</text>
<circle cx="227" cy="146" r="4" style="fill:#d00;"/>
<text x="227" y="162" style="fill:#d00" font-family="sans-serif" font-size="16">A</text>
<circle cx="261" cy="243" r="4" style="fill:#d00;"/>
<text x="261" y="259" style="fill:#d00" font-family="sans-serif" font-size="16">B</text>
<circle cx="181" cy="301" r="4" style="fill:#d00;"/>
<text x="181" y="317" style="fill:#d00" font-family="sans-serif" font-size="16">C</text>
<circle cx="395" cy="129" r="4" style="fill:#d00;"/>
<text x="395" y="145" style="fill:#d00" font-family="sans-serif" font-size="16">D</text>
<circle cx="397" cy="318" r="4" style="fill:#d00;"/>
<text x="397" y="334" style="fill:#d00" font-family="sans-serif" font-size="16">F</text>
<circle cx="512" cy="99" r="4" style="fill:#d00;"/>
<text x="512" y="115" style="fill:#d00" font-family="sans-serif" font-size="16">G</text>
<circle cx="489" cy="176" r="4" style="fill:#d00;"/>
<text x="489" y="192" style="fill:#d00" font-family="sans-serif" font-size="16">J</text>
<circle cx="532" cy="257" r="4" style="fill:#d00;"/>
<text x="532" y="273" style="fill:#d00" font-family="sans-serif" font-size="16">H</text>
<circle cx="610" cy="260" r="4" style="fill:#d00;"/>
<text x="610" y="276" style="fill:#d00" font-family="sans-serif" font-size="16">I</text>
<circle cx="654" cy="116" r="4" style="fill:#d00;"/>
<text x="654" y="132" style="fill:#d00" font-family="sans-serif" font-size="16">K</text>
</svg>
