<?xml version="1.0"?>
<svg version="1.1" xmlns="http://www.w3.org/2000/svg"
    width="800" height="480">
  <defs>
  <marker id="arrow" refX="7" refY="2" markerWidth="6" markerHeight="9" orient="auto" markerUnits="strokeWidth">
    <path d="M0,0 L0,4 L7,2 z" fill="#000" />
  </marker>
  </defs>
  <line x1="169" y1="112" x2="264" y2="181" stroke="black" stroke-width="2" marker-end="url(#arrow)" />
<text x="216.5" y="146.5" font-family="sans-serif" font-size="16">1</text>
<line x1="264" y1="181" x2="316" y2="241" stroke="black" stroke-width="2" marker-end="url(#arrow)" />
<text x="290" y="211" font-family="sans-serif" font-size="16">2</text>
<line x1="264" y1="181" x2="336" y2="123" stroke="black" stroke-width="2" marker-end="url(#arrow)" />
<text x="300" y="152" font-family="sans-serif" font-size="16">3</text>
<line x1="316" y1="241" x2="375" y2="319" stroke="black" stroke-width="2" marker-end="url(#arrow)" />
<text x="345.5" y="280" font-family="sans-serif" font-size="16">4</text>
<line x1="316" y1="241" x2="430" y2="278" stroke="black" stroke-width="2" marker-end="url(#arrow)" />
<text x="373" y="259.5" font-family="sans-serif" font-size="16">5</text>
<line x1="336" y1="123" x2="447" y2="170" stroke="black" stroke-width="2" marker-end="url(#arrow)" />
<text x="391.5" y="146.5" font-family="sans-serif" font-size="16">6</text>
<line x1="375" y1="319" x2="462" y2="300" stroke="black" stroke-width="2" marker-end="url(#arrow)" />
<text x="418.5" y="309.5" font-family="sans-serif" font-size="16">7</text>
<line x1="447" y1="170" x2="533" y2="230" stroke="black" stroke-width="2" marker-end="url(#arrow)" />
<text x="490" y="200" font-family="sans-serif" font-size="16">8</text>
<line x1="336" y1="123" x2="548" y2="101" stroke="black" stroke-width="2" marker-end="url(#arrow)" />
<text x="442" y="112" font-family="sans-serif" font-size="16">9</text>
<line x1="548" y1="101" x2="619" y2="184" stroke="black" stroke-width="2" marker-end="url(#arrow)" />
<text x="583.5" y="142.5" font-family="sans-serif" font-size="16">10</text>
<line x1="316" y1="241" x2="233" y2="295" stroke="black" stroke-width="2" marker-end="url(#arrow)" />
<text x="274.5" y="268" font-family="sans-serif" font-size="16">11</text>
<line x1="533" y1="230" x2="657" y2="292" stroke="black" stroke-width="2" marker-end="url(#arrow)" />
<text x="595" y="261" font-family="sans-serif" font-size="16">12</text>
<line x1="462" y1="300" x2="513" y2="327" stroke="black" stroke-width="2" marker-end="url(#arrow)" />
<text x="487.5" y="313.5" font-family="sans-serif" font-size="16">13</text>
<line x1="430" y1="278" x2="462" y2="300" stroke="black" stroke-width="2" marker-end="url(#arrow)" />
<text x="446" y="289" font-family="sans-serif" font-size="16">14</text>
<line x1="619" y1="184" x2="533" y2="230" stroke="black" stroke-width="2" marker-end="url(#arrow)" />
<text x="576" y="207" font-family="sans-serif" font-size="16">15</text>
<line x1="619" y1="184" x2="657" y2="292" stroke="black" stroke-width="2" marker-end="url(#arrow)" />
<text x="638" y="238" font-family="sans-serif" font-size="16">16</text>
<line x1="533" y1="230" x2="513" y2="327" stroke="black" stroke-width="2" marker-end="url(#arrow)" />
<text x="523" y="278.5" font-family="sans-serif" font-size="16">17</text>
<circle cx="169" cy="112" r="4" style="fill:#dd0;"/>
<text x="169" y="128" style="fill:#dd0" font-family="sans-serif" font-size="16">1</text>
<circle cx="264" cy="181" r="4" style="fill:#d00;"/>
<text x="264" y="197" style="fill:#d00" font-family="sans-serif" font-size="16">A</text>
<circle cx="316" cy="241" r="4" style="fill:#d00;"/>
<text x="316" y="257" style="fill:#d00" font-family="sans-serif" font-size="16">B</text>
<circle cx="336" cy="123" r="4" style="fill:#d00;"/>
<text x="336" y="139" style="fill:#d00" font-family="sans-serif" font-size="16">C</text>
<circle cx="375" cy="319" r="4" style="fill:#d00;"/>
<text x="375" y="335" style="fill:#d00" font-family="sans-serif" font-size="16">D</text>
<circle cx="430" cy="278" r="4" style="fill:#d00;"/>
<text x="430" y="294" style="fill:#d00" font-family="sans-serif" font-size="16">E</text>
<circle cx="447" cy="170" r="4" style="fill:#d00;"/>
<text x="447" y="186" style="fill:#d00" font-family="sans-serif" font-size="16">F</text>
<circle cx="462" cy="300" r="4" style="fill:#d00;"/>
<text x="462" y="316" style="fill:#d00" font-family="sans-serif" font-size="16">G</text>
<circle cx="533" cy="230" r="4" style="fill:#d00;"/>
<text x="533" y="246" style="fill:#d00" font-family="sans-serif" font-size="16">H</text>
<circle cx="548" cy="101" r="4" style="fill:#d00;"/>
<text x="548" y="117" style="fill:#d00" font-family="sans-serif" font-size="16">I</text>
<circle cx="619" cy="184" r="4" style="fill:#d00;"/>
<text x="619" y="200" style="fill:#d00" font-family="sans-serif" font-size="16">J</text>
<circle cx="233" cy="295" r="4" style="fill:#d00;"/>
<text x="233" y="311" style="fill:#d00" font-family="sans-serif" font-size="16">K</text>
<circle cx="657" cy="292" r="4" style="fill:#d00;"/>
<text x="657" y="308" style="fill:#d00" font-family="sans-serif" font-size="16">L</text>
<circle cx="513" cy="327" r="4" style="fill:#d00;"/>
<text x="513" y="343" style="fill:#d00" font-family="sans-serif" font-size="16">Z</text>
</svg>
