<?xml version="1.0"?>
<svg version="1.1" xmlns="http://www.w3.org/2000/svg" xmlns:xlink="http://www.w3.org/1999/xlink"
     width="800" height="480">

<defs>
  <marker id="arrow" refX="7" refY="2" markerWidth="6" markerHeight="9" orient="auto" markerUnits="strokeWidth">
    <path d="M0,0 L0,4 L7,2 z" fill="#000" />
  </marker>
</defs>
<line x1="144.5" y1="210.5" x2="89.5" y2="276.5" stroke="black" stroke-width="2" marker-end="url(#arrow)" />
<text x="117" y="243.5" font-family="sans-serif" font-size="12">1</text>
<line x1="162" y1="113" x2="144.5" y2="210.5" stroke="black" stroke-width="2" marker-end="url(#arrow)" />
<text x="153.25" y="161.75" font-family="sans-serif" font-size="12">2</text>
<line x1="89.5" y1="276.5" x2="173.5" y2="326.5" stroke="black" stroke-width="2" marker-end="url(#arrow)" />
<text x="131.5" y="301.5" font-family="sans-serif" font-size="12">3</text>
<line x1="212.5" y1="282.5" x2="241.5" y2="335.5" stroke="black" stroke-width="2" marker-end="url(#arrow)" />
<text x="227" y="309" font-family="sans-serif" font-size="12">4</text>
<line x1="162" y1="113" x2="270.5" y2="114.5" stroke="black" stroke-width="2" marker-end="url(#arrow)" />
<text x="216.25" y="113.75" font-family="sans-serif" font-size="12">5</text>
<line x1="241.5" y1="335.5" x2="308.5" y2="234.5" stroke="black" stroke-width="2" marker-end="url(#arrow)" />
<text x="275" y="285" font-family="sans-serif" font-size="12">6</text>
<line x1="270.5" y1="114.5" x2="367.5" y2="152.5" stroke="black" stroke-width="2" marker-end="url(#arrow)" />
<text x="319" y="133.5" font-family="sans-serif" font-size="12">7</text>
<line x1="241.5" y1="335.5" x2="399.5" y2="303.5" stroke="black" stroke-width="2" marker-end="url(#arrow)" />
<text x="320.5" y="319.5" font-family="sans-serif" font-size="12">8</text>
<line x1="367.5" y1="152.5" x2="460.5" y2="104.5" stroke="black" stroke-width="2" marker-end="url(#arrow)" />
<text x="414" y="128.5" font-family="sans-serif" font-size="12">9</text>
<line x1="367.5" y1="152.5" x2="466.5" y2="196.5" stroke="black" stroke-width="2" marker-end="url(#arrow)" />
<text x="417" y="174.5" font-family="sans-serif" font-size="12">10</text>
<line x1="460.5" y1="104.5" x2="537.5" y2="92.5" stroke="black" stroke-width="2" marker-end="url(#arrow)" />
<text x="499" y="98.5" font-family="sans-serif" font-size="12">11</text>
<line x1="466.5" y1="196.5" x2="581.5" y2="240.5" stroke="black" stroke-width="2" marker-end="url(#arrow)" />
<text x="524" y="218.5" font-family="sans-serif" font-size="12">12</text>
<line x1="466.5" y1="196.5" x2="619.5" y2="171.5" stroke="black" stroke-width="2" marker-end="url(#arrow)" />
<text x="543" y="184" font-family="sans-serif" font-size="12">13</text>
<line x1="619.5" y1="171.5" x2="665.5" y2="130.5" stroke="black" stroke-width="2" marker-end="url(#arrow)" />
<text x="642.5" y="151" font-family="sans-serif" font-size="12">14</text>
<line x1="581.5" y1="240.5" x2="596.5" y2="321.5" stroke="black" stroke-width="2" marker-end="url(#arrow)" />
<text x="589" y="281" font-family="sans-serif" font-size="12">15</text>
<line x1="537.5" y1="92.5" x2="612.5" y2="90.5" stroke="black" stroke-width="2" marker-end="url(#arrow)" />
<text x="575" y="91.5" font-family="sans-serif" font-size="12">16</text>
<line x1="144.5" y1="210.5" x2="212.5" y2="282.5" stroke="black" stroke-width="2" marker-end="url(#arrow)" />
<text x="178.5" y="246.5" font-family="sans-serif" font-size="12">17</text>
<line x1="399.5" y1="303.5" x2="484.5" y2="314.5" stroke="black" stroke-width="2" marker-end="url(#arrow)" />
<text x="442" y="309" font-family="sans-serif" font-size="12">18</text>
<line x1="581.5" y1="240.5" x2="646.5" y2="241.5" stroke="black" stroke-width="2" marker-end="url(#arrow)" />
<text x="614" y="241" font-family="sans-serif" font-size="12">19</text>
<line x1="308.5" y1="234.5" x2="367.5" y2="152.5" stroke="black" stroke-width="2" marker-end="url(#arrow)" />
<text x="338" y="193.5" font-family="sans-serif" font-size="12">20</text>
<line x1="399.5" y1="303.5" x2="466.5" y2="196.5" stroke="black" stroke-width="2" marker-end="url(#arrow)" />
<text x="433" y="250" font-family="sans-serif" font-size="12">21</text>
<line x1="484.5" y1="314.5" x2="581.5" y2="240.5" stroke="black" stroke-width="2" marker-end="url(#arrow)" />
<text x="533" y="277.5" font-family="sans-serif" font-size="12">22</text>
<line x1="537.5" y1="92.5" x2="619.5" y2="171.5" stroke="black" stroke-width="2" marker-end="url(#arrow)" />
<text x="578.5" y="132" font-family="sans-serif" font-size="12">23</text>
<line x1="484.5" y1="314.5" x2="596.5" y2="321.5" stroke="black" stroke-width="2" marker-end="url(#arrow)" />
<text x="540.5" y="318" font-family="sans-serif" font-size="12">24</text>
<line x1="466.5" y1="196.5" x2="484.5" y2="314.5" stroke="black" stroke-width="2" marker-end="url(#arrow)" />
<text x="475.5" y="255.5" font-family="sans-serif" font-size="12">25</text>
<line x1="619.5" y1="171.5" x2="646.5" y2="241.5" stroke="black" stroke-width="2" marker-end="url(#arrow)" />
<text x="633" y="206.5" font-family="sans-serif" font-size="12">26</text>
<circle cx="162" cy="113" r="4" style="fill:#dd0;"/>
<text x="162" y="129" style="fill:#dd0" font-family="sans-serif" font-size="16">1</text>
<circle cx="89.5" cy="276.5" r="4" style="fill:#d00;"/>
<text x="89.5" y="292.5" style="fill:#d00" font-family="sans-serif" font-size="16">A</text>
<circle cx="144.5" cy="210.5" r="4" style="fill:#d00;"/>
<text x="144.5" y="226.5" style="fill:#d00" font-family="sans-serif" font-size="16">B</text>
<circle cx="173.5" cy="326.5" r="4" style="fill:#d00;"/>
<text x="173.5" y="342.5" style="fill:#d00" font-family="sans-serif" font-size="16">C</text>
<circle cx="241.5" cy="335.5" r="4" style="fill:#d00;"/>
<text x="241.5" y="351.5" style="fill:#d00" font-family="sans-serif" font-size="16">D</text>
<circle cx="270.5" cy="114.5" r="4" style="fill:#d00;"/>
<text x="270.5" y="130.5" style="fill:#d00" font-family="sans-serif" font-size="16">E</text>
<circle cx="308.5" cy="234.5" r="4" style="fill:#d00;"/>
<text x="308.5" y="250.5" style="fill:#d00" font-family="sans-serif" font-size="16">F</text>
<circle cx="367.5" cy="152.5" r="4" style="fill:#d00;"/>
<text x="367.5" y="168.5" style="fill:#d00" font-family="sans-serif" font-size="16">G</text>
<circle cx="399.5" cy="303.5" r="4" style="fill:#d00;"/>
<text x="399.5" y="319.5" style="fill:#d00" font-family="sans-serif" font-size="16">H</text>
<circle cx="460.5" cy="104.5" r="4" style="fill:#d00;"/>
<text x="460.5" y="120.5" style="fill:#d00" font-family="sans-serif" font-size="16">I</text>
<circle cx="466.5" cy="196.5" r="4" style="fill:#d00;"/>
<text x="466.5" y="212.5" style="fill:#d00" font-family="sans-serif" font-size="16">J</text>
<circle cx="537.5" cy="92.5" r="4" style="fill:#d00;"/>
<text x="537.5" y="108.5" style="fill:#d00" font-family="sans-serif" font-size="16">K</text>
<circle cx="581.5" cy="240.5" r="4" style="fill:#d00;"/>
<text x="581.5" y="256.5" style="fill:#d00" font-family="sans-serif" font-size="16">L</text>
<circle cx="619.5" cy="171.5" r="4" style="fill:#d00;"/>
<text x="619.5" y="187.5" style="fill:#d00" font-family="sans-serif" font-size="16">M</text>
<circle cx="665.5" cy="130.5" r="4" style="fill:#d00;"/>
<text x="665.5" y="146.5" style="fill:#d00" font-family="sans-serif" font-size="16">N</text>
<circle cx="596.5" cy="321.5" r="4" style="fill:#d00;"/>
<text x="596.5" y="337.5" style="fill:#d00" font-family="sans-serif" font-size="16">O</text>
<circle cx="612.5" cy="90.5" r="4" style="fill:#d00;"/>
<text x="612.5" y="106.5" style="fill:#d00" font-family="sans-serif" font-size="16">P</text>
<circle cx="212.5" cy="282.5" r="4" style="fill:#d00;"/>
<text x="212.5" y="298.5" style="fill:#d00" font-family="sans-serif" font-size="16">X</text>
<circle cx="484.5" cy="314.5" r="4" style="fill:#d00;"/>
<text x="484.5" y="330.5" style="fill:#d00" font-family="sans-serif" font-size="16">Y</text>
<circle cx="646.5" cy="241.5" r="4" style="fill:#d00;"/>
<text x="646.5" y="257.5" style="fill:#d00" font-family="sans-serif" font-size="16">Z</text>
</svg>