<?xml version="1.0"?>
<svg version="1.1" xmlns="http://www.w3.org/2000/svg"
    width="800" height="480">
  <defs>
  <marker id="arrow" refX="7" refY="2" markerWidth="6" markerHeight="9" orient="auto" markerUnits="strokeWidth">
    <path d="M0,0 L0,4 L7,2 z" fill="#000" />
  </marker>
  </defs>
  <line x1="608" y1="244" x2="530.5" y2="287.5" stroke="black" stroke-width="2" marker-end="url(#arrow)" />
<text x="569.25" y="265.75" font-family="sans-serif" font-size="16">1</text>
<line x1="608" y1="244" x2="506.5" y2="188.5" stroke="black" stroke-width="2" marker-end="url(#arrow)" />
<text x="557.25" y="216.25" font-family="sans-serif" font-size="16">2</text>
<line x1="530.5" y1="287.5" x2="456.5" y2="314.5" stroke="black" stroke-width="2" marker-end="url(#arrow)" />
<text x="493.5" y="301" font-family="sans-serif" font-size="16">3</text>
<line x1="391.5" y1="111.5" x2="408.5" y2="224.5" stroke="black" stroke-width="2" marker-end="url(#arrow)" />
<text x="400" y="168" font-family="sans-serif" font-size="16">4</text>
<line x1="506.5" y1="188.5" x2="391.5" y2="111.5" stroke="black" stroke-width="2" marker-end="url(#arrow)" />
<text x="449" y="150" font-family="sans-serif" font-size="16">5</text>
<line x1="456.5" y1="314.5" x2="349.5" y2="331.5" stroke="black" stroke-width="2" marker-end="url(#arrow)" />
<text x="403" y="323" font-family="sans-serif" font-size="16">6</text>
<line x1="391.5" y1="111.5" x2="332.5" y2="167.5" stroke="black" stroke-width="2" marker-end="url(#arrow)" />
<text x="362" y="139.5" font-family="sans-serif" font-size="16">7</text>
<line x1="408.5" y1="224.5" x2="318.5" y2="260.5" stroke="black" stroke-width="2" marker-end="url(#arrow)" />
<text x="363.5" y="242.5" font-family="sans-serif" font-size="16">8</text>
<line x1="349.5" y1="331.5" x2="264.5" y2="316.5" stroke="black" stroke-width="2" marker-end="url(#arrow)" />
<text x="307" y="324" font-family="sans-serif" font-size="16">9</text>
<line x1="318.5" y1="260.5" x2="232.5" y2="268.5" stroke="black" stroke-width="2" marker-end="url(#arrow)" />
<text x="275.5" y="264.5" font-family="sans-serif" font-size="16">10</text>
<line x1="264.5" y1="316.5" x2="128.5" y2="268.5" stroke="black" stroke-width="2" marker-end="url(#arrow)" />
<text x="196.5" y="292.5" font-family="sans-serif" font-size="16">11</text>
<line x1="391.5" y1="111.5" x2="469.5" y2="76.5" stroke="black" stroke-width="2" marker-end="url(#arrow)" />
<text x="430.5" y="94" font-family="sans-serif" font-size="16">12</text>
<line x1="232.5" y1="268.5" x2="167.5" y2="194.5" stroke="black" stroke-width="2" marker-end="url(#arrow)" />
<text x="200" y="231.5" font-family="sans-serif" font-size="16">13</text>
<line x1="128.5" y1="268.5" x2="82.5" y2="172.5" stroke="black" stroke-width="2" marker-end="url(#arrow)" />
<text x="105.5" y="220.5" font-family="sans-serif" font-size="16">14</text>
<line x1="506.5" y1="188.5" x2="456.5" y2="314.5" stroke="black" stroke-width="2" marker-end="url(#arrow)" />
<text x="481.5" y="251.5" font-family="sans-serif" font-size="16">15</text>
<line x1="408.5" y1="224.5" x2="349.5" y2="331.5" stroke="black" stroke-width="2" marker-end="url(#arrow)" />
<text x="379" y="278" font-family="sans-serif" font-size="16">16</text>
<line x1="232.5" y1="268.5" x2="128.5" y2="268.5" stroke="black" stroke-width="2" marker-end="url(#arrow)" />
<text x="180.5" y="268.5" font-family="sans-serif" font-size="16">17</text>
<line x1="128.5" y1="268.5" x2="167.5" y2="194.5" stroke="black" stroke-width="2" marker-end="url(#arrow)" />
<text x="148" y="231.5" font-family="sans-serif" font-size="16">18</text>
<circle cx="349.5" cy="331.5" r="4" style="fill:#d00;"/>
<text x="349.5" y="343.5" style="fill:#d00" font-family="sans-serif" font-size="12">6990,6630</text>
<circle cx="530.5" cy="287.5" r="4" style="fill:#d00;"/>
<text x="530.5" y="299.5" style="fill:#d00" font-family="sans-serif" font-size="12">10610,5750</text>
<circle cx="506.5" cy="188.5" r="4" style="fill:#d00;"/>
<text x="506.5" y="200.5" style="fill:#d00" font-family="sans-serif" font-size="12">10130,3770</text>
<circle cx="456.5" cy="314.5" r="4" style="fill:#d00;"/>
<text x="456.5" y="326.5" style="fill:#d00" font-family="sans-serif" font-size="12">9130,6290</text>
<circle cx="408.5" cy="224.5" r="4" style="fill:#d00;"/>
<text x="408.5" y="236.5" style="fill:#d00" font-family="sans-serif" font-size="12">8170,4490</text>
<circle cx="391.5" cy="111.5" r="4" style="fill:#d00;"/>
<text x="391.5" y="123.5" style="fill:#d00" font-family="sans-serif" font-size="12">7830,2230</text>
<circle cx="332.5" cy="167.5" r="4" style="fill:#d00;"/>
<text x="332.5" y="179.5" style="fill:#d00" font-family="sans-serif" font-size="12">6650,3350</text>
<circle cx="318.5" cy="260.5" r="4" style="fill:#d00;"/>
<text x="318.5" y="272.5" style="fill:#d00" font-family="sans-serif" font-size="12">6370,5210</text>
<circle cx="264.5" cy="316.5" r="4" style="fill:#d00;"/>
<text x="264.5" y="328.5" style="fill:#d00" font-family="sans-serif" font-size="12">5290,6330</text>
<circle cx="232.5" cy="268.5" r="4" style="fill:#d00;"/>
<text x="232.5" y="280.5" style="fill:#d00" font-family="sans-serif" font-size="12">4650,5370</text>
<circle cx="128.5" cy="268.5" r="4" style="fill:#d00;"/>
<text x="128.5" y="280.5" style="fill:#d00" font-family="sans-serif" font-size="12">2570,5370</text>
<circle cx="469.5" cy="76.5" r="4" style="fill:#d00;"/>
<text x="469.5" y="88.5" style="fill:#d00" font-family="sans-serif" font-size="12">9390,1530</text>
<circle cx="167.5" cy="194.5" r="4" style="fill:#d00;"/>
<text x="167.5" y="206.5" style="fill:#d00" font-family="sans-serif" font-size="12">3350,3890</text>
<circle cx="82.5" cy="172.5" r="4" style="fill:#d00;"/>
<text x="82.5" y="184.5" style="fill:#d00" font-family="sans-serif" font-size="12">1650,3450</text>
<circle cx="608" cy="244" r="4" style="fill:#dd0;"/>
<text x="608" y="256" style="fill:#dd0" font-family="sans-serif" font-size="12">12160,4880</text>
</svg>
