<?xml version="1.0"?>
<svg version="1.1" xmlns="http://www.w3.org/2000/svg" xmlns:xlink="http://www.w3.org/1999/xlink"
     width="800" height="480">

<defs>
  <marker id="arrow" refX="7" refY="2" markerWidth="6" markerHeight="9" orient="auto" markerUnits="strokeWidth">
    <path d="M0,0 L0,4 L7,2 z" fill="#000" />
  </marker>
</defs>
<line x1="134" y1="96" x2="136.5" y2="211.5" stroke="black" stroke-width="2" marker-end="url(#arrow)" />
<text x="135.25" y="153.75" font-family="sans-serif" font-size="12">1</text>
<line x1="134" y1="96" x2="206.5" y2="149.5" stroke="black" stroke-width="2" marker-end="url(#arrow)" />
<text x="170.25" y="122.75" font-family="sans-serif" font-size="12">2</text>
<line x1="136.5" y1="211.5" x2="208.5" y2="264.5" stroke="black" stroke-width="2" marker-end="url(#arrow)" />
<text x="172.5" y="238" font-family="sans-serif" font-size="12">3</text>
<line x1="206.5" y1="149.5" x2="277.5" y2="188.5" stroke="black" stroke-width="2" marker-end="url(#arrow)" />
<text x="242" y="169" font-family="sans-serif" font-size="12">4</text>
<line x1="208.5" y1="264.5" x2="385" y2="239" stroke="black" stroke-width="2" marker-end="url(#arrow)" />
<text x="296.75" y="251.75" font-family="sans-serif" font-size="12">5</text>
<line x1="277.5" y1="188.5" x2="403.5" y2="124.5" stroke="black" stroke-width="2" marker-end="url(#arrow)" />
<text x="340.5" y="156.5" font-family="sans-serif" font-size="12">6</text>
<line x1="385" y1="239" x2="437.5" y2="265.5" stroke="black" stroke-width="2" marker-end="url(#arrow)" />
<text x="411.25" y="252.25" font-family="sans-serif" font-size="12">7</text>
<line x1="403.5" y1="124.5" x2="530.5" y2="209.5" stroke="black" stroke-width="2" marker-end="url(#arrow)" />
<text x="467" y="167" font-family="sans-serif" font-size="12">8</text>
<line x1="403.5" y1="124.5" x2="511.5" y2="97.5" stroke="black" stroke-width="2" marker-end="url(#arrow)" />
<text x="457.5" y="111" font-family="sans-serif" font-size="12">9</text>
<line x1="511.5" y1="97.5" x2="649.5" y2="180.5" stroke="black" stroke-width="2" marker-end="url(#arrow)" />
<text x="580.5" y="139" font-family="sans-serif" font-size="12">10</text>
<line x1="437.5" y1="265.5" x2="387.5" y2="324.5" stroke="black" stroke-width="2" marker-end="url(#arrow)" />
<text x="412.5" y="295" font-family="sans-serif" font-size="12">11</text>
<line x1="530.5" y1="209.5" x2="672.5" y2="259.5" stroke="black" stroke-width="2" marker-end="url(#arrow)" />
<text x="601.5" y="234.5" font-family="sans-serif" font-size="12">12</text>
<line x1="437.5" y1="265.5" x2="501.5" y2="305.5" stroke="black" stroke-width="2" marker-end="url(#arrow)" />
<text x="469.5" y="285.5" font-family="sans-serif" font-size="12">13</text>
<line x1="277.5" y1="188.5" x2="385" y2="239" stroke="black" stroke-width="2" marker-end="url(#arrow)" />
<text x="331.25" y="213.75" font-family="sans-serif" font-size="12">14</text>
<line x1="511.5" y1="97.5" x2="530.5" y2="209.5" stroke="black" stroke-width="2" marker-end="url(#arrow)" />
<text x="521" y="153.5" font-family="sans-serif" font-size="12">15</text>
<line x1="649.5" y1="180.5" x2="530.5" y2="209.5" stroke="black" stroke-width="2" marker-end="url(#arrow)" />
<text x="590" y="195" font-family="sans-serif" font-size="12">16</text>
<line x1="649.5" y1="180.5" x2="672.5" y2="259.5" stroke="black" stroke-width="2" marker-end="url(#arrow)" />
<text x="661" y="220" font-family="sans-serif" font-size="12">17</text>
<line x1="530.5" y1="209.5" x2="501.5" y2="305.5" stroke="black" stroke-width="2" marker-end="url(#arrow)" />
<text x="516" y="257.5" font-family="sans-serif" font-size="12">18</text>
<circle cx="136.5" cy="211.5" r="4" style="fill:#d00;"/>
<text x="136.5" y="227.5" style="fill:#d00" font-family="sans-serif" font-size="16">A</text>
<circle cx="206.5" cy="149.5" r="4" style="fill:#d00;"/>
<text x="206.5" y="165.5" style="fill:#d00" font-family="sans-serif" font-size="16">B</text>
<circle cx="208.5" cy="264.5" r="4" style="fill:#d00;"/>
<text x="208.5" y="280.5" style="fill:#d00" font-family="sans-serif" font-size="16">C</text>
<circle cx="277.5" cy="188.5" r="4" style="fill:#d00;"/>
<text x="277.5" y="204.5" style="fill:#d00" font-family="sans-serif" font-size="16">D</text>
<circle cx="385" cy="239" r="4" style="fill:#d00;"/>
<text x="385" y="255" style="fill:#d00" font-family="sans-serif" font-size="16">E</text>
<circle cx="403.5" cy="124.5" r="4" style="fill:#d00;"/>
<text x="403.5" y="140.5" style="fill:#d00" font-family="sans-serif" font-size="16">F</text>
<circle cx="437.5" cy="265.5" r="4" style="fill:#d00;"/>
<text x="437.5" y="281.5" style="fill:#d00" font-family="sans-serif" font-size="16">G</text>
<circle cx="530.5" cy="209.5" r="4" style="fill:#d00;"/>
<text x="530.5" y="225.5" style="fill:#d00" font-family="sans-serif" font-size="16">H</text>
<circle cx="511.5" cy="97.5" r="4" style="fill:#d00;"/>
<text x="511.5" y="113.5" style="fill:#d00" font-family="sans-serif" font-size="16">I</text>
<circle cx="649.5" cy="180.5" r="4" style="fill:#d00;"/>
<text x="649.5" y="196.5" style="fill:#d00" font-family="sans-serif" font-size="16">J</text>
<circle cx="387.5" cy="324.5" r="4" style="fill:#d00;"/>
<text x="387.5" y="340.5" style="fill:#d00" font-family="sans-serif" font-size="16">K</text>
<circle cx="672.5" cy="259.5" r="4" style="fill:#d00;"/>
<text x="672.5" y="275.5" style="fill:#d00" font-family="sans-serif" font-size="16">L</text>
<circle cx="501.5" cy="305.5" r="4" style="fill:#d00;"/>
<text x="501.5" y="321.5" style="fill:#d00" font-family="sans-serif" font-size="16">Z</text>
<circle cx="134" cy="96" r="4" style="fill:#dd0;"/>
<text x="134" y="112" style="fill:#dd0" font-family="sans-serif" font-size="16">1</text>
</svg>