<?xml version="1.0"?>
<svg version="1.1" xmlns="http://www.w3.org/2000/svg"
    width="800" height="480">
  <defs>
  <marker id="arrow" refX="7" refY="2" markerWidth="6" markerHeight="9" orient="auto" markerUnits="strokeWidth">
    <path d="M0,0 L0,4 L7,2 z" fill="#000" />
  </marker>
  </defs>
  <line x1="115" y1="215" x2="241" y2="144" stroke="black" stroke-width="2" marker-end="url(#arrow)" />
<text x="178" y="179.5" font-family="sans-serif" font-size="16">1</text>
<line x1="241" y1="144" x2="243" y2="269" stroke="black" stroke-width="2" marker-end="url(#arrow)" />
<text x="242" y="206.5" font-family="sans-serif" font-size="16">2</text>
<line x1="241" y1="144" x2="306" y2="195" stroke="black" stroke-width="2" marker-end="url(#arrow)" />
<text x="273.5" y="169.5" font-family="sans-serif" font-size="16">3</text>
<line x1="306" y1="195" x2="377" y2="161" stroke="black" stroke-width="2" marker-end="url(#arrow)" />
<text x="341.5" y="178" font-family="sans-serif" font-size="16">4</text>
<line x1="306" y1="195" x2="389" y2="256" stroke="black" stroke-width="2" marker-end="url(#arrow)" />
<text x="347.5" y="225.5" font-family="sans-serif" font-size="16">5</text>
<line x1="243" y1="269" x2="396" y2="320" stroke="black" stroke-width="2" marker-end="url(#arrow)" />
<text x="319.5" y="294.5" font-family="sans-serif" font-size="16">6</text>
<line x1="377" y1="161" x2="442" y2="262" stroke="black" stroke-width="2" marker-end="url(#arrow)" />
<text x="409.5" y="211.5" font-family="sans-serif" font-size="16">7</text>
<line x1="483" y1="252" x2="483" y2="179" stroke="black" stroke-width="2" marker-end="url(#arrow)" />
<text x="483" y="215.5" font-family="sans-serif" font-size="16">8</text>
<line x1="442" y1="262" x2="483" y2="252" stroke="black" stroke-width="2" marker-end="url(#arrow)" />
<text x="462.5" y="257" font-family="sans-serif" font-size="16">9</text>
<line x1="483" y1="179" x2="579" y2="145" stroke="black" stroke-width="2" marker-end="url(#arrow)" />
<text x="531" y="162" font-family="sans-serif" font-size="16">10</text>
<line x1="483" y1="179" x2="618" y2="211" stroke="black" stroke-width="2" marker-end="url(#arrow)" />
<text x="550.5" y="195" font-family="sans-serif" font-size="16">11</text>
<line x1="396" y1="320" x2="388" y2="256" stroke="black" stroke-width="2" marker-end="url(#arrow)" />
<text x="392" y="288" font-family="sans-serif" font-size="16">12</text>
<line x1="388" y1="256" x2="442" y2="262" stroke="black" stroke-width="2" marker-end="url(#arrow)" />
<text x="415" y="259" font-family="sans-serif" font-size="16">13</text>
<circle cx="115" cy="215" r="4" style="fill:#dd0;"/>
<text x="115" y="227" style="fill:#dd0" font-family="sans-serif" font-size="12">2300,4300</text>
<circle cx="241" cy="144" r="4" style="fill:#d00;"/>
<text x="241" y="156" style="fill:#d00" font-family="sans-serif" font-size="12">4820,2880</text>
<circle cx="243" cy="269" r="4" style="fill:#d00;"/>
<text x="243" y="281" style="fill:#d00" font-family="sans-serif" font-size="12">4860,5380</text>
<circle cx="306" cy="195" r="4" style="fill:#d00;"/>
<text x="306" y="207" style="fill:#d00" font-family="sans-serif" font-size="12">6120,3900</text>
<circle cx="377" cy="161" r="4" style="fill:#d00;"/>
<text x="377" y="173" style="fill:#d00" font-family="sans-serif" font-size="12">7540,3220</text>
<circle cx="389" cy="256" r="4" style="fill:#d00;"/>
<text x="389" y="268" style="fill:#d00" font-family="sans-serif" font-size="12">7780,5120</text>
<circle cx="396" cy="320" r="4" style="fill:#d00;"/>
<text x="396" y="332" style="fill:#d00" font-family="sans-serif" font-size="12">7920,6400</text>
<circle cx="442" cy="262" r="4" style="fill:#d00;"/>
<text x="442" y="274" style="fill:#d00" font-family="sans-serif" font-size="12">8840,5240</text>
<circle cx="483" cy="179" r="4" style="fill:#d00;"/>
<text x="483" y="191" style="fill:#d00" font-family="sans-serif" font-size="12">9660,3580</text>
<circle cx="483" cy="252" r="4" style="fill:#d00;"/>
<text x="483" y="264" style="fill:#d00" font-family="sans-serif" font-size="12">9660,5040</text>
<circle cx="579" cy="145" r="4" style="fill:#d00;"/>
<text x="579" y="157" style="fill:#d00" font-family="sans-serif" font-size="12">11580,2900</text>
<circle cx="618" cy="211" r="4" style="fill:#d00;"/>
<text x="618" y="223" style="fill:#d00" font-family="sans-serif" font-size="12">12360,4220</text>
<circle cx="388" cy="256" r="4" style="fill:#d00;"/>
<text x="388" y="268" style="fill:#d00" font-family="sans-serif" font-size="12">7760,5120</text>
</svg>
