<?xml version="1.0"?>
<svg version="1.1" xmlns="http://www.w3.org/2000/svg" xmlns:xlink="http://www.w3.org/1999/xlink"
     width="800" height="480">

<defs>
  <marker id="arrow" refX="7" refY="2" markerWidth="6" markerHeight="9" orient="auto" markerUnits="strokeWidth">
    <path d="M0,0 L0,4 L7,2 z" fill="#000" />
  </marker>
</defs>
<line x1="175" y1="177" x2="284" y2="223" stroke="black" stroke-width="2" marker-end="url(#arrow)" />
<text x="229.5" y="200" font-family="sans-serif" font-size="12">1</text>
<line x1="175" y1="177" x2="304" y2="142" stroke="black" stroke-width="2" marker-end="url(#arrow)" />
<text x="239.5" y="159.5" font-family="sans-serif" font-size="12">2</text>
<line x1="284" y1="223" x2="364" y2="303" stroke="black" stroke-width="2" marker-end="url(#arrow)" />
<text x="324" y="263" font-family="sans-serif" font-size="12">3</text>
<line x1="284" y1="223" x2="365" y2="186" stroke="black" stroke-width="2" marker-end="url(#arrow)" />
<text x="324.5" y="204.5" font-family="sans-serif" font-size="12">4</text>
<line x1="304" y1="142" x2="399" y2="117" stroke="black" stroke-width="2" marker-end="url(#arrow)" />
<text x="351.5" y="129.5" font-family="sans-serif" font-size="12">5</text>
<line x1="365" y1="186" x2="476" y2="192" stroke="black" stroke-width="2" marker-end="url(#arrow)" />
<text x="420.5" y="189" font-family="sans-serif" font-size="12">6</text>
<line x1="399" y1="117" x2="510" y2="142" stroke="black" stroke-width="2" marker-end="url(#arrow)" />
<text x="454.5" y="129.5" font-family="sans-serif" font-size="12">7</text>
<line x1="364" y1="303" x2="498" y2="279" stroke="black" stroke-width="2" marker-end="url(#arrow)" />
<text x="431" y="291" font-family="sans-serif" font-size="12">8</text>
<line x1="476" y1="192" x2="546" y2="266" stroke="black" stroke-width="2" marker-end="url(#arrow)" />
<text x="511" y="229" font-family="sans-serif" font-size="12">9</text>
<line x1="546" y1="266" x2="592" y2="257" stroke="black" stroke-width="2" marker-end="url(#arrow)" />
<text x="569" y="261.5" font-family="sans-serif" font-size="12">10</text>
<line x1="510" y1="142" x2="619" y2="158" stroke="black" stroke-width="2" marker-end="url(#arrow)" />
<text x="564.5" y="150" font-family="sans-serif" font-size="12">11</text>
<line x1="365" y1="186" x2="399" y2="117" stroke="black" stroke-width="2" marker-end="url(#arrow)" />
<text x="382" y="151.5" font-family="sans-serif" font-size="12">12</text>
<line x1="510" y1="142" x2="476" y2="192" stroke="black" stroke-width="2" marker-end="url(#arrow)" />
<text x="493" y="167" font-family="sans-serif" font-size="12">13</text>
<line x1="498" y1="279" x2="476" y2="192" stroke="black" stroke-width="2" marker-end="url(#arrow)" />
<text x="487" y="235.5" font-family="sans-serif" font-size="12">14</text>
<line x1="510" y1="142" x2="546" y2="266" stroke="black" stroke-width="2" marker-end="url(#arrow)" />
<text x="528" y="204" font-family="sans-serif" font-size="12">15</text>
<line x1="498" y1="279" x2="546" y2="266" stroke="black" stroke-width="2" marker-end="url(#arrow)" />
<text x="522" y="272.5" font-family="sans-serif" font-size="12">16</text>
<line x1="592" y1="257" x2="619" y2="158" stroke="black" stroke-width="2" marker-end="url(#arrow)" />
<text x="605.5" y="207.5" font-family="sans-serif" font-size="12">17</text>
<circle cx="175" cy="177" r="4" style="fill:#dd0;"/>
<text x="175" y="193" style="fill:#dd0" font-family="sans-serif" font-size="16">1</text>
<circle cx="284" cy="223" r="4" style="fill:#d00;"/>
<text x="284" y="239" style="fill:#d00" font-family="sans-serif" font-size="16">A</text>
<circle cx="304" cy="142" r="4" style="fill:#d00;"/>
<text x="304" y="158" style="fill:#d00" font-family="sans-serif" font-size="16">B</text>
<circle cx="364" cy="303" r="4" style="fill:#d00;"/>
<text x="364" y="319" style="fill:#d00" font-family="sans-serif" font-size="16">C</text>
<circle cx="365" cy="186" r="4" style="fill:#d00;"/>
<text x="365" y="202" style="fill:#d00" font-family="sans-serif" font-size="16">D</text>
<circle cx="399" cy="117" r="4" style="fill:#d00;"/>
<text x="399" y="133" style="fill:#d00" font-family="sans-serif" font-size="16">E</text>
<circle cx="476" cy="192" r="4" style="fill:#d00;"/>
<text x="476" y="208" style="fill:#d00" font-family="sans-serif" font-size="16">F</text>
<circle cx="510" cy="142" r="4" style="fill:#d00;"/>
<text x="510" y="158" style="fill:#d00" font-family="sans-serif" font-size="16">H</text>
<circle cx="498" cy="279" r="4" style="fill:#d00;"/>
<text x="498" y="295" style="fill:#d00" font-family="sans-serif" font-size="16">G</text>
<circle cx="546" cy="266" r="4" style="fill:#d00;"/>
<text x="546" y="282" style="fill:#d00" font-family="sans-serif" font-size="16">I</text>
<circle cx="592" cy="257" r="4" style="fill:#d00;"/>
<text x="592" y="273" style="fill:#d00" font-family="sans-serif" font-size="16">J</text>
<circle cx="619" cy="158" r="4" style="fill:#d00;"/>
<text x="619" y="174" style="fill:#d00" font-family="sans-serif" font-size="16">K</text>
</svg>