<?xml version="1.0"?>
<svg version="1.1" xmlns="http://www.w3.org/2000/svg" xmlns:xlink="http://www.w3.org/1999/xlink"
     width="800" height="480">

<defs>
  <marker id="arrow" refX="7" refY="2" markerWidth="6" markerHeight="9" orient="auto" markerUnits="strokeWidth">
    <path d="M0,0 L0,4 L7,2 z" fill="#000" />
  </marker>
</defs>
<line x1="624" y1="98" x2="647" y2="234" stroke="black" stroke-width="2" marker-end="url(#arrow)" />
<text x="635.5" y="166" font-family="sans-serif" font-size="12">1</text>
<line x1="647" y1="234" x2="563" y2="290" stroke="black" stroke-width="2" marker-end="url(#arrow)" />
<text x="605" y="262" font-family="sans-serif" font-size="12">2</text>
<line x1="563" y1="290" x2="535" y2="207" stroke="black" stroke-width="2" marker-end="url(#arrow)" />
<text x="549" y="248.5" font-family="sans-serif" font-size="12">3</text>
<line x1="624" y1="98" x2="512" y2="124" stroke="black" stroke-width="2" marker-end="url(#arrow)" />
<text x="568" y="111" font-family="sans-serif" font-size="12">4</text>
<line x1="535" y1="207" x2="454" y2="204" stroke="black" stroke-width="2" marker-end="url(#arrow)" />
<text x="494.5" y="205.5" font-family="sans-serif" font-size="12">5</text>
<line x1="563" y1="290" x2="410" y2="312" stroke="black" stroke-width="2" marker-end="url(#arrow)" />
<text x="486.5" y="301" font-family="sans-serif" font-size="12">6</text>
<line x1="454" y1="204" x2="399" y2="124" stroke="black" stroke-width="2" marker-end="url(#arrow)" />
<text x="426.5" y="164" font-family="sans-serif" font-size="12">7</text>
<line x1="399" y1="124" x2="318" y2="173" stroke="black" stroke-width="2" marker-end="url(#arrow)" />
<text x="358.5" y="148.5" font-family="sans-serif" font-size="12">8</text>
<line x1="410" y1="312" x2="303" y2="297" stroke="black" stroke-width="2" marker-end="url(#arrow)" />
<text x="356.5" y="304.5" font-family="sans-serif" font-size="12">9</text>
<line x1="318" y1="173" x2="273" y2="97" stroke="black" stroke-width="2" marker-end="url(#arrow)" />
<text x="295.5" y="135" font-family="sans-serif" font-size="12">10</text>
<line x1="303" y1="297" x2="204" y2="246" stroke="black" stroke-width="2" marker-end="url(#arrow)" />
<text x="253.5" y="271.5" font-family="sans-serif" font-size="12">11</text>
<line x1="119" y1="180" x2="158" y2="116" stroke="black" stroke-width="2" marker-end="url(#arrow)" />
<text x="138.5" y="148" font-family="sans-serif" font-size="12">12</text>
<line x1="204" y1="246" x2="122" y2="285" stroke="black" stroke-width="2" marker-end="url(#arrow)" />
<text x="163" y="265.5" font-family="sans-serif" font-size="12">13</text>
<line x1="204" y1="246" x2="119" y2="180" stroke="black" stroke-width="2" marker-end="url(#arrow)" />
<text x="161.5" y="213" font-family="sans-serif" font-size="12">14</text>
<line x1="119" y1="180" x2="76" y2="112" stroke="black" stroke-width="2" marker-end="url(#arrow)" />
<text x="97.5" y="146" font-family="sans-serif" font-size="12">15</text>
<line x1="512" y1="124" x2="454" y2="204" stroke="black" stroke-width="2" marker-end="url(#arrow)" />
<text x="483" y="164" font-family="sans-serif" font-size="12">16</text>
<line x1="454" y1="204" x2="410" y2="312" stroke="black" stroke-width="2" marker-end="url(#arrow)" />
<text x="432" y="258" font-family="sans-serif" font-size="12">17</text>
<line x1="318" y1="173" x2="303" y2="297" stroke="black" stroke-width="2" marker-end="url(#arrow)" />
<text x="310.5" y="235" font-family="sans-serif" font-size="12">18</text>
<line x1="273" y1="97" x2="204" y2="246" stroke="black" stroke-width="2" marker-end="url(#arrow)" />
<text x="238.5" y="171.5" font-family="sans-serif" font-size="12">19</text>
<circle cx="624" cy="98" r="4" style="fill:#dd0;"/>
<text x="624" y="114" style="fill:#dd0" font-family="sans-serif" font-size="16">0</text>
<circle cx="647" cy="234" r="4" style="fill:#d00;"/>
<text x="647" y="250" style="fill:#d00" font-family="sans-serif" font-size="16">A</text>
<circle cx="563" cy="290" r="4" style="fill:#d00;"/>
<text x="563" y="306" style="fill:#d00" font-family="sans-serif" font-size="16">B</text>
<circle cx="535" cy="207" r="4" style="fill:#d00;"/>
<text x="535" y="223" style="fill:#d00" font-family="sans-serif" font-size="16">C</text>
<circle cx="512" cy="124" r="4" style="fill:#d00;"/>
<text x="512" y="140" style="fill:#d00" font-family="sans-serif" font-size="16">D</text>
<circle cx="454" cy="204" r="4" style="fill:#d00;"/>
<text x="454" y="220" style="fill:#d00" font-family="sans-serif" font-size="16">E</text>
<circle cx="410" cy="312" r="4" style="fill:#d00;"/>
<text x="410" y="328" style="fill:#d00" font-family="sans-serif" font-size="16">F</text>
<circle cx="399" cy="124" r="4" style="fill:#d00;"/>
<text x="399" y="140" style="fill:#d00" font-family="sans-serif" font-size="16">G</text>
<circle cx="318" cy="173" r="4" style="fill:#d00;"/>
<text x="318" y="189" style="fill:#d00" font-family="sans-serif" font-size="16">H</text>
<circle cx="303" cy="297" r="4" style="fill:#d00;"/>
<text x="303" y="313" style="fill:#d00" font-family="sans-serif" font-size="16">I</text>
<circle cx="273" cy="97" r="4" style="fill:#d00;"/>
<text x="273" y="113" style="fill:#d00" font-family="sans-serif" font-size="16">J</text>
<circle cx="204" cy="246" r="4" style="fill:#d00;"/>
<text x="204" y="262" style="fill:#d00" font-family="sans-serif" font-size="16">K</text>
<circle cx="158" cy="116" r="4" style="fill:#d00;"/>
<text x="158" y="132" style="fill:#d00" font-family="sans-serif" font-size="16">L</text>
<circle cx="122" cy="285" r="4" style="fill:#d00;"/>
<text x="122" y="301" style="fill:#d00" font-family="sans-serif" font-size="16">M</text>
<circle cx="119" cy="180" r="4" style="fill:#d00;"/>
<text x="119" y="196" style="fill:#d00" font-family="sans-serif" font-size="16">N</text>
<circle cx="76" cy="112" r="4" style="fill:#d00;"/>
<text x="76" y="128" style="fill:#d00" font-family="sans-serif" font-size="16">O</text>
</svg>