<?xml version="1.0"?>
<svg version="1.1" xmlns="http://www.w3.org/2000/svg" xmlns:xlink="http://www.w3.org/1999/xlink"
     width="800" height="480">

<defs>
  <marker id="arrow" refX="7" refY="2" markerWidth="6" markerHeight="9" orient="auto" markerUnits="strokeWidth">
    <path d="M0,0 L0,4 L7,2 z" fill="#000" />
  </marker>
</defs>
<line x1="63" y1="186" x2="142" y2="99" stroke="black" stroke-width="2" marker-end="url(#arrow)" />
<text x="102.5" y="142.5" font-family="sans-serif" font-size="12">1</text>
<line x1="142" y1="99" x2="193" y2="174" stroke="black" stroke-width="2" marker-end="url(#arrow)" />
<text x="167.5" y="136.5" font-family="sans-serif" font-size="12">2</text>
<line x1="111" y1="270" x2="223" y2="320" stroke="black" stroke-width="2" marker-end="url(#arrow)" />
<text x="167" y="295" font-family="sans-serif" font-size="12">3</text>
<line x1="223" y1="320" x2="254" y2="254" stroke="black" stroke-width="2" marker-end="url(#arrow)" />
<text x="238.5" y="287" font-family="sans-serif" font-size="12">4</text>
<line x1="142" y1="99" x2="255" y2="99" stroke="black" stroke-width="2" marker-end="url(#arrow)" />
<text x="198.5" y="99" font-family="sans-serif" font-size="12">5</text>
<line x1="193" y1="174" x2="278" y2="180" stroke="black" stroke-width="2" marker-end="url(#arrow)" />
<text x="235.5" y="177" font-family="sans-serif" font-size="12">6</text>
<line x1="223" y1="320" x2="330" y2="320" stroke="black" stroke-width="2" marker-end="url(#arrow)" />
<text x="276.5" y="320" font-family="sans-serif" font-size="12">7</text>
<line x1="278" y1="180" x2="349" y2="234" stroke="black" stroke-width="2" marker-end="url(#arrow)" />
<text x="313.5" y="207" font-family="sans-serif" font-size="12">8</text>
<line x1="255" y1="99" x2="342" y2="100" stroke="black" stroke-width="2" marker-end="url(#arrow)" />
<text x="298.5" y="99.5" font-family="sans-serif" font-size="12">9</text>
<line x1="349" y1="234" x2="398" y2="171" stroke="black" stroke-width="2" marker-end="url(#arrow)" />
<text x="373.5" y="202.5" font-family="sans-serif" font-size="12">10</text>
<line x1="330" y1="320" x2="421" y2="319" stroke="black" stroke-width="2" marker-end="url(#arrow)" />
<text x="375.5" y="319.5" font-family="sans-serif" font-size="12">11</text>
<line x1="349" y1="234" x2="433" y2="245" stroke="black" stroke-width="2" marker-end="url(#arrow)" />
<text x="391" y="239.5" font-family="sans-serif" font-size="12">12</text>
<line x1="398" y1="171" x2="498" y2="182" stroke="black" stroke-width="2" marker-end="url(#arrow)" />
<text x="448" y="176.5" font-family="sans-serif" font-size="12">13</text>
<line x1="421" y1="319" x2="501" y2="304" stroke="black" stroke-width="2" marker-end="url(#arrow)" />
<text x="461" y="311.5" font-family="sans-serif" font-size="12">14</text>
<line x1="498" y1="182" x2="546" y2="257" stroke="black" stroke-width="2" marker-end="url(#arrow)" />
<text x="522" y="219.5" font-family="sans-serif" font-size="12">15</text>
<line x1="255" y1="99" x2="278" y2="180" stroke="black" stroke-width="2" marker-end="url(#arrow)" />
<text x="266.5" y="139.5" font-family="sans-serif" font-size="12">16</text>
<line x1="254" y1="254" x2="330" y2="320" stroke="black" stroke-width="2" marker-end="url(#arrow)" />
<text x="292" y="287" font-family="sans-serif" font-size="12">17</text>
<line x1="342" y1="100" x2="398" y2="171" stroke="black" stroke-width="2" marker-end="url(#arrow)" />
<text x="370" y="135.5" font-family="sans-serif" font-size="12">18</text>
<line x1="421" y1="319" x2="433" y2="245" stroke="black" stroke-width="2" marker-end="url(#arrow)" />
<text x="427" y="282" font-family="sans-serif" font-size="12">19</text>
<line x1="433" y1="245" x2="498" y2="182" stroke="black" stroke-width="2" marker-end="url(#arrow)" />
<text x="465.5" y="213.5" font-family="sans-serif" font-size="12">20</text>
<line x1="501" y1="304" x2="546" y2="257" stroke="black" stroke-width="2" marker-end="url(#arrow)" />
<text x="523.5" y="280.5" font-family="sans-serif" font-size="12">21</text>
<circle cx="142" cy="99" r="4" style="fill:#d00;"/>
<text x="142" y="115" style="fill:#d00" font-family="sans-serif" font-size="16">A</text>
<circle cx="193" cy="174" r="4" style="fill:#d00;"/>
<text x="193" y="190" style="fill:#d00" font-family="sans-serif" font-size="16">B</text>
<circle cx="255" cy="99" r="4" style="fill:#d00;"/>
<text x="255" y="115" style="fill:#d00" font-family="sans-serif" font-size="16">E</text>
<circle cx="278" cy="180" r="4" style="fill:#d00;"/>
<text x="278" y="196" style="fill:#d00" font-family="sans-serif" font-size="16">F</text>
<circle cx="342" cy="100" r="4" style="fill:#d00;"/>
<text x="342" y="116" style="fill:#d00" font-family="sans-serif" font-size="16">I</text>
<circle cx="349" cy="234" r="4" style="fill:#d00;"/>
<text x="349" y="250" style="fill:#d00" font-family="sans-serif" font-size="16">H</text>
<circle cx="398" cy="171" r="4" style="fill:#d00;"/>
<text x="398" y="187" style="fill:#d00" font-family="sans-serif" font-size="16">J</text>
<circle cx="223" cy="320" r="4" style="fill:#d00;"/>
<text x="223" y="336" style="fill:#d00" font-family="sans-serif" font-size="16">C</text>
<circle cx="111" cy="270" r="4" style="fill:#dd0;"/>
<text x="111" y="286" style="fill:#dd0" font-family="sans-serif" font-size="16">2</text>
<circle cx="254" cy="254" r="4" style="fill:#d00;"/>
<text x="254" y="270" style="fill:#d00" font-family="sans-serif" font-size="16">D</text>
<circle cx="330" cy="320" r="4" style="fill:#d00;"/>
<text x="330" y="336" style="fill:#d00" font-family="sans-serif" font-size="16">G</text>
<circle cx="433" cy="245" r="4" style="fill:#d00;"/>
<text x="433" y="261" style="fill:#d00" font-family="sans-serif" font-size="16">L</text>
<circle cx="421" cy="319" r="4" style="fill:#d00;"/>
<text x="421" y="335" style="fill:#d00" font-family="sans-serif" font-size="16">K</text>
<circle cx="498" cy="182" r="4" style="fill:#d00;"/>
<text x="498" y="198" style="fill:#d00" font-family="sans-serif" font-size="16">M</text>
<circle cx="546" cy="257" r="4" style="fill:#d00;"/>
<text x="546" y="273" style="fill:#d00" font-family="sans-serif" font-size="16">O</text>
<circle cx="501" cy="304" r="4" style="fill:#d00;"/>
<text x="501" y="320" style="fill:#d00" font-family="sans-serif" font-size="16">N</text>
<circle cx="63" cy="186" r="4" style="fill:#dd0;"/>
<text x="63" y="202" style="fill:#dd0" font-family="sans-serif" font-size="16">1</text>
</svg>