<?xml version="1.0"?>
<svg version="1.1" xmlns="http://www.w3.org/2000/svg"
    width="800" height="480">
  <defs>
  <marker id="arrow" refX="7" refY="2" markerWidth="6" markerHeight="9" orient="auto" markerUnits="strokeWidth">
    <path d="M0,0 L0,4 L7,2 z" fill="#000" />
  </marker>
  </defs>
  <line x1="196" y1="171" x2="165" y2="258" stroke="black" stroke-width="2" marker-end="url(#arrow)" />
<text x="180.5" y="214.5" font-family="sans-serif" font-size="16">1</text>
<line x1="88" y1="143" x2="196" y2="171" stroke="black" stroke-width="2" marker-end="url(#arrow)" />
<text x="142" y="157" font-family="sans-serif" font-size="16">2</text>
<line x1="165" y1="258" x2="264" y2="301" stroke="black" stroke-width="2" marker-end="url(#arrow)" />
<text x="214.5" y="279.5" font-family="sans-serif" font-size="16">3</text>
<line x1="196" y1="171" x2="294" y2="104" stroke="black" stroke-width="2" marker-end="url(#arrow)" />
<text x="245" y="137.5" font-family="sans-serif" font-size="16">4</text>
<line x1="264" y1="301" x2="352" y2="217" stroke="black" stroke-width="2" marker-end="url(#arrow)" />
<text x="308" y="259" font-family="sans-serif" font-size="16">5</text>
<line x1="352" y1="217" x2="436" y2="133" stroke="black" stroke-width="2" marker-end="url(#arrow)" />
<text x="394" y="175" font-family="sans-serif" font-size="16">6</text>
<line x1="352" y1="217" x2="462" y2="235" stroke="black" stroke-width="2" marker-end="url(#arrow)" />
<text x="407" y="226" font-family="sans-serif" font-size="16">7</text>
<line x1="462" y1="235" x2="521" y2="303" stroke="black" stroke-width="2" marker-end="url(#arrow)" />
<text x="491.5" y="269" font-family="sans-serif" font-size="16">8</text>
<line x1="436" y1="133" x2="536" y2="103" stroke="black" stroke-width="2" marker-end="url(#arrow)" />
<text x="486" y="118" font-family="sans-serif" font-size="16">9</text>
<line x1="521" y1="303" x2="616" y2="280" stroke="black" stroke-width="2" marker-end="url(#arrow)" />
<text x="568.5" y="291.5" font-family="sans-serif" font-size="16">10</text>
<line x1="462" y1="235" x2="417" y2="319" stroke="black" stroke-width="2" marker-end="url(#arrow)" />
<text x="439.5" y="277" font-family="sans-serif" font-size="16">11</text>
<line x1="294" y1="104" x2="352" y2="217" stroke="black" stroke-width="2" marker-end="url(#arrow)" />
<text x="323" y="160.5" font-family="sans-serif" font-size="16">12</text>
<line x1="536" y1="103" x2="462" y2="235" stroke="black" stroke-width="2" marker-end="url(#arrow)" />
<text x="499" y="169" font-family="sans-serif" font-size="16">13</text>
<circle cx="88" cy="143" r="4" style="fill:#dd0;"/>
<text x="88" y="159" style="fill:#dd0" font-family="sans-serif" font-size="16">0</text>
<circle cx="196" cy="171" r="4" style="fill:#d00;"/>
<text x="196" y="187" style="fill:#d00" font-family="sans-serif" font-size="16">B</text>
<circle cx="165" cy="258" r="4" style="fill:#d00;"/>
<text x="165" y="274" style="fill:#d00" font-family="sans-serif" font-size="16">A</text>
<circle cx="294" cy="104" r="4" style="fill:#d00;"/>
<text x="294" y="120" style="fill:#d00" font-family="sans-serif" font-size="16">D</text>
<circle cx="264" cy="301" r="4" style="fill:#d00;"/>
<text x="264" y="317" style="fill:#d00" font-family="sans-serif" font-size="16">C</text>
<circle cx="352" cy="217" r="4" style="fill:#d00;"/>
<text x="352" y="233" style="fill:#d00" font-family="sans-serif" font-size="16">E</text>
<circle cx="436" cy="133" r="4" style="fill:#d00;"/>
<text x="436" y="149" style="fill:#d00" font-family="sans-serif" font-size="16">F</text>
<circle cx="462" cy="235" r="4" style="fill:#d00;"/>
<text x="462" y="251" style="fill:#d00" font-family="sans-serif" font-size="16">G</text>
<circle cx="536" cy="103" r="4" style="fill:#d00;"/>
<text x="536" y="119" style="fill:#d00" font-family="sans-serif" font-size="16">I</text>
<circle cx="417" cy="319" r="4" style="fill:#d00;"/>
<text x="417" y="335" style="fill:#d00" font-family="sans-serif" font-size="16">K</text>
<circle cx="521" cy="303" r="4" style="fill:#d00;"/>
<text x="521" y="319" style="fill:#d00" font-family="sans-serif" font-size="16">H</text>
<circle cx="616" cy="280" r="4" style="fill:#d00;"/>
<text x="616" y="296" style="fill:#d00" font-family="sans-serif" font-size="16">J</text>
</svg>
