<?xml version="1.0"?>
<svg version="1.1" xmlns="http://www.w3.org/2000/svg"
    width="800" height="480">
  <defs>
  <marker id="arrow" refX="7" refY="2" markerWidth="6" markerHeight="9" orient="auto" markerUnits="strokeWidth">
    <path d="M0,0 L0,4 L7,2 z" fill="#000" />
  </marker>
  </defs>
  <line x1="105" y1="140" x2="215.95" y2="186" stroke="black" stroke-width="2" marker-end="url(#arrow)" />
<text x="160.475" y="163" font-family="sans-serif" font-size="16">1</text>
<line x1="215.95" y1="186" x2="266" y2="130" stroke="black" stroke-width="2" marker-end="url(#arrow)" />
<text x="240.975" y="158" font-family="sans-serif" font-size="16">2</text>
<line x1="215.95" y1="186" x2="287" y2="253" stroke="black" stroke-width="2" marker-end="url(#arrow)" />
<text x="251.475" y="219.5" font-family="sans-serif" font-size="16">3</text>
<line x1="266" y1="130" x2="338" y2="93" stroke="black" stroke-width="2" marker-end="url(#arrow)" />
<text x="302" y="111.5" font-family="sans-serif" font-size="16">4</text>
<line x1="287" y1="253" x2="368" y2="302" stroke="black" stroke-width="2" marker-end="url(#arrow)" />
<text x="327.5" y="277.5" font-family="sans-serif" font-size="16">5</text>
<line x1="338" y1="93" x2="421" y2="193" stroke="black" stroke-width="2" marker-end="url(#arrow)" />
<text x="379.5" y="143" font-family="sans-serif" font-size="16">6</text>
<line x1="287" y1="253" x2="385" y2="230" stroke="black" stroke-width="2" marker-end="url(#arrow)" />
<text x="336" y="241.5" font-family="sans-serif" font-size="16">7</text>
<line x1="338" y1="93" x2="428" y2="85" stroke="black" stroke-width="2" marker-end="url(#arrow)" />
<text x="383" y="89" font-family="sans-serif" font-size="16">8</text>
<line x1="368" y1="302" x2="470" y2="255" stroke="black" stroke-width="2" marker-end="url(#arrow)" />
<text x="419" y="278.5" font-family="sans-serif" font-size="16">9</text>
<line x1="421" y1="193" x2="496" y2="203" stroke="black" stroke-width="2" marker-end="url(#arrow)" />
<text x="458.5" y="198" font-family="sans-serif" font-size="16">10</text>
<line x1="428" y1="85" x2="534" y2="114" stroke="black" stroke-width="2" marker-end="url(#arrow)" />
<text x="481" y="99.5" font-family="sans-serif" font-size="16">11</text>
<line x1="470" y1="255" x2="553" y2="266" stroke="black" stroke-width="2" marker-end="url(#arrow)" />
<text x="511.5" y="260.5" font-family="sans-serif" font-size="16">12</text>
<line x1="553" y1="266" x2="624" y2="291" stroke="black" stroke-width="2" marker-end="url(#arrow)" />
<text x="588.5" y="278.5" font-family="sans-serif" font-size="16">13</text>
<line x1="287" y1="253" x2="254" y2="322" stroke="black" stroke-width="2" marker-end="url(#arrow)" />
<text x="270.5" y="287.5" font-family="sans-serif" font-size="16">14</text>
<line x1="534" y1="114" x2="608" y2="139" stroke="black" stroke-width="2" marker-end="url(#arrow)" />
<text x="571" y="126.5" font-family="sans-serif" font-size="16">15</text>
<line x1="385" y1="230" x2="470" y2="255" stroke="black" stroke-width="2" marker-end="url(#arrow)" />
<text x="427.5" y="242.5" font-family="sans-serif" font-size="16">16</text>
<line x1="534" y1="114" x2="496" y2="203" stroke="black" stroke-width="2" marker-end="url(#arrow)" />
<text x="515" y="158.5" font-family="sans-serif" font-size="16">17</text>
<line x1="496" y1="203" x2="553" y2="266" stroke="black" stroke-width="2" marker-end="url(#arrow)" />
<text x="524.5" y="234.5" font-family="sans-serif" font-size="16">18</text>
<circle cx="105" cy="140" r="4" style="fill:#dd0;"/>
<text x="105" y="156" style="fill:#dd0" font-family="sans-serif" font-size="16">1</text>
<circle cx="215.95" cy="186" r="4" style="fill:#d00;"/>
<text x="215.95" y="202" style="fill:#d00" font-family="sans-serif" font-size="16">A</text>
<circle cx="266" cy="130" r="4" style="fill:#d00;"/>
<text x="266" y="146" style="fill:#d00" font-family="sans-serif" font-size="16">B</text>
<circle cx="287" cy="253" r="4" style="fill:#d00;"/>
<text x="287" y="269" style="fill:#d00" font-family="sans-serif" font-size="16">C</text>
<circle cx="338" cy="93" r="4" style="fill:#d00;"/>
<text x="338" y="109" style="fill:#d00" font-family="sans-serif" font-size="16">D</text>
<circle cx="368" cy="302" r="4" style="fill:#d00;"/>
<text x="368" y="318" style="fill:#d00" font-family="sans-serif" font-size="16">E</text>
<circle cx="421" cy="193" r="4" style="fill:#d00;"/>
<text x="421" y="209" style="fill:#d00" font-family="sans-serif" font-size="16">F</text>
<circle cx="385" cy="230" r="4" style="fill:#d00;"/>
<text x="385" y="246" style="fill:#d00" font-family="sans-serif" font-size="16">G</text>
<circle cx="428" cy="85" r="4" style="fill:#d00;"/>
<text x="428" y="101" style="fill:#d00" font-family="sans-serif" font-size="16">H</text>
<circle cx="470" cy="255" r="4" style="fill:#d00;"/>
<text x="470" y="271" style="fill:#d00" font-family="sans-serif" font-size="16">I</text>
<circle cx="496" cy="203" r="4" style="fill:#d00;"/>
<text x="496" y="219" style="fill:#d00" font-family="sans-serif" font-size="16">J</text>
<circle cx="534" cy="114" r="4" style="fill:#d00;"/>
<text x="534" y="130" style="fill:#d00" font-family="sans-serif" font-size="16">K</text>
<circle cx="553" cy="266" r="4" style="fill:#d00;"/>
<text x="553" y="282" style="fill:#d00" font-family="sans-serif" font-size="16">L</text>
<circle cx="624" cy="291" r="4" style="fill:#d00;"/>
<text x="624" y="307" style="fill:#d00" font-family="sans-serif" font-size="16">M</text>
<circle cx="254" cy="322" r="4" style="fill:#d00;"/>
<text x="254" y="338" style="fill:#d00" font-family="sans-serif" font-size="16">N</text>
<circle cx="608" cy="139" r="4" style="fill:#d00;"/>
<text x="608" y="155" style="fill:#d00" font-family="sans-serif" font-size="16">O</text>
</svg>
