<?xml version="1.0"?>
<svg version="1.1" xmlns="http://www.w3.org/2000/svg" xmlns:xlink="http://www.w3.org/1999/xlink"
     width="800" height="480">

<defs>
  <marker id="arrow" refX="7" refY="2" markerWidth="6" markerHeight="9" orient="auto" markerUnits="strokeWidth">
    <path d="M0,0 L0,4 L7,2 z" fill="#000" />
  </marker>
</defs>
<line x1="613" y1="137" x2="678" y2="202" stroke="black" stroke-width="2" marker-end="url(#arrow)" />
<text x="645.5" y="169.5" font-family="sans-serif" font-size="12">1</text>
<line x1="678" y1="202" x2="635" y2="264" stroke="black" stroke-width="2" marker-end="url(#arrow)" />
<text x="656.5" y="233" font-family="sans-serif" font-size="12">2</text>
<line x1="549" y1="79" x2="613" y2="137" stroke="black" stroke-width="2" marker-end="url(#arrow)" />
<text x="581" y="108" font-family="sans-serif" font-size="12">3</text>
<line x1="613" y1="137" x2="587" y2="219" stroke="black" stroke-width="2" marker-end="url(#arrow)" />
<text x="600" y="178" font-family="sans-serif" font-size="12">4</text>
<line x1="635" y1="264" x2="565" y2="299.5" stroke="black" stroke-width="2" marker-end="url(#arrow)" />
<text x="600" y="281.75" font-family="sans-serif" font-size="12">5</text>
<line x1="549" y1="79" x2="520" y2="162" stroke="black" stroke-width="2" marker-end="url(#arrow)" />
<text x="534.5" y="120.5" font-family="sans-serif" font-size="12">6</text>
<line x1="565" y1="299.5" x2="495" y2="232" stroke="black" stroke-width="2" marker-end="url(#arrow)" />
<text x="530" y="265.75" font-family="sans-serif" font-size="12">7</text>
<line x1="495" y1="232" x2="419" y2="166.5" stroke="black" stroke-width="2" marker-end="url(#arrow)" />
<text x="457" y="199.25" font-family="sans-serif" font-size="12">8</text>
<line x1="419" y1="166.5" x2="340" y2="194" stroke="black" stroke-width="2" marker-end="url(#arrow)" />
<text x="379.5" y="180.25" font-family="sans-serif" font-size="12">9</text>
<line x1="340" y1="194" x2="313" y2="281.5" stroke="black" stroke-width="2" marker-end="url(#arrow)" />
<text x="326.5" y="237.75" font-family="sans-serif" font-size="12">10</text>
<line x1="313" y1="281.5" x2="403" y2="332.5" stroke="black" stroke-width="2" marker-end="url(#arrow)" />
<text x="358" y="307" font-family="sans-serif" font-size="12">11</text>
<line x1="340" y1="194" x2="276.95" y2="123" stroke="black" stroke-width="2" marker-end="url(#arrow)" />
<text x="308.475" y="158.5" font-family="sans-serif" font-size="12">12</text>
<line x1="313" y1="281.5" x2="401" y2="250.5" stroke="black" stroke-width="2" marker-end="url(#arrow)" />
<text x="357" y="266" font-family="sans-serif" font-size="12">13</text>
<line x1="587" y1="219" x2="565" y2="299.5" stroke="black" stroke-width="2" marker-end="url(#arrow)" />
<text x="576" y="259.25" font-family="sans-serif" font-size="12">14</text>
<line x1="520" y1="162" x2="495" y2="232" stroke="black" stroke-width="2" marker-end="url(#arrow)" />
<text x="507.5" y="197" font-family="sans-serif" font-size="12">15</text>
<circle cx="549" cy="79" r="4" style="fill:#dd0;"/>
<text x="549" y="95" style="fill:#dd0" font-family="sans-serif" font-size="16">1</text>
<circle cx="678" cy="202" r="4" style="fill:#d00;"/>
<text x="678" y="218" style="fill:#d00" font-family="sans-serif" font-size="16">A</text>
<circle cx="635" cy="264" r="4" style="fill:#d00;"/>
<text x="635" y="280" style="fill:#d00" font-family="sans-serif" font-size="16">B</text>
<circle cx="613" cy="137" r="4" style="fill:#d00;"/>
<text x="613" y="153" style="fill:#d00" font-family="sans-serif" font-size="16">C</text>
<circle cx="587" cy="219" r="4" style="fill:#d00;"/>
<text x="587" y="235" style="fill:#d00" font-family="sans-serif" font-size="16">D</text>
<circle cx="565" cy="299.5" r="4" style="fill:#d00;"/>
<text x="565" y="315.5" style="fill:#d00" font-family="sans-serif" font-size="16">E</text>
<circle cx="520" cy="162" r="4" style="fill:#d00;"/>
<text x="520" y="178" style="fill:#d00" font-family="sans-serif" font-size="16">F</text>
<circle cx="495" cy="232" r="4" style="fill:#d00;"/>
<text x="495" y="248" style="fill:#d00" font-family="sans-serif" font-size="16">G</text>
<circle cx="419" cy="166.5" r="4" style="fill:#d00;"/>
<text x="419" y="182.5" style="fill:#d00" font-family="sans-serif" font-size="16">H</text>
<circle cx="340" cy="194" r="4" style="fill:#d00;"/>
<text x="340" y="210" style="fill:#d00" font-family="sans-serif" font-size="16">I</text>
<circle cx="313" cy="281.5" r="4" style="fill:#d00;"/>
<text x="313" y="297.5" style="fill:#d00" font-family="sans-serif" font-size="16">J</text>
<circle cx="403" cy="332.5" r="4" style="fill:#d00;"/>
<text x="403" y="348.5" style="fill:#d00" font-family="sans-serif" font-size="16">K</text>
<circle cx="276.95" cy="123" r="4" style="fill:#d00;"/>
<text x="276.95" y="139" style="fill:#d00" font-family="sans-serif" font-size="16">L</text>
<circle cx="401" cy="250.5" r="4" style="fill:#d00;"/>
<text x="401" y="266.5" style="fill:#d00" font-family="sans-serif" font-size="16">M</text>
</svg>