<?xml version="1.0"?>
<svg version="1.1" xmlns="http://www.w3.org/2000/svg"
    width="800" height="480">
  <defs>
  <marker id="arrow" refX="7" refY="2" markerWidth="6" markerHeight="9" orient="auto" markerUnits="strokeWidth">
    <path d="M0,0 L0,4 L7,2 z" fill="#000" />
  </marker>
  </defs>
  <line x1="691" y1="239.5" x2="623" y2="276" stroke="black" stroke-width="2" marker-end="url(#arrow)" />
<text x="657" y="257.75" font-family="sans-serif" font-size="16">1</text>
<line x1="659" y1="114" x2="600.95" y2="160" stroke="black" stroke-width="2" marker-end="url(#arrow)" />
<text x="629.975" y="137" font-family="sans-serif" font-size="16">2</text>
<line x1="623" y1="276" x2="575" y2="319" stroke="black" stroke-width="2" marker-end="url(#arrow)" />
<text x="599" y="297.5" font-family="sans-serif" font-size="16">3</text>
<line x1="600.95" y1="160" x2="563" y2="227" stroke="black" stroke-width="2" marker-end="url(#arrow)" />
<text x="581.975" y="193.5" font-family="sans-serif" font-size="16">4</text>
<line x1="600.95" y1="160" x2="527" y2="158" stroke="black" stroke-width="2" marker-end="url(#arrow)" />
<text x="563.975" y="159" font-family="sans-serif" font-size="16">5</text>
<line x1="575" y1="319" x2="526" y2="277" stroke="black" stroke-width="2" marker-end="url(#arrow)" />
<text x="550.5" y="298" font-family="sans-serif" font-size="16">6</text>
<line x1="575" y1="319" x2="513" y2="336" stroke="black" stroke-width="2" marker-end="url(#arrow)" />
<text x="544" y="327.5" font-family="sans-serif" font-size="16">7</text>
<line x1="527" y1="158" x2="484" y2="225" stroke="black" stroke-width="2" marker-end="url(#arrow)" />
<text x="505.5" y="191.5" font-family="sans-serif" font-size="16">8</text>
<line x1="526" y1="277" x2="438" y2="312" stroke="black" stroke-width="2" marker-end="url(#arrow)" />
<text x="482" y="294.5" font-family="sans-serif" font-size="16">9</text>
<line x1="438" y1="312" x2="393" y2="272" stroke="black" stroke-width="2" marker-end="url(#arrow)" />
<text x="415.5" y="292" font-family="sans-serif" font-size="16">10</text>
<line x1="393" y1="272" x2="350" y2="173" stroke="black" stroke-width="2" marker-end="url(#arrow)" />
<text x="371.5" y="222.5" font-family="sans-serif" font-size="16">11</text>
<line x1="350" y1="173" x2="276" y2="90" stroke="black" stroke-width="2" marker-end="url(#arrow)" />
<text x="313" y="131.5" font-family="sans-serif" font-size="16">12</text>
<line x1="276" y1="90" x2="209" y2="188" stroke="black" stroke-width="2" marker-end="url(#arrow)" />
<text x="242.5" y="139" font-family="sans-serif" font-size="16">13</text>
<line x1="276" y1="90" x2="195" y2="106" stroke="black" stroke-width="2" marker-end="url(#arrow)" />
<text x="235.5" y="98" font-family="sans-serif" font-size="16">14</text>
<line x1="195" y1="106" x2="146" y2="152" stroke="black" stroke-width="2" marker-end="url(#arrow)" />
<text x="170.5" y="129" font-family="sans-serif" font-size="16">15</text>
<line x1="209" y1="188" x2="214" y2="297" stroke="black" stroke-width="2" marker-end="url(#arrow)" />
<text x="211.5" y="242.5" font-family="sans-serif" font-size="16">16</text>
<line x1="209" y1="188" x2="118" y2="238" stroke="black" stroke-width="2" marker-end="url(#arrow)" />
<text x="163.5" y="213" font-family="sans-serif" font-size="16">17</text>
<line x1="563" y1="227" x2="526" y2="277" stroke="black" stroke-width="2" marker-end="url(#arrow)" />
<text x="544.5" y="252" font-family="sans-serif" font-size="16">18</text>
<line x1="513" y1="336" x2="438" y2="312" stroke="black" stroke-width="2" marker-end="url(#arrow)" />
<text x="475.5" y="324" font-family="sans-serif" font-size="16">19</text>
<line x1="484" y1="225" x2="438" y2="312" stroke="black" stroke-width="2" marker-end="url(#arrow)" />
<text x="461" y="268.5" font-family="sans-serif" font-size="16">20</text>
<line x1="195" y1="106" x2="209" y2="188" stroke="black" stroke-width="2" marker-end="url(#arrow)" />
<text x="202" y="147" font-family="sans-serif" font-size="16">21</text>
<line x1="146" y1="152" x2="209" y2="188" stroke="black" stroke-width="2" marker-end="url(#arrow)" />
<text x="177.5" y="170" font-family="sans-serif" font-size="16">22</text>
<circle cx="659" cy="114" r="4" style="fill:#dd0;"/>
<text x="659" y="126" style="fill:#dd0" font-family="sans-serif" font-size="12">13180_2280_0</text>
<circle cx="691" cy="239.5" r="4" style="fill:#dd0;"/>
<text x="691" y="251.5" style="fill:#dd0" font-family="sans-serif" font-size="12">13820_4790_23</text>
<circle cx="623" cy="276" r="4" style="fill:#d00;"/>
<text x="623" y="292" style="fill:#d00" font-family="sans-serif" font-size="16">A</text>
<circle cx="600.95" cy="160" r="4" style="fill:#d00;"/>
<text x="600.95" y="176" style="fill:#d00" font-family="sans-serif" font-size="16">B</text>
<circle cx="575" cy="319" r="4" style="fill:#d00;"/>
<text x="575" y="335" style="fill:#d00" font-family="sans-serif" font-size="16">C</text>
<circle cx="563" cy="227" r="4" style="fill:#d00;"/>
<text x="563" y="243" style="fill:#d00" font-family="sans-serif" font-size="16">D</text>
<circle cx="527" cy="158" r="4" style="fill:#d00;"/>
<text x="527" y="174" style="fill:#d00" font-family="sans-serif" font-size="16">E</text>
<circle cx="526" cy="277" r="4" style="fill:#d00;"/>
<text x="526" y="293" style="fill:#d00" font-family="sans-serif" font-size="16">F</text>
<circle cx="484" cy="225" r="4" style="fill:#d00;"/>
<text x="484" y="241" style="fill:#d00" font-family="sans-serif" font-size="16">H</text>
<circle cx="513" cy="336" r="4" style="fill:#d00;"/>
<text x="513" y="352" style="fill:#d00" font-family="sans-serif" font-size="16">G</text>
<circle cx="438" cy="312" r="4" style="fill:#d00;"/>
<text x="438" y="328" style="fill:#d00" font-family="sans-serif" font-size="16">I</text>
<circle cx="393" cy="272" r="4" style="fill:#d00;"/>
<text x="393" y="288" style="fill:#d00" font-family="sans-serif" font-size="16">J</text>
<circle cx="350" cy="173" r="4" style="fill:#d00;"/>
<text x="350" y="189" style="fill:#d00" font-family="sans-serif" font-size="16">K</text>
<circle cx="276" cy="90" r="4" style="fill:#d00;"/>
<text x="276" y="106" style="fill:#d00" font-family="sans-serif" font-size="16">L</text>
<circle cx="209" cy="188" r="4" style="fill:#d00;"/>
<text x="209" y="204" style="fill:#d00" font-family="sans-serif" font-size="16">M</text>
<circle cx="195" cy="106" r="4" style="fill:#d00;"/>
<text x="195" y="122" style="fill:#d00" font-family="sans-serif" font-size="16">N</text>
<circle cx="146" cy="152" r="4" style="fill:#d00;"/>
<text x="146" y="168" style="fill:#d00" font-family="sans-serif" font-size="16">O</text>
<circle cx="214" cy="297" r="4" style="fill:#d00;"/>
<text x="214" y="313" style="fill:#d00" font-family="sans-serif" font-size="16">P</text>
<circle cx="118" cy="238" r="4" style="fill:#d00;"/>
<text x="118" y="254" style="fill:#d00" font-family="sans-serif" font-size="16">Q</text>
</svg>
