<?xml version="1.0"?>
<svg version="1.1" xmlns="http://www.w3.org/2000/svg" xmlns:xlink="http://www.w3.org/1999/xlink"
     width="800" height="480">

<defs>
  <marker id="arrow" refX="7" refY="2" markerWidth="6" markerHeight="9" orient="auto" markerUnits="strokeWidth">
    <path d="M0,0 L0,4 L7,2 z" fill="#000" />
  </marker>
</defs>
<line x1="73" y1="242" x2="167" y2="244" stroke="black" stroke-width="2" marker-end="url(#arrow)" />
<text x="120" y="243" font-family="sans-serif" font-size="12">1</text>
<line x1="167" y1="244" x2="260" y2="243" stroke="black" stroke-width="2" marker-end="url(#arrow)" />
<text x="213.5" y="243.5" font-family="sans-serif" font-size="12">2</text>
<line x1="177" y1="324" x2="296" y2="293" stroke="black" stroke-width="2" marker-end="url(#arrow)" />
<text x="236.5" y="308.5" font-family="sans-serif" font-size="12">3</text>
<line x1="215" y1="179" x2="314" y2="180" stroke="black" stroke-width="2" marker-end="url(#arrow)" />
<text x="264.5" y="179.5" font-family="sans-serif" font-size="12">4</text>
<line x1="314" y1="180" x2="367" y2="106" stroke="black" stroke-width="2" marker-end="url(#arrow)" />
<text x="340.5" y="143" font-family="sans-serif" font-size="12">5</text>
<line x1="260" y1="243" x2="377" y2="243" stroke="black" stroke-width="2" marker-end="url(#arrow)" />
<text x="318.5" y="243" font-family="sans-serif" font-size="12">6</text>
<line x1="296" y1="293" x2="407" y2="319" stroke="black" stroke-width="2" marker-end="url(#arrow)" />
<text x="351.5" y="306" font-family="sans-serif" font-size="12">7</text>
<line x1="367" y1="106" x2="452" y2="91" stroke="black" stroke-width="2" marker-end="url(#arrow)" />
<text x="409.5" y="98.5" font-family="sans-serif" font-size="12">8</text>
<line x1="377" y1="243" x2="490" y2="192" stroke="black" stroke-width="2" marker-end="url(#arrow)" />
<text x="433.5" y="217.5" font-family="sans-serif" font-size="12">9</text>
<line x1="407" y1="319" x2="510" y2="302" stroke="black" stroke-width="2" marker-end="url(#arrow)" />
<text x="458.5" y="310.5" font-family="sans-serif" font-size="12">10</text>
<line x1="490" y1="192" x2="551" y2="144" stroke="black" stroke-width="2" marker-end="url(#arrow)" />
<text x="520.5" y="168" font-family="sans-serif" font-size="12">11</text>
<line x1="490" y1="192" x2="566" y2="257" stroke="black" stroke-width="2" marker-end="url(#arrow)" />
<text x="528" y="224.5" font-family="sans-serif" font-size="12">12</text>
<line x1="551" y1="144" x2="610" y2="88" stroke="black" stroke-width="2" marker-end="url(#arrow)" />
<text x="580.5" y="116" font-family="sans-serif" font-size="12">13</text>
<line x1="566" y1="257" x2="639" y2="317" stroke="black" stroke-width="2" marker-end="url(#arrow)" />
<text x="602.5" y="287" font-family="sans-serif" font-size="12">14</text>
<line x1="551" y1="144" x2="642" y2="209" stroke="black" stroke-width="2" marker-end="url(#arrow)" />
<text x="596.5" y="176.5" font-family="sans-serif" font-size="12">15</text>
<line x1="296" y1="293" x2="377" y2="243" stroke="black" stroke-width="2" marker-end="url(#arrow)" />
<text x="336.5" y="268" font-family="sans-serif" font-size="12">16</text>
<line x1="314" y1="180" x2="377" y2="243" stroke="black" stroke-width="2" marker-end="url(#arrow)" />
<text x="345.5" y="211.5" font-family="sans-serif" font-size="12">17</text>
<line x1="377" y1="243" x2="407" y2="319" stroke="black" stroke-width="2" marker-end="url(#arrow)" />
<text x="392" y="281" font-family="sans-serif" font-size="12">18</text>
<line x1="377" y1="243" x2="452" y2="91" stroke="black" stroke-width="2" marker-end="url(#arrow)" />
<text x="414.5" y="167" font-family="sans-serif" font-size="12">19</text>
<line x1="452" y1="91" x2="490" y2="192" stroke="black" stroke-width="2" marker-end="url(#arrow)" />
<text x="471" y="141.5" font-family="sans-serif" font-size="12">20</text>
<line x1="510" y1="302" x2="490" y2="192" stroke="black" stroke-width="2" marker-end="url(#arrow)" />
<text x="500" y="247" font-family="sans-serif" font-size="12">21</text>
<line x1="566" y1="257" x2="642" y2="209" stroke="black" stroke-width="2" marker-end="url(#arrow)" />
<text x="604" y="233" font-family="sans-serif" font-size="12">22</text>
<circle cx="73" cy="242" r="4" style="fill:#dd0;"/>
<text x="73" y="258" style="fill:#dd0" font-family="sans-serif" font-size="16">2</text>
<circle cx="215" cy="179" r="4" style="fill:#dd0;"/>
<text x="215" y="195" style="fill:#dd0" font-family="sans-serif" font-size="16">1</text>
<circle cx="177" cy="324" r="4" style="fill:#dd0;"/>
<text x="177" y="340" style="fill:#dd0" font-family="sans-serif" font-size="16">3</text>
<circle cx="167" cy="244" r="4" style="fill:#d00;"/>
<text x="167" y="260" style="fill:#d00" font-family="sans-serif" font-size="16">A</text>
<circle cx="260" cy="243" r="4" style="fill:#d00;"/>
<text x="260" y="259" style="fill:#d00" font-family="sans-serif" font-size="16">B</text>
<circle cx="296" cy="293" r="4" style="fill:#d00;"/>
<text x="296" y="309" style="fill:#d00" font-family="sans-serif" font-size="16">C</text>
<circle cx="314" cy="180" r="4" style="fill:#d00;"/>
<text x="314" y="196" style="fill:#d00" font-family="sans-serif" font-size="16">D</text>
<circle cx="367" cy="106" r="4" style="fill:#d00;"/>
<text x="367" y="122" style="fill:#d00" font-family="sans-serif" font-size="16">E</text>
<circle cx="377" cy="243" r="4" style="fill:#d00;"/>
<text x="377" y="259" style="fill:#d00" font-family="sans-serif" font-size="16">F</text>
<circle cx="407" cy="319" r="4" style="fill:#d00;"/>
<text x="407" y="335" style="fill:#d00" font-family="sans-serif" font-size="16">G</text>
<circle cx="452" cy="91" r="4" style="fill:#d00;"/>
<text x="452" y="107" style="fill:#d00" font-family="sans-serif" font-size="16">H</text>
<circle cx="490" cy="192" r="4" style="fill:#d00;"/>
<text x="490" y="208" style="fill:#d00" font-family="sans-serif" font-size="16">I</text>
<circle cx="510" cy="302" r="4" style="fill:#d00;"/>
<text x="510" y="318" style="fill:#d00" font-family="sans-serif" font-size="16">J</text>
<circle cx="551" cy="144" r="4" style="fill:#d00;"/>
<text x="551" y="160" style="fill:#d00" font-family="sans-serif" font-size="16">K</text>
<circle cx="566" cy="257" r="4" style="fill:#d00;"/>
<text x="566" y="273" style="fill:#d00" font-family="sans-serif" font-size="16">L</text>
<circle cx="610" cy="88" r="4" style="fill:#d00;"/>
<text x="610" y="104" style="fill:#d00" font-family="sans-serif" font-size="16">M</text>
<circle cx="639" cy="317" r="4" style="fill:#d00;"/>
<text x="639" y="333" style="fill:#d00" font-family="sans-serif" font-size="16">N</text>
<circle cx="642" cy="209" r="4" style="fill:#d00;"/>
<text x="642" y="225" style="fill:#d00" font-family="sans-serif" font-size="16">O</text>
</svg>