<?xml version="1.0"?>
<svg version="1.1" xmlns="http://www.w3.org/2000/svg" xmlns:xlink="http://www.w3.org/1999/xlink"
     width="800" height="480">

<defs>
  <marker id="arrow" refX="7" refY="2" markerWidth="6" markerHeight="9" orient="auto" markerUnits="strokeWidth">
    <path d="M0,0 L0,4 L7,2 z" fill="#000" />
  </marker>
</defs>
<line x1="82" y1="101" x2="64" y2="201" stroke="black" stroke-width="2" marker-end="url(#arrow)" />
<text x="73" y="151" font-family="sans-serif" font-size="12">1</text>
<line x1="64" y1="201" x2="134" y2="269" stroke="black" stroke-width="2" marker-end="url(#arrow)" />
<text x="99" y="235" font-family="sans-serif" font-size="12">2</text>
<line x1="82" y1="101" x2="154" y2="190" stroke="black" stroke-width="2" marker-end="url(#arrow)" />
<text x="118" y="145.5" font-family="sans-serif" font-size="12">3</text>
<line x1="154" y1="190" x2="199" y2="150" stroke="black" stroke-width="2" marker-end="url(#arrow)" />
<text x="176.5" y="170" font-family="sans-serif" font-size="12">4</text>
<line x1="134" y1="269" x2="226" y2="243" stroke="black" stroke-width="2" marker-end="url(#arrow)" />
<text x="180" y="256" font-family="sans-serif" font-size="12">5</text>
<line x1="199" y1="150" x2="242" y2="107" stroke="black" stroke-width="2" marker-end="url(#arrow)" />
<text x="220.5" y="128.5" font-family="sans-serif" font-size="12">6</text>
<line x1="134" y1="269" x2="270" y2="326" stroke="black" stroke-width="2" marker-end="url(#arrow)" />
<text x="202" y="297.5" font-family="sans-serif" font-size="12">7</text>
<line x1="154" y1="190" x2="308" y2="224" stroke="black" stroke-width="2" marker-end="url(#arrow)" />
<text x="231" y="207" font-family="sans-serif" font-size="12">8</text>
<line x1="242" y1="107" x2="320" y2="101" stroke="black" stroke-width="2" marker-end="url(#arrow)" />
<text x="281" y="104" font-family="sans-serif" font-size="12">9</text>
<line x1="242" y1="107" x2="339" y2="165" stroke="black" stroke-width="2" marker-end="url(#arrow)" />
<text x="290.5" y="136" font-family="sans-serif" font-size="12">10</text>
<line x1="308" y1="224" x2="399" y2="253" stroke="black" stroke-width="2" marker-end="url(#arrow)" />
<text x="353.5" y="238.5" font-family="sans-serif" font-size="12">11</text>
<line x1="399" y1="253" x2="451" y2="172" stroke="black" stroke-width="2" marker-end="url(#arrow)" />
<text x="425" y="212.5" font-family="sans-serif" font-size="12">12</text>
<line x1="399" y1="253" x2="397" y2="145" stroke="black" stroke-width="2" marker-end="url(#arrow)" />
<text x="398" y="199" font-family="sans-serif" font-size="12">13</text>
<line x1="532" y1="203" x2="471" y2="127" stroke="black" stroke-width="2" marker-end="url(#arrow)" />
<text x="501.5" y="165" font-family="sans-serif" font-size="12">14</text>
<line x1="353" y1="303" x2="491" y2="301" stroke="black" stroke-width="2" marker-end="url(#arrow)" />
<text x="422" y="302" font-family="sans-serif" font-size="12">15</text>
<line x1="491" y1="301" x2="532" y2="203" stroke="black" stroke-width="2" marker-end="url(#arrow)" />
<text x="511.5" y="252" font-family="sans-serif" font-size="12">16</text>
<line x1="605" y1="232" x2="543" y2="290" stroke="black" stroke-width="2" marker-end="url(#arrow)" />
<text x="574" y="261" font-family="sans-serif" font-size="12">17</text>
<line x1="471" y1="127" x2="551" y2="80" stroke="black" stroke-width="2" marker-end="url(#arrow)" />
<text x="511" y="103.5" font-family="sans-serif" font-size="12">18</text>
<line x1="532" y1="203" x2="605" y2="232" stroke="black" stroke-width="2" marker-end="url(#arrow)" />
<text x="568.5" y="217.5" font-family="sans-serif" font-size="12">19</text>
<line x1="551" y1="80" x2="651" y2="162" stroke="black" stroke-width="2" marker-end="url(#arrow)" />
<text x="601" y="121" font-family="sans-serif" font-size="12">20</text>
<line x1="543" y1="290" x2="612" y2="341" stroke="black" stroke-width="2" marker-end="url(#arrow)" />
<text x="577.5" y="315.5" font-family="sans-serif" font-size="12">21</text>
<line x1="543" y1="290" x2="649" y2="296" stroke="black" stroke-width="2" marker-end="url(#arrow)" />
<text x="596" y="293" font-family="sans-serif" font-size="12">22</text>
<line x1="226" y1="243" x2="270" y2="326" stroke="black" stroke-width="2" marker-end="url(#arrow)" />
<text x="248" y="284.5" font-family="sans-serif" font-size="12">23</text>
<line x1="226" y1="243" x2="308" y2="224" stroke="black" stroke-width="2" marker-end="url(#arrow)" />
<text x="267" y="233.5" font-family="sans-serif" font-size="12">24</text>
<line x1="270" y1="326" x2="308" y2="224" stroke="black" stroke-width="2" marker-end="url(#arrow)" />
<text x="289" y="275" font-family="sans-serif" font-size="12">25</text>
<line x1="339" y1="165" x2="308" y2="224" stroke="black" stroke-width="2" marker-end="url(#arrow)" />
<text x="323.5" y="194.5" font-family="sans-serif" font-size="12">26</text>
<line x1="320" y1="101" x2="339" y2="165" stroke="black" stroke-width="2" marker-end="url(#arrow)" />
<text x="329.5" y="133" font-family="sans-serif" font-size="12">27</text>
<line x1="532" y1="203" x2="551" y2="80" stroke="black" stroke-width="2" marker-end="url(#arrow)" />
<text x="541.5" y="141.5" font-family="sans-serif" font-size="12">28</text>
<line x1="551" y1="80" x2="605" y2="232" stroke="black" stroke-width="2" marker-end="url(#arrow)" />
<text x="578" y="156" font-family="sans-serif" font-size="12">29</text>
<line x1="651" y1="162" x2="605" y2="232" stroke="black" stroke-width="2" marker-end="url(#arrow)" />
<text x="628" y="197" font-family="sans-serif" font-size="12">30</text>
<circle cx="82" cy="101" r="4" style="fill:#dd0;"/>
<text x="82" y="117" style="fill:#dd0" font-family="sans-serif" font-size="16">1</text>
<circle cx="353" cy="303" r="4" style="fill:#dd0;"/>
<text x="353" y="319" style="fill:#dd0" font-family="sans-serif" font-size="16">2</text>
<circle cx="64" cy="201" r="4" style="fill:#d00;"/>
<text x="64" y="217" style="fill:#d00" font-family="sans-serif" font-size="16">A</text>
<circle cx="154" cy="190" r="4" style="fill:#d00;"/>
<text x="154" y="206" style="fill:#d00" font-family="sans-serif" font-size="16">C</text>
<circle cx="134" cy="269" r="4" style="fill:#d00;"/>
<text x="134" y="285" style="fill:#d00" font-family="sans-serif" font-size="16">B</text>
<circle cx="199" cy="150" r="4" style="fill:#d00;"/>
<text x="199" y="166" style="fill:#d00" font-family="sans-serif" font-size="16">D</text>
<circle cx="242" cy="107" r="4" style="fill:#d00;"/>
<text x="242" y="123" style="fill:#d00" font-family="sans-serif" font-size="16">F</text>
<circle cx="320" cy="101" r="4" style="fill:#d00;"/>
<text x="320" y="117" style="fill:#d00" font-family="sans-serif" font-size="16">I</text>
<circle cx="339" cy="165" r="4" style="fill:#d00;"/>
<text x="339" y="181" style="fill:#d00" font-family="sans-serif" font-size="16">J</text>
<circle cx="308" cy="224" r="4" style="fill:#d00;"/>
<text x="308" y="240" style="fill:#d00" font-family="sans-serif" font-size="16">H</text>
<circle cx="226" cy="243" r="4" style="fill:#d00;"/>
<text x="226" y="259" style="fill:#d00" font-family="sans-serif" font-size="16">E</text>
<circle cx="270" cy="326" r="4" style="fill:#d00;"/>
<text x="270" y="342" style="fill:#d00" font-family="sans-serif" font-size="16">G</text>
<circle cx="399" cy="253" r="4" style="fill:#d00;"/>
<text x="399" y="269" style="fill:#d00" font-family="sans-serif" font-size="16">K</text>
<circle cx="397" cy="145" r="4" style="fill:#d00;"/>
<text x="397" y="161" style="fill:#d00" font-family="sans-serif" font-size="16">M</text>
<circle cx="451" cy="172" r="4" style="fill:#d00;"/>
<text x="451" y="188" style="fill:#d00" font-family="sans-serif" font-size="16">L</text>
<circle cx="491" cy="301" r="4" style="fill:#d00;"/>
<text x="491" y="317" style="fill:#d00" font-family="sans-serif" font-size="16">O</text>
<circle cx="532" cy="203" r="4" style="fill:#d00;"/>
<text x="532" y="219" style="fill:#d00" font-family="sans-serif" font-size="16">P</text>
<circle cx="471" cy="127" r="4" style="fill:#d00;"/>
<text x="471" y="143" style="fill:#d00" font-family="sans-serif" font-size="16">N</text>
<circle cx="551" cy="80" r="4" style="fill:#d00;"/>
<text x="551" y="96" style="fill:#d00" font-family="sans-serif" font-size="16">R</text>
<circle cx="651" cy="162" r="4" style="fill:#d00;"/>
<text x="651" y="178" style="fill:#d00" font-family="sans-serif" font-size="16">T</text>
<circle cx="605" cy="232" r="4" style="fill:#d00;"/>
<text x="605" y="248" style="fill:#d00" font-family="sans-serif" font-size="16">S</text>
<circle cx="543" cy="290" r="4" style="fill:#d00;"/>
<text x="543" y="306" style="fill:#d00" font-family="sans-serif" font-size="16">Q</text>
<circle cx="649" cy="296" r="4" style="fill:#d00;"/>
<text x="649" y="312" style="fill:#d00" font-family="sans-serif" font-size="16">V</text>
<circle cx="612" cy="341" r="4" style="fill:#d00;"/>
<text x="612" y="357" style="fill:#d00" font-family="sans-serif" font-size="16">U</text>
</svg>