<?xml version="1.0"?>
<svg version="1.1" xmlns="http://www.w3.org/2000/svg"
    width="800" height="480">
  <defs>
  <marker id="arrow" refX="7" refY="2" markerWidth="6" markerHeight="9" orient="auto" markerUnits="strokeWidth">
    <path d="M0,0 L0,4 L7,2 z" fill="#000" />
  </marker>
  </defs>
  <line x1="66" y1="248" x2="168" y2="273" stroke="black" stroke-width="2" marker-end="url(#arrow)" />
<text x="117" y="260.5" font-family="sans-serif" font-size="16">1</text>
<line x1="131" y1="204" x2="213" y2="172" stroke="black" stroke-width="2" marker-end="url(#arrow)" />
<text x="172" y="188" font-family="sans-serif" font-size="16">2</text>
<line x1="168" y1="273" x2="292" y2="299" stroke="black" stroke-width="2" marker-end="url(#arrow)" />
<text x="230" y="286" font-family="sans-serif" font-size="16">3</text>
<line x1="213" y1="172" x2="322" y2="134" stroke="black" stroke-width="2" marker-end="url(#arrow)" />
<text x="267.5" y="153" font-family="sans-serif" font-size="16">4</text>
<line x1="213" y1="172" x2="385" y2="218" stroke="black" stroke-width="2" marker-end="url(#arrow)" />
<text x="299" y="195" font-family="sans-serif" font-size="16">5</text>
<line x1="322" y1="134" x2="405" y2="79" stroke="black" stroke-width="2" marker-end="url(#arrow)" />
<text x="363.5" y="106.5" font-family="sans-serif" font-size="16">6</text>
<line x1="292" y1="299" x2="417" y2="328" stroke="black" stroke-width="2" marker-end="url(#arrow)" />
<text x="354.5" y="313.5" font-family="sans-serif" font-size="16">7</text>
<line x1="385" y1="218" x2="448" y2="163" stroke="black" stroke-width="2" marker-end="url(#arrow)" />
<text x="416.5" y="190.5" font-family="sans-serif" font-size="16">8</text>
<line x1="385" y1="218" x2="495" y2="256" stroke="black" stroke-width="2" marker-end="url(#arrow)" />
<text x="440" y="237" font-family="sans-serif" font-size="16">9</text>
<line x1="405" y1="79" x2="523" y2="92" stroke="black" stroke-width="2" marker-end="url(#arrow)" />
<text x="464" y="85.5" font-family="sans-serif" font-size="16">10</text>
<line x1="417" y1="328" x2="562" y2="309" stroke="black" stroke-width="2" marker-end="url(#arrow)" />
<text x="489.5" y="318.5" font-family="sans-serif" font-size="16">11</text>
<line x1="495" y1="256" x2="649" y2="230" stroke="black" stroke-width="2" marker-end="url(#arrow)" />
<text x="572" y="243" font-family="sans-serif" font-size="16">12</text>
<line x1="168" y1="273" x2="218" y2="335" stroke="black" stroke-width="2" marker-end="url(#arrow)" />
<text x="193" y="304" font-family="sans-serif" font-size="16">13</text>
<line x1="322" y1="134" x2="235" y2="101" stroke="black" stroke-width="2" marker-end="url(#arrow)" />
<text x="278.5" y="117.5" font-family="sans-serif" font-size="16">14</text>
<line x1="495" y1="256" x2="574" y2="174" stroke="black" stroke-width="2" marker-end="url(#arrow)" />
<text x="534.5" y="215" font-family="sans-serif" font-size="16">15</text>
<line x1="562" y1="309" x2="661" y2="318" stroke="black" stroke-width="2" marker-end="url(#arrow)" />
<text x="611.5" y="313.5" font-family="sans-serif" font-size="16">16</text>
<line x1="523" y1="92" x2="629" y2="120" stroke="black" stroke-width="2" marker-end="url(#arrow)" />
<text x="576" y="106" font-family="sans-serif" font-size="16">17</text>
<line x1="168" y1="273" x2="213" y2="172" stroke="black" stroke-width="2" marker-end="url(#arrow)" />
<text x="190.5" y="222.5" font-family="sans-serif" font-size="16">18</text>
<line x1="292" y1="299" x2="385" y2="218" stroke="black" stroke-width="2" marker-end="url(#arrow)" />
<text x="338.5" y="258.5" font-family="sans-serif" font-size="16">19</text>
<line x1="322" y1="134" x2="385" y2="218" stroke="black" stroke-width="2" marker-end="url(#arrow)" />
<text x="353.5" y="176" font-family="sans-serif" font-size="16">20</text>
<line x1="405" y1="79" x2="448" y2="163" stroke="black" stroke-width="2" marker-end="url(#arrow)" />
<text x="426.5" y="121" font-family="sans-serif" font-size="16">21</text>
<line x1="495" y1="256" x2="448" y2="163" stroke="black" stroke-width="2" marker-end="url(#arrow)" />
<text x="471.5" y="209.5" font-family="sans-serif" font-size="16">22</text>
<line x1="448" y1="163" x2="523" y2="92" stroke="black" stroke-width="2" marker-end="url(#arrow)" />
<text x="485.5" y="127.5" font-family="sans-serif" font-size="16">23</text>
<line x1="495" y1="256" x2="562" y2="309" stroke="black" stroke-width="2" marker-end="url(#arrow)" />
<text x="528.5" y="282.5" font-family="sans-serif" font-size="16">24</text>
<line x1="562" y1="309" x2="649" y2="230" stroke="black" stroke-width="2" marker-end="url(#arrow)" />
<text x="605.5" y="269.5" font-family="sans-serif" font-size="16">25</text>
<line x1="523" y1="92" x2="574" y2="174" stroke="black" stroke-width="2" marker-end="url(#arrow)" />
<text x="548.5" y="133" font-family="sans-serif" font-size="16">26</text>
<line x1="649" y1="230" x2="629" y2="120" stroke="black" stroke-width="2" marker-end="url(#arrow)" />
<text x="639" y="175" font-family="sans-serif" font-size="16">27</text>
<circle cx="131" cy="204" r="4" style="fill:#dd0;"/>
<text x="131" y="216" style="fill:#dd0" font-family="sans-serif" font-size="12">2620_4080_0</text>
<circle cx="66" cy="248" r="4" style="fill:#dd0;"/>
<text x="66" y="260" style="fill:#dd0" font-family="sans-serif" font-size="12">1320_4960_28</text>
<circle cx="168" cy="273" r="4" style="fill:#d00;"/>
<text x="168" y="289" style="fill:#d00" font-family="sans-serif" font-size="16">A</text>
<circle cx="213" cy="172" r="4" style="fill:#d00;"/>
<text x="213" y="184" style="fill:#d00" font-family="sans-serif" font-size="12">4260_3440_18</text>
<circle cx="292" cy="299" r="4" style="fill:#d00;"/>
<text x="292" y="315" style="fill:#d00" font-family="sans-serif" font-size="16">C</text>
<circle cx="322" cy="134" r="4" style="fill:#d00;"/>
<text x="322" y="150" style="fill:#d00" font-family="sans-serif" font-size="16">D</text>
<circle cx="385" cy="218" r="4" style="fill:#d00;"/>
<text x="385" y="234" style="fill:#d00" font-family="sans-serif" font-size="16">E</text>
<circle cx="405" cy="79" r="4" style="fill:#d00;"/>
<text x="405" y="95" style="fill:#d00" font-family="sans-serif" font-size="16">F</text>
<circle cx="417" cy="328" r="4" style="fill:#d00;"/>
<text x="417" y="344" style="fill:#d00" font-family="sans-serif" font-size="16">G</text>
<circle cx="448" cy="163" r="4" style="fill:#d00;"/>
<text x="448" y="179" style="fill:#d00" font-family="sans-serif" font-size="16">H</text>
<circle cx="495" cy="256" r="4" style="fill:#d00;"/>
<text x="495" y="272" style="fill:#d00" font-family="sans-serif" font-size="16">I</text>
<circle cx="523" cy="92" r="4" style="fill:#d00;"/>
<text x="523" y="108" style="fill:#d00" font-family="sans-serif" font-size="16">J</text>
<circle cx="562" cy="309" r="4" style="fill:#d00;"/>
<text x="562" y="325" style="fill:#d00" font-family="sans-serif" font-size="16">K</text>
<circle cx="649" cy="230" r="4" style="fill:#d00;"/>
<text x="649" y="246" style="fill:#d00" font-family="sans-serif" font-size="16">L</text>
<circle cx="218" cy="335" r="4" style="fill:#d00;"/>
<text x="218" y="351" style="fill:#d00" font-family="sans-serif" font-size="16">M</text>
<circle cx="235" cy="101" r="4" style="fill:#d00;"/>
<text x="235" y="117" style="fill:#d00" font-family="sans-serif" font-size="16">N</text>
<circle cx="574" cy="174" r="4" style="fill:#d00;"/>
<text x="574" y="186" style="fill:#d00" font-family="sans-serif" font-size="12">11480_3480_26</text>
<circle cx="661" cy="318" r="4" style="fill:#d00;"/>
<text x="661" y="334" style="fill:#d00" font-family="sans-serif" font-size="16">P</text>
<circle cx="629" cy="120" r="4" style="fill:#d00;"/>
<text x="629" y="136" style="fill:#d00" font-family="sans-serif" font-size="16">Q</text>
</svg>
