<?xml version="1.0"?>
<svg version="1.1" xmlns="http://www.w3.org/2000/svg" xmlns:xlink="http://www.w3.org/1999/xlink"
     width="800" height="480">

<defs>
  <marker id="arrow" refX="7" refY="2" markerWidth="6" markerHeight="9" orient="auto" markerUnits="strokeWidth">
    <path d="M0,0 L0,4 L7,2 z" fill="#000" />
  </marker>
</defs>
<line x1="213" y1="324" x2="114" y2="258" stroke="black" stroke-width="2" marker-end="url(#arrow)" />
<text x="163.5" y="291" font-family="sans-serif" font-size="12">1</text>
<line x1="114" y1="258" x2="153" y2="146" stroke="black" stroke-width="2" marker-end="url(#arrow)" />
<text x="133.5" y="202" font-family="sans-serif" font-size="12">2</text>
<line x1="213" y1="324" x2="200" y2="210" stroke="black" stroke-width="2" marker-end="url(#arrow)" />
<text x="206.5" y="267" font-family="sans-serif" font-size="12">3</text>
<line x1="328" y1="246" x2="213" y2="324" stroke="black" stroke-width="2" marker-end="url(#arrow)" />
<text x="270.5" y="285" font-family="sans-serif" font-size="12">4</text>
<line x1="153" y1="146" x2="255" y2="79" stroke="black" stroke-width="2" marker-end="url(#arrow)" />
<text x="204" y="112.5" font-family="sans-serif" font-size="12">5</text>
<line x1="200" y1="210" x2="268" y2="135" stroke="black" stroke-width="2" marker-end="url(#arrow)" />
<text x="234" y="172.5" font-family="sans-serif" font-size="12">6</text>
<line x1="411" y1="159" x2="328" y2="246" stroke="black" stroke-width="2" marker-end="url(#arrow)" />
<text x="369.5" y="202.5" font-family="sans-serif" font-size="12">7</text>
<line x1="255" y1="79" x2="428" y2="91" stroke="black" stroke-width="2" marker-end="url(#arrow)" />
<text x="341.5" y="85" font-family="sans-serif" font-size="12">8</text>
<line x1="428" y1="91" x2="577" y2="91" stroke="black" stroke-width="2" marker-end="url(#arrow)" />
<text x="502.5" y="91" font-family="sans-serif" font-size="12">9</text>
<line x1="577" y1="91" x2="727" y2="83" stroke="black" stroke-width="2" marker-end="url(#arrow)" />
<text x="652" y="87" font-family="sans-serif" font-size="12">10</text>
<line x1="727" y1="83" x2="708" y2="143" stroke="black" stroke-width="2" marker-end="url(#arrow)" />
<text x="717.5" y="113" font-family="sans-serif" font-size="12">11</text>
<line x1="200" y1="210" x2="153" y2="146" stroke="black" stroke-width="2" marker-end="url(#arrow)" />
<text x="176.5" y="178" font-family="sans-serif" font-size="12">12</text>
<line x1="268" y1="135" x2="153" y2="146" stroke="black" stroke-width="2" marker-end="url(#arrow)" />
<text x="210.5" y="140.5" font-family="sans-serif" font-size="12">13</text>
<line x1="328" y1="246" x2="411" y2="266" stroke="black" stroke-width="2" marker-end="url(#arrow)" />
<text x="369.5" y="256" font-family="sans-serif" font-size="12">14</text>
<line x1="411" y1="266" x2="445" y2="328" stroke="black" stroke-width="2" marker-end="url(#arrow)" />
<text x="428" y="297" font-family="sans-serif" font-size="12">15</text>
<line x1="445" y1="328" x2="213" y2="324" stroke="black" stroke-width="2" marker-end="url(#arrow)" />
<text x="329" y="326" font-family="sans-serif" font-size="12">16</text>
<line x1="577" y1="91" x2="588" y2="165" stroke="black" stroke-width="2" marker-end="url(#arrow)" />
<text x="582.5" y="128" font-family="sans-serif" font-size="12">17</text>
<circle cx="411" cy="159" r="4" style="fill:#dd0;"/>
<text x="411" y="175" style="fill:#dd0" font-family="sans-serif" font-size="16">1</text>
<circle cx="328" cy="246" r="4" style="fill:#d00;"/>
<text x="328" y="262" style="fill:#d00" font-family="sans-serif" font-size="16">G</text>
<circle cx="213" cy="324" r="4" style="fill:#d00;"/>
<text x="213" y="340" style="fill:#d00" font-family="sans-serif" font-size="16">D</text>
<circle cx="428" cy="91" r="4" style="fill:#d00;"/>
<text x="428" y="107" style="fill:#d00" font-family="sans-serif" font-size="16">H</text>
<circle cx="255" cy="79" r="4" style="fill:#d00;"/>
<text x="255" y="95" style="fill:#d00" font-family="sans-serif" font-size="16">E</text>
<circle cx="153" cy="146" r="4" style="fill:#d00;"/>
<text x="153" y="162" style="fill:#d00" font-family="sans-serif" font-size="16">B</text>
<circle cx="268" cy="135" r="4" style="fill:#d00;"/>
<text x="268" y="151" style="fill:#d00" font-family="sans-serif" font-size="16">F</text>
<circle cx="200" cy="210" r="4" style="fill:#d00;"/>
<text x="200" y="226" style="fill:#d00" font-family="sans-serif" font-size="16">C</text>
<circle cx="114" cy="258" r="4" style="fill:#d00;"/>
<text x="114" y="274" style="fill:#d00" font-family="sans-serif" font-size="16">A</text>
<circle cx="577" cy="91" r="4" style="fill:#d00;"/>
<text x="577" y="107" style="fill:#d00" font-family="sans-serif" font-size="16">I</text>
<circle cx="411" cy="266" r="4" style="fill:#d00;"/>
<text x="411" y="282" style="fill:#d00" font-family="sans-serif" font-size="16">L</text>
<circle cx="445" cy="328" r="4" style="fill:#d00;"/>
<text x="445" y="344" style="fill:#d00" font-family="sans-serif" font-size="16">M</text>
<circle cx="588" cy="165" r="4" style="fill:#d00;"/>
<text x="588" y="181" style="fill:#d00" font-family="sans-serif" font-size="16">N</text>
<circle cx="708" cy="143" r="4" style="fill:#d00;"/>
<text x="708" y="159" style="fill:#d00" font-family="sans-serif" font-size="16">K</text>
<circle cx="727" cy="83" r="4" style="fill:#d00;"/>
<text x="727" y="99" style="fill:#d00" font-family="sans-serif" font-size="16">J</text>
</svg>