<?xml version="1.0"?>
<svg version="1.1" xmlns="http://www.w3.org/2000/svg" xmlns:xlink="http://www.w3.org/1999/xlink"
     width="800" height="480">

<defs>
  <marker id="arrow" refX="7" refY="2" markerWidth="6" markerHeight="9" orient="auto" markerUnits="strokeWidth">
    <path d="M0,0 L0,4 L7,2 z" fill="#000" />
  </marker>
</defs>
<line x1="96" y1="161" x2="183" y2="206" stroke="black" stroke-width="2" marker-end="url(#arrow)" />
<text x="139.5" y="183.5" font-family="sans-serif" font-size="12">1</text>
<line x1="183" y1="206" x2="230" y2="289" stroke="black" stroke-width="2" marker-end="url(#arrow)" />
<text x="206.5" y="247.5" font-family="sans-serif" font-size="12">2</text>
<line x1="96" y1="161" x2="255" y2="134" stroke="black" stroke-width="2" marker-end="url(#arrow)" />
<text x="175.5" y="147.5" font-family="sans-serif" font-size="12">3</text>
<line x1="183" y1="206" x2="308" y2="201" stroke="black" stroke-width="2" marker-end="url(#arrow)" />
<text x="245.5" y="203.5" font-family="sans-serif" font-size="12">4</text>
<line x1="230" y1="289" x2="363" y2="295" stroke="black" stroke-width="2" marker-end="url(#arrow)" />
<text x="296.5" y="292" font-family="sans-serif" font-size="12">5</text>
<line x1="255" y1="134" x2="409" y2="109" stroke="black" stroke-width="2" marker-end="url(#arrow)" />
<text x="332" y="121.5" font-family="sans-serif" font-size="12">6</text>
<line x1="308" y1="201" x2="428" y2="196" stroke="black" stroke-width="2" marker-end="url(#arrow)" />
<text x="368" y="198.5" font-family="sans-serif" font-size="12">7</text>
<line x1="363" y1="295" x2="488" y2="304" stroke="black" stroke-width="2" marker-end="url(#arrow)" />
<text x="425.5" y="299.5" font-family="sans-serif" font-size="12">8</text>
<line x1="409" y1="109" x2="557" y2="80" stroke="black" stroke-width="2" marker-end="url(#arrow)" />
<text x="483" y="94.5" font-family="sans-serif" font-size="12">9</text>
<line x1="428" y1="196" x2="569" y2="196" stroke="black" stroke-width="2" marker-end="url(#arrow)" />
<text x="498.5" y="196" font-family="sans-serif" font-size="12">10</text>
<line x1="488" y1="304" x2="577" y2="312" stroke="black" stroke-width="2" marker-end="url(#arrow)" />
<text x="532.5" y="308" font-family="sans-serif" font-size="12">11</text>
<line x1="557" y1="80" x2="635" y2="139" stroke="black" stroke-width="2" marker-end="url(#arrow)" />
<text x="596" y="109.5" font-family="sans-serif" font-size="12">12</text>
<line x1="577" y1="312" x2="648" y2="231" stroke="black" stroke-width="2" marker-end="url(#arrow)" />
<text x="612.5" y="271.5" font-family="sans-serif" font-size="12">13</text>
<line x1="308" y1="201" x2="363" y2="295" stroke="black" stroke-width="2" marker-end="url(#arrow)" />
<text x="335.5" y="248" font-family="sans-serif" font-size="12">14</text>
<line x1="428" y1="196" x2="409" y2="109" stroke="black" stroke-width="2" marker-end="url(#arrow)" />
<text x="418.5" y="152.5" font-family="sans-serif" font-size="12">15</text>
<line x1="363" y1="295" x2="428" y2="196" stroke="black" stroke-width="2" marker-end="url(#arrow)" />
<text x="395.5" y="245.5" font-family="sans-serif" font-size="12">16</text>
<line x1="569" y1="196" x2="488" y2="304" stroke="black" stroke-width="2" marker-end="url(#arrow)" />
<text x="528.5" y="250" font-family="sans-serif" font-size="12">17</text>
<line x1="428" y1="196" x2="557" y2="80" stroke="black" stroke-width="2" marker-end="url(#arrow)" />
<text x="492.5" y="138" font-family="sans-serif" font-size="12">18</text>
<line x1="488" y1="304" x2="569" y2="196" stroke="black" stroke-width="2" marker-end="url(#arrow)" />
<text x="528.5" y="250" font-family="sans-serif" font-size="12">19</text>
<line x1="557" y1="80" x2="569" y2="196" stroke="black" stroke-width="2" marker-end="url(#arrow)" />
<text x="563" y="138" font-family="sans-serif" font-size="12">20</text>
<line x1="569" y1="196" x2="577" y2="312" stroke="black" stroke-width="2" marker-end="url(#arrow)" />
<text x="573" y="254" font-family="sans-serif" font-size="12">21</text>
<circle cx="96" cy="161" r="4" style="fill:#dd0;"/>
<text x="96" y="177" style="fill:#dd0" font-family="sans-serif" font-size="16">1</text>
<circle cx="183" cy="206" r="4" style="fill:#d00;"/>
<text x="183" y="222" style="fill:#d00" font-family="sans-serif" font-size="16">A</text>
<circle cx="230" cy="289" r="4" style="fill:#d00;"/>
<text x="230" y="305" style="fill:#d00" font-family="sans-serif" font-size="16">B</text>
<circle cx="255" cy="134" r="4" style="fill:#d00;"/>
<text x="255" y="150" style="fill:#d00" font-family="sans-serif" font-size="16">C</text>
<circle cx="308" cy="201" r="4" style="fill:#d00;"/>
<text x="308" y="217" style="fill:#d00" font-family="sans-serif" font-size="16">D</text>
<circle cx="363" cy="295" r="4" style="fill:#d00;"/>
<text x="363" y="311" style="fill:#d00" font-family="sans-serif" font-size="16">E</text>
<circle cx="428" cy="196" r="4" style="fill:#d00;"/>
<text x="428" y="212" style="fill:#d00" font-family="sans-serif" font-size="16">G</text>
<circle cx="488" cy="304" r="4" style="fill:#d00;"/>
<text x="488" y="320" style="fill:#d00" font-family="sans-serif" font-size="16">H</text>
<circle cx="557" cy="80" r="4" style="fill:#d00;"/>
<text x="557" y="96" style="fill:#d00" font-family="sans-serif" font-size="16">I</text>
<circle cx="569" cy="196" r="4" style="fill:#d00;"/>
<text x="569" y="212" style="fill:#d00" font-family="sans-serif" font-size="16">J</text>
<circle cx="577" cy="312" r="4" style="fill:#d00;"/>
<text x="577" y="328" style="fill:#d00" font-family="sans-serif" font-size="16">K</text>
<circle cx="635" cy="139" r="4" style="fill:#d00;"/>
<text x="635" y="155" style="fill:#d00" font-family="sans-serif" font-size="16">L</text>
<circle cx="648" cy="231" r="4" style="fill:#d00;"/>
<text x="648" y="247" style="fill:#d00" font-family="sans-serif" font-size="16">M</text>
<circle cx="409" cy="109" r="4" style="fill:#d00;"/>
<text x="409" y="125" style="fill:#d00" font-family="sans-serif" font-size="16">F</text>
</svg>