<?xml version="1.0"?>
<svg version="1.1" xmlns="http://www.w3.org/2000/svg" xmlns:xlink="http://www.w3.org/1999/xlink"
     width="800" height="480">

<defs>
  <marker id="arrow" refX="7" refY="2" markerWidth="6" markerHeight="9" orient="auto" markerUnits="strokeWidth">
    <path d="M0,0 L0,4 L7,2 z" fill="#000" />
  </marker>
</defs>
<line x1="608" y1="155" x2="662" y2="212" stroke="black" stroke-width="2" marker-end="url(#arrow)" />
<text x="635" y="183.5" font-family="sans-serif" font-size="12">1</text>
<line x1="662" y1="212" x2="662" y2="291" stroke="black" stroke-width="2" marker-end="url(#arrow)" />
<text x="662" y="251.5" font-family="sans-serif" font-size="12">2</text>
<line x1="549" y1="94" x2="608" y2="155" stroke="black" stroke-width="2" marker-end="url(#arrow)" />
<text x="578.5" y="124.5" font-family="sans-serif" font-size="12">3</text>
<line x1="662" y1="212" x2="608" y2="310" stroke="black" stroke-width="2" marker-end="url(#arrow)" />
<text x="635" y="261" font-family="sans-serif" font-size="12">4</text>
<line x1="608" y1="310" x2="532" y2="310" stroke="black" stroke-width="2" marker-end="url(#arrow)" />
<text x="570" y="310" font-family="sans-serif" font-size="12">5</text>
<line x1="532" y1="310" x2="549" y2="252" stroke="black" stroke-width="2" marker-end="url(#arrow)" />
<text x="540.5" y="281" font-family="sans-serif" font-size="12">6</text>
<line x1="549" y1="252" x2="545" y2="157" stroke="black" stroke-width="2" marker-end="url(#arrow)" />
<text x="547" y="204.5" font-family="sans-serif" font-size="12">7</text>
<line x1="549" y1="252" x2="487" y2="177" stroke="black" stroke-width="2" marker-end="url(#arrow)" />
<text x="518" y="214.5" font-family="sans-serif" font-size="12">8</text>
<line x1="549" y1="252" x2="454" y2="227" stroke="black" stroke-width="2" marker-end="url(#arrow)" />
<text x="501.5" y="239.5" font-family="sans-serif" font-size="12">9</text>
<line x1="487" y1="177" x2="385" y2="129" stroke="black" stroke-width="2" marker-end="url(#arrow)" />
<text x="436" y="153" font-family="sans-serif" font-size="12">10</text>
<line x1="385" y1="129" x2="339" y2="85" stroke="black" stroke-width="2" marker-end="url(#arrow)" />
<text x="362" y="107" font-family="sans-serif" font-size="12">11</text>
<line x1="244" y1="112" x2="324" y2="213" stroke="black" stroke-width="2" marker-end="url(#arrow)" />
<text x="284" y="162.5" font-family="sans-serif" font-size="12">12</text>
<line x1="324" y1="213" x2="262" y2="286" stroke="black" stroke-width="2" marker-end="url(#arrow)" />
<text x="293" y="249.5" font-family="sans-serif" font-size="12">13</text>
<line x1="339" y1="85" x2="244" y2="112" stroke="black" stroke-width="2" marker-end="url(#arrow)" />
<text x="291.5" y="98.5" font-family="sans-serif" font-size="12">14</text>
<line x1="324" y1="213" x2="230" y2="194" stroke="black" stroke-width="2" marker-end="url(#arrow)" />
<text x="277" y="203.5" font-family="sans-serif" font-size="12">15</text>
<line x1="262" y1="286" x2="175" y2="326" stroke="black" stroke-width="2" marker-end="url(#arrow)" />
<text x="218.5" y="306" font-family="sans-serif" font-size="12">16</text>
<line x1="244" y1="112" x2="150" y2="144" stroke="black" stroke-width="2" marker-end="url(#arrow)" />
<text x="197" y="128" font-family="sans-serif" font-size="12">17</text>
<line x1="150" y1="144" x2="105" y2="200" stroke="black" stroke-width="2" marker-end="url(#arrow)" />
<text x="127.5" y="172" font-family="sans-serif" font-size="12">18</text>
<line x1="262" y1="286" x2="174" y2="224" stroke="black" stroke-width="2" marker-end="url(#arrow)" />
<text x="218" y="255" font-family="sans-serif" font-size="12">19</text>
<line x1="662" y1="291" x2="608" y2="310" stroke="black" stroke-width="2" marker-end="url(#arrow)" />
<text x="635" y="300.5" font-family="sans-serif" font-size="12">20</text>
<line x1="608" y1="155" x2="608" y2="310" stroke="black" stroke-width="2" marker-end="url(#arrow)" />
<text x="608" y="232.5" font-family="sans-serif" font-size="12">21</text>
<line x1="230" y1="194" x2="244" y2="112" stroke="black" stroke-width="2" marker-end="url(#arrow)" />
<text x="237" y="153" font-family="sans-serif" font-size="12">22</text>
<line x1="230" y1="194" x2="150" y2="144" stroke="black" stroke-width="2" marker-end="url(#arrow)" />
<text x="190" y="169" font-family="sans-serif" font-size="12">23</text>
<line x1="150" y1="144" x2="174" y2="224" stroke="black" stroke-width="2" marker-end="url(#arrow)" />
<text x="162" y="184" font-family="sans-serif" font-size="12">24</text>
<line x1="486" y1="327" x2="422" y2="279" stroke="black" stroke-width="2" marker-end="url(#arrow)" />
<text x="454" y="303" font-family="sans-serif" font-size="12">25</text>
<line x1="486" y1="327" x2="389" y2="327" stroke="black" stroke-width="2" marker-end="url(#arrow)" />
<text x="437.5" y="327" font-family="sans-serif" font-size="12">26</text>
<line x1="422" y1="279" x2="390" y2="219" stroke="black" stroke-width="2" marker-end="url(#arrow)" />
<text x="406" y="249" font-family="sans-serif" font-size="12">27</text>
<line x1="422" y1="279" x2="358" y2="268" stroke="black" stroke-width="2" marker-end="url(#arrow)" />
<text x="390" y="273.5" font-family="sans-serif" font-size="12">28</text>
<line x1="389" y1="327" x2="308" y2="324" stroke="black" stroke-width="2" marker-end="url(#arrow)" />
<text x="348.5" y="325.5" font-family="sans-serif" font-size="12">29</text>
<line x1="390" y1="219" x2="385" y2="129" stroke="black" stroke-width="2" marker-end="url(#arrow)" />
<text x="387.5" y="174" font-family="sans-serif" font-size="12">30</text>
<line x1="358" y1="268" x2="324" y2="213" stroke="black" stroke-width="2" marker-end="url(#arrow)" />
<text x="341" y="240.5" font-family="sans-serif" font-size="12">31</text>
<line x1="308" y1="324" x2="324" y2="213" stroke="black" stroke-width="2" marker-end="url(#arrow)" />
<text x="316" y="268.5" font-family="sans-serif" font-size="12">32</text>
<circle cx="549" cy="94" r="4" style="fill:#dd0;"/>
<text x="549" y="110" style="fill:#dd0" font-family="sans-serif" font-size="16">1</text>
<circle cx="105" cy="200" r="4" style="fill:#d00;"/>
<text x="105" y="216" style="fill:#d00" font-family="sans-serif" font-size="16">R</text>
<circle cx="174" cy="224" r="4" style="fill:#d00;"/>
<text x="174" y="240" style="fill:#d00" font-family="sans-serif" font-size="16">U</text>
<circle cx="150" cy="144" r="4" style="fill:#d00;"/>
<text x="150" y="160" style="fill:#d00" font-family="sans-serif" font-size="16">Q</text>
<circle cx="175" cy="326" r="4" style="fill:#d00;"/>
<text x="175" y="342" style="fill:#d00" font-family="sans-serif" font-size="16">P</text>
<circle cx="262" cy="286" r="4" style="fill:#d00;"/>
<text x="262" y="302" style="fill:#d00" font-family="sans-serif" font-size="16">M</text>
<circle cx="230" cy="194" r="4" style="fill:#d00;"/>
<text x="230" y="210" style="fill:#d00" font-family="sans-serif" font-size="16">O</text>
<circle cx="244" cy="112" r="4" style="fill:#d00;"/>
<text x="244" y="128" style="fill:#d00" font-family="sans-serif" font-size="16">N</text>
<circle cx="324" cy="213" r="4" style="fill:#d00;"/>
<text x="324" y="229" style="fill:#d00" font-family="sans-serif" font-size="16">L</text>
<circle cx="339" cy="85" r="4" style="fill:#d00;"/>
<text x="339" y="101" style="fill:#d00" font-family="sans-serif" font-size="16">K</text>
<circle cx="385" cy="129" r="4" style="fill:#d00;"/>
<text x="385" y="145" style="fill:#d00" font-family="sans-serif" font-size="16">J</text>
<circle cx="454" cy="227" r="4" style="fill:#d00;"/>
<text x="454" y="243" style="fill:#d00" font-family="sans-serif" font-size="16">I</text>
<circle cx="487" cy="177" r="4" style="fill:#d00;"/>
<text x="487" y="193" style="fill:#d00" font-family="sans-serif" font-size="16">H</text>
<circle cx="545" cy="157" r="4" style="fill:#d00;"/>
<text x="545" y="173" style="fill:#d00" font-family="sans-serif" font-size="16">G</text>
<circle cx="549" cy="252" r="4" style="fill:#d00;"/>
<text x="549" y="268" style="fill:#d00" font-family="sans-serif" font-size="16">F</text>
<circle cx="532" cy="310" r="4" style="fill:#d00;"/>
<text x="532" y="326" style="fill:#d00" font-family="sans-serif" font-size="16">E</text>
<circle cx="608" cy="310" r="4" style="fill:#d00;"/>
<text x="608" y="326" style="fill:#d00" font-family="sans-serif" font-size="16">D</text>
<circle cx="662" cy="291" r="4" style="fill:#d00;"/>
<text x="662" y="307" style="fill:#d00" font-family="sans-serif" font-size="16">B</text>
<circle cx="662" cy="212" r="4" style="fill:#d00;"/>
<text x="662" y="228" style="fill:#d00" font-family="sans-serif" font-size="16">A</text>
<circle cx="608" cy="155" r="4" style="fill:#d00;"/>
<text x="608" y="171" style="fill:#d00" font-family="sans-serif" font-size="16">C</text>
<circle cx="390" cy="219" r="4" style="fill:#d00;"/>
<text x="390" y="235" style="fill:#d00" font-family="sans-serif" font-size="16">V</text>
<circle cx="422" cy="279" r="4" style="fill:#d00;"/>
<text x="422" y="295" style="fill:#d00" font-family="sans-serif" font-size="16">S</text>
<circle cx="486" cy="327" r="4" style="fill:#dd0;"/>
<text x="486" y="343" style="fill:#dd0" font-family="sans-serif" font-size="16">2</text>
<circle cx="358" cy="268" r="4" style="fill:#d00;"/>
<text x="358" y="284" style="fill:#d00" font-family="sans-serif" font-size="16">W</text>
<circle cx="308" cy="324" r="4" style="fill:#d00;"/>
<text x="308" y="340" style="fill:#d00" font-family="sans-serif" font-size="16">X</text>
<circle cx="389" cy="327" r="4" style="fill:#d00;"/>
<text x="389" y="343" style="fill:#d00" font-family="sans-serif" font-size="16">T</text>
</svg>