<?xml version="1.0"?>
<svg version="1.1" xmlns="http://www.w3.org/2000/svg" xmlns:xlink="http://www.w3.org/1999/xlink"
     width="800" height="480">

<defs>
  <marker id="arrow" refX="7" refY="2" markerWidth="6" markerHeight="9" orient="auto" markerUnits="strokeWidth">
    <path d="M0,0 L0,4 L7,2 z" fill="#000" />
  </marker>
</defs>
<line x1="667" y1="257" x2="557" y2="257" stroke="black" stroke-width="2" marker-end="url(#arrow)" />
<text x="612" y="257" font-family="sans-serif" font-size="12">1</text>
<line x1="610" y1="199" x2="566" y2="156" stroke="black" stroke-width="2" marker-end="url(#arrow)" />
<text x="588" y="177.5" font-family="sans-serif" font-size="12">2</text>
<line x1="566" y1="156" x2="510" y2="105" stroke="black" stroke-width="2" marker-end="url(#arrow)" />
<text x="538" y="130.5" font-family="sans-serif" font-size="12">3</text>
<line x1="557" y1="257" x2="489" y2="289" stroke="black" stroke-width="2" marker-end="url(#arrow)" />
<text x="523" y="273" font-family="sans-serif" font-size="12">4</text>
<line x1="557" y1="257" x2="493" y2="215" stroke="black" stroke-width="2" marker-end="url(#arrow)" />
<text x="525" y="236" font-family="sans-serif" font-size="12">5</text>
<line x1="510" y1="105" x2="433" y2="124" stroke="black" stroke-width="2" marker-end="url(#arrow)" />
<text x="471.5" y="114.5" font-family="sans-serif" font-size="12">6</text>
<line x1="489" y1="289" x2="419" y2="321" stroke="black" stroke-width="2" marker-end="url(#arrow)" />
<text x="454" y="305" font-family="sans-serif" font-size="12">7</text>
<line x1="493" y1="215" x2="400" y2="227" stroke="black" stroke-width="2" marker-end="url(#arrow)" />
<text x="446.5" y="221" font-family="sans-serif" font-size="12">8</text>
<line x1="400" y1="227" x2="347" y2="200" stroke="black" stroke-width="2" marker-end="url(#arrow)" />
<text x="373.5" y="213.5" font-family="sans-serif" font-size="12">9</text>
<line x1="347" y1="200" x2="293" y2="169" stroke="black" stroke-width="2" marker-end="url(#arrow)" />
<text x="320" y="184.5" font-family="sans-serif" font-size="12">10</text>
<line x1="419" y1="321" x2="291" y2="304" stroke="black" stroke-width="2" marker-end="url(#arrow)" />
<text x="355" y="312.5" font-family="sans-serif" font-size="12">11</text>
<line x1="419" y1="321" x2="287" y2="244" stroke="black" stroke-width="2" marker-end="url(#arrow)" />
<text x="353" y="282.5" font-family="sans-serif" font-size="12">12</text>
<line x1="293" y1="169" x2="208" y2="121" stroke="black" stroke-width="2" marker-end="url(#arrow)" />
<text x="250.5" y="145" font-family="sans-serif" font-size="12">13</text>
<line x1="291" y1="304" x2="203" y2="337.5" stroke="black" stroke-width="2" marker-end="url(#arrow)" />
<text x="247" y="320.75" font-family="sans-serif" font-size="12">14</text>
<line x1="293" y1="169" x2="189" y2="191" stroke="black" stroke-width="2" marker-end="url(#arrow)" />
<text x="241" y="180" font-family="sans-serif" font-size="12">15</text>
<line x1="291" y1="304" x2="158" y2="284.5" stroke="black" stroke-width="2" marker-end="url(#arrow)" />
<text x="224.5" y="294.25" font-family="sans-serif" font-size="12">16</text>
<line x1="208" y1="121" x2="132" y2="81" stroke="black" stroke-width="2" marker-end="url(#arrow)" />
<text x="170" y="101" font-family="sans-serif" font-size="12">17</text>
<line x1="493" y1="215" x2="433" y2="124" stroke="black" stroke-width="2" marker-end="url(#arrow)" />
<text x="463" y="169.5" font-family="sans-serif" font-size="12">18</text>
<line x1="400" y1="227" x2="419" y2="321" stroke="black" stroke-width="2" marker-end="url(#arrow)" />
<text x="409.5" y="274" font-family="sans-serif" font-size="12">19</text>
<line x1="433" y1="124" x2="400" y2="227" stroke="black" stroke-width="2" marker-end="url(#arrow)" />
<text x="416.5" y="175.5" font-family="sans-serif" font-size="12">20</text>
<line x1="400" y1="227" x2="287" y2="244" stroke="black" stroke-width="2" marker-end="url(#arrow)" />
<text x="343.5" y="235.5" font-family="sans-serif" font-size="12">21</text>
<line x1="291" y1="304" x2="287" y2="244" stroke="black" stroke-width="2" marker-end="url(#arrow)" />
<text x="289" y="274" font-family="sans-serif" font-size="12">22</text>
<line x1="287" y1="244" x2="189" y2="191" stroke="black" stroke-width="2" marker-end="url(#arrow)" />
<text x="238" y="217.5" font-family="sans-serif" font-size="12">23</text>
<line x1="287" y1="244" x2="158" y2="284.5" stroke="black" stroke-width="2" marker-end="url(#arrow)" />
<text x="222.5" y="264.25" font-family="sans-serif" font-size="12">24</text>
<line x1="433" y1="124" x2="344" y2="92" stroke="black" stroke-width="2" marker-end="url(#arrow)" />
<text x="388.5" y="108" font-family="sans-serif" font-size="12">26</text>
<line x1="344" y1="92" x2="270" y2="82" stroke="black" stroke-width="2" marker-end="url(#arrow)" />
<text x="307" y="87" font-family="sans-serif" font-size="12">27</text>
<line x1="208" y1="121" x2="117" y2="156" stroke="black" stroke-width="2" marker-end="url(#arrow)" />
<text x="162.5" y="138.5" font-family="sans-serif" font-size="12">28</text>
<line x1="344" y1="92" x2="293" y2="169" stroke="black" stroke-width="2" marker-end="url(#arrow)" />
<text x="318.5" y="130.5" font-family="sans-serif" font-size="12">29</text>
<line x1="270" y1="82" x2="208" y2="121" stroke="black" stroke-width="2" marker-end="url(#arrow)" />
<text x="239" y="101.5" font-family="sans-serif" font-size="12">30</text>
<circle cx="667" cy="257" r="4" style="fill:#dd0;"/>
<text x="667" y="273" style="fill:#dd0" font-family="sans-serif" font-size="16">1</text>
<circle cx="610" cy="199" r="4" style="fill:#dd0;"/>
<text x="610" y="215" style="fill:#dd0" font-family="sans-serif" font-size="16">2</text>
<circle cx="132" cy="81" r="4" style="fill:#d00;"/>
<text x="132" y="97" style="fill:#d00" font-family="sans-serif" font-size="16">S</text>
<circle cx="208" cy="121" r="4" style="fill:#d00;"/>
<text x="208" y="137" style="fill:#d00" font-family="sans-serif" font-size="16">O</text>
<circle cx="189" cy="191" r="4" style="fill:#d00;"/>
<text x="189" y="207" style="fill:#d00" font-family="sans-serif" font-size="16">Q</text>
<circle cx="158" cy="284.5" r="4" style="fill:#d00;"/>
<text x="158" y="300.5" style="fill:#d00" font-family="sans-serif" font-size="16">R</text>
<circle cx="203" cy="337.5" r="4" style="fill:#d00;"/>
<text x="203" y="353.5" style="fill:#d00" font-family="sans-serif" font-size="16">P</text>
<circle cx="293" cy="169" r="4" style="fill:#d00;"/>
<text x="293" y="185" style="fill:#d00" font-family="sans-serif" font-size="16">K</text>
<circle cx="287" cy="244" r="4" style="fill:#d00;"/>
<text x="287" y="260" style="fill:#d00" font-family="sans-serif" font-size="16">M</text>
<circle cx="291" cy="304" r="4" style="fill:#d00;"/>
<text x="291" y="320" style="fill:#d00" font-family="sans-serif" font-size="16">L</text>
<circle cx="347" cy="200" r="4" style="fill:#d00;"/>
<text x="347" y="216" style="fill:#d00" font-family="sans-serif" font-size="16">I</text>
<circle cx="419" cy="321" r="4" style="fill:#d00;"/>
<text x="419" y="337" style="fill:#d00" font-family="sans-serif" font-size="16">G</text>
<circle cx="400" cy="227" r="4" style="fill:#d00;"/>
<text x="400" y="243" style="fill:#d00" font-family="sans-serif" font-size="16">H</text>
<circle cx="433" cy="124" r="4" style="fill:#d00;"/>
<text x="433" y="140" style="fill:#d00" font-family="sans-serif" font-size="16">F</text>
<circle cx="510" cy="105" r="4" style="fill:#d00;"/>
<text x="510" y="121" style="fill:#d00" font-family="sans-serif" font-size="16">C</text>
<circle cx="566" cy="156" r="4" style="fill:#d00;"/>
<text x="566" y="172" style="fill:#d00" font-family="sans-serif" font-size="16">B</text>
<circle cx="493" cy="215" r="4" style="fill:#d00;"/>
<text x="493" y="231" style="fill:#d00" font-family="sans-serif" font-size="16">E</text>
<circle cx="489" cy="289" r="4" style="fill:#d00;"/>
<text x="489" y="305" style="fill:#d00" font-family="sans-serif" font-size="16">D</text>
<circle cx="557" cy="257" r="4" style="fill:#d00;"/>
<text x="557" y="273" style="fill:#d00" font-family="sans-serif" font-size="16">A</text>
<circle cx="344" cy="92" r="4" style="fill:#d00;"/>
<text x="344" y="108" style="fill:#d00" font-family="sans-serif" font-size="16">J</text>
<circle cx="270" cy="82" r="4" style="fill:#d00;"/>
<text x="270" y="98" style="fill:#d00" font-family="sans-serif" font-size="16">N</text>
<circle cx="117" cy="156" r="4" style="fill:#d00;"/>
<text x="117" y="172" style="fill:#d00" font-family="sans-serif" font-size="16">T</text>
</svg>