<?xml version="1.0"?>
<svg version="1.1" xmlns="http://www.w3.org/2000/svg" xmlns:xlink="http://www.w3.org/1999/xlink"
     width="800" height="480">

<defs>
  <marker id="arrow" refX="7" refY="2" markerWidth="6" markerHeight="9" orient="auto" markerUnits="strokeWidth">
    <path d="M0,0 L0,4 L7,2 z" fill="#000" />
  </marker>
</defs>
<line x1="179" y1="317" x2="88" y2="213" stroke="black" stroke-width="2" marker-end="url(#arrow)" />
<text x="133.5" y="265" font-family="sans-serif" font-size="12">1</text>
<line x1="88" y1="213" x2="105" y2="133" stroke="black" stroke-width="2" marker-end="url(#arrow)" />
<text x="96.5" y="173" font-family="sans-serif" font-size="12">2</text>
<line x1="105" y1="133" x2="197" y2="110" stroke="black" stroke-width="2" marker-end="url(#arrow)" />
<text x="151" y="121.5" font-family="sans-serif" font-size="12">3</text>
<line x1="179" y1="317" x2="232" y2="259" stroke="black" stroke-width="2" marker-end="url(#arrow)" />
<text x="205.5" y="288" font-family="sans-serif" font-size="12">4</text>
<line x1="197" y1="110" x2="242" y2="191" stroke="black" stroke-width="2" marker-end="url(#arrow)" />
<text x="219.5" y="150.5" font-family="sans-serif" font-size="12">5</text>
<line x1="197" y1="110" x2="298" y2="86" stroke="black" stroke-width="2" marker-end="url(#arrow)" />
<text x="247.5" y="98" font-family="sans-serif" font-size="12">6</text>
<line x1="232" y1="259" x2="315" y2="248" stroke="black" stroke-width="2" marker-end="url(#arrow)" />
<text x="273.5" y="253.5" font-family="sans-serif" font-size="12">7</text>
<line x1="242" y1="191" x2="344" y2="110" stroke="black" stroke-width="2" marker-end="url(#arrow)" />
<text x="293" y="150.5" font-family="sans-serif" font-size="12">8</text>
<line x1="344" y1="110" x2="410" y2="134" stroke="black" stroke-width="2" marker-end="url(#arrow)" />
<text x="377" y="122" font-family="sans-serif" font-size="12">9</text>
<line x1="315" y1="248" x2="416" y2="253" stroke="black" stroke-width="2" marker-end="url(#arrow)" />
<text x="365.5" y="250.5" font-family="sans-serif" font-size="12">10</text>
<line x1="495" y1="218" x2="497" y2="158" stroke="black" stroke-width="2" marker-end="url(#arrow)" />
<text x="496" y="188" font-family="sans-serif" font-size="12">11</text>
<line x1="416" y1="253" x2="495" y2="218" stroke="black" stroke-width="2" marker-end="url(#arrow)" />
<text x="455.5" y="235.5" font-family="sans-serif" font-size="12">12</text>
<line x1="497" y1="158" x2="515" y2="86" stroke="black" stroke-width="2" marker-end="url(#arrow)" />
<text x="506" y="122" font-family="sans-serif" font-size="12">13</text>
<line x1="416" y1="253" x2="522" y2="313" stroke="black" stroke-width="2" marker-end="url(#arrow)" />
<text x="469" y="283" font-family="sans-serif" font-size="12">14</text>
<line x1="495" y1="218" x2="573" y2="231" stroke="black" stroke-width="2" marker-end="url(#arrow)" />
<text x="534" y="224.5" font-family="sans-serif" font-size="12">15</text>
<line x1="573" y1="231" x2="630" y2="134" stroke="black" stroke-width="2" marker-end="url(#arrow)" />
<text x="601.5" y="182.5" font-family="sans-serif" font-size="12">16</text>
<line x1="522" y1="313" x2="649" y2="284" stroke="black" stroke-width="2" marker-end="url(#arrow)" />
<text x="585.5" y="298.5" font-family="sans-serif" font-size="12">17</text>
<line x1="232" y1="259" x2="88" y2="213" stroke="black" stroke-width="2" marker-end="url(#arrow)" />
<text x="160" y="236" font-family="sans-serif" font-size="12">18</text>
<line x1="497" y1="158" x2="410" y2="134" stroke="black" stroke-width="2" marker-end="url(#arrow)" />
<text x="453.5" y="146" font-family="sans-serif" font-size="12">19</text>
<line x1="630" y1="134" x2="497" y2="158" stroke="black" stroke-width="2" marker-end="url(#arrow)" />
<text x="563.5" y="146" font-family="sans-serif" font-size="12">20</text>
<line x1="522" y1="313" x2="573" y2="231" stroke="black" stroke-width="2" marker-end="url(#arrow)" />
<text x="547.5" y="272" font-family="sans-serif" font-size="12">21</text>
<line x1="649" y1="284" x2="630" y2="134" stroke="black" stroke-width="2" marker-end="url(#arrow)" />
<text x="639.5" y="209" font-family="sans-serif" font-size="12">22</text>
<circle cx="179" cy="317" r="4" style="fill:#dd0;"/>
<text x="179" y="333" style="fill:#dd0" font-family="sans-serif" font-size="16">1</text>
<circle cx="88" cy="213" r="4" style="fill:#d00;"/>
<text x="88" y="229" style="fill:#d00" font-family="sans-serif" font-size="16">A</text>
<circle cx="105" cy="133" r="4" style="fill:#d00;"/>
<text x="105" y="149" style="fill:#d00" font-family="sans-serif" font-size="16">B</text>
<circle cx="197" cy="110" r="4" style="fill:#d00;"/>
<text x="197" y="126" style="fill:#d00" font-family="sans-serif" font-size="16">C</text>
<circle cx="232" cy="259" r="4" style="fill:#d00;"/>
<text x="232" y="275" style="fill:#d00" font-family="sans-serif" font-size="16">D</text>
<circle cx="242" cy="191" r="4" style="fill:#d00;"/>
<text x="242" y="207" style="fill:#d00" font-family="sans-serif" font-size="16">E</text>
<circle cx="298" cy="86" r="4" style="fill:#d00;"/>
<text x="298" y="102" style="fill:#d00" font-family="sans-serif" font-size="16">F</text>
<circle cx="344" cy="110" r="4" style="fill:#d00;"/>
<text x="344" y="126" style="fill:#d00" font-family="sans-serif" font-size="16">H</text>
<circle cx="315" cy="248" r="4" style="fill:#d00;"/>
<text x="315" y="264" style="fill:#d00" font-family="sans-serif" font-size="16">G</text>
<circle cx="410" cy="134" r="4" style="fill:#d00;"/>
<text x="410" y="150" style="fill:#d00" font-family="sans-serif" font-size="16">I</text>
<circle cx="416" cy="253" r="4" style="fill:#d00;"/>
<text x="416" y="269" style="fill:#d00" font-family="sans-serif" font-size="16">J</text>
<circle cx="495" cy="218" r="4" style="fill:#d00;"/>
<text x="495" y="234" style="fill:#d00" font-family="sans-serif" font-size="16">L</text>
<circle cx="522" cy="313" r="4" style="fill:#d00;"/>
<text x="522" y="329" style="fill:#d00" font-family="sans-serif" font-size="16">N</text>
<circle cx="573" cy="231" r="4" style="fill:#d00;"/>
<text x="573" y="247" style="fill:#d00" font-family="sans-serif" font-size="16">O</text>
<circle cx="649" cy="284" r="4" style="fill:#d00;"/>
<text x="649" y="300" style="fill:#d00" font-family="sans-serif" font-size="16">Q</text>
<circle cx="630" cy="134" r="4" style="fill:#d00;"/>
<text x="630" y="150" style="fill:#d00" font-family="sans-serif" font-size="16">P</text>
<circle cx="497" cy="158" r="4" style="fill:#d00;"/>
<text x="497" y="174" style="fill:#d00" font-family="sans-serif" font-size="16">K</text>
<circle cx="515" cy="86" r="4" style="fill:#d00;"/>
<text x="515" y="102" style="fill:#d00" font-family="sans-serif" font-size="16">M</text>
</svg>