<?xml version="1.0"?>
<svg version="1.1" xmlns="http://www.w3.org/2000/svg" xmlns:xlink="http://www.w3.org/1999/xlink"
     width="800" height="480">

<defs>
  <marker id="arrow" refX="7" refY="2" markerWidth="6" markerHeight="9" orient="auto" markerUnits="strokeWidth">
    <path d="M0,0 L0,4 L7,2 z" fill="#000" />
  </marker>
</defs>
<line x1="113" y1="257" x2="53" y2="230" stroke="black" stroke-width="2" marker-end="url(#arrow)" />
<text x="83" y="243.5" font-family="sans-serif" font-size="12">1</text>
<line x1="53" y1="230" x2="71" y2="155" stroke="black" stroke-width="2" marker-end="url(#arrow)" />
<text x="62" y="192.5" font-family="sans-serif" font-size="12">2</text>
<line x1="71" y1="155" x2="91" y2="81" stroke="black" stroke-width="2" marker-end="url(#arrow)" />
<text x="81" y="118" font-family="sans-serif" font-size="12">3</text>
<line x1="71" y1="155" x2="122" y2="111" stroke="black" stroke-width="2" marker-end="url(#arrow)" />
<text x="96.5" y="133" font-family="sans-serif" font-size="12">4</text>
<line x1="122" y1="111" x2="160" y2="152" stroke="black" stroke-width="2" marker-end="url(#arrow)" />
<text x="141" y="131.5" font-family="sans-serif" font-size="12">5</text>
<line x1="113" y1="257" x2="181" y2="256" stroke="black" stroke-width="2" marker-end="url(#arrow)" />
<text x="147" y="256.5" font-family="sans-serif" font-size="12">6</text>
<line x1="181" y1="256" x2="251" y2="323" stroke="black" stroke-width="2" marker-end="url(#arrow)" />
<text x="216" y="289.5" font-family="sans-serif" font-size="12">7</text>
<line x1="251" y1="323" x2="309" y2="259" stroke="black" stroke-width="2" marker-end="url(#arrow)" />
<text x="280" y="291" font-family="sans-serif" font-size="12">8</text>
<line x1="251" y1="323" x2="367" y2="324" stroke="black" stroke-width="2" marker-end="url(#arrow)" />
<text x="309" y="323.5" font-family="sans-serif" font-size="12">9</text>
<line x1="476" y1="112" x2="392" y2="91" stroke="black" stroke-width="2" marker-end="url(#arrow)" />
<text x="434" y="101.5" font-family="sans-serif" font-size="12">10</text>
<line x1="309" y1="259" x2="423" y2="247" stroke="black" stroke-width="2" marker-end="url(#arrow)" />
<text x="366" y="253" font-family="sans-serif" font-size="12">11</text>
<line x1="503" y1="239" x2="452" y2="185" stroke="black" stroke-width="2" marker-end="url(#arrow)" />
<text x="477.5" y="212" font-family="sans-serif" font-size="12">12</text>
<line x1="367" y1="324" x2="466" y2="324" stroke="black" stroke-width="2" marker-end="url(#arrow)" />
<text x="416.5" y="324" font-family="sans-serif" font-size="12">13</text>
<line x1="509" y1="178" x2="476" y2="112" stroke="black" stroke-width="2" marker-end="url(#arrow)" />
<text x="492.5" y="145" font-family="sans-serif" font-size="12">14</text>
<line x1="423" y1="247" x2="503" y2="239" stroke="black" stroke-width="2" marker-end="url(#arrow)" />
<text x="463" y="243" font-family="sans-serif" font-size="12">15</text>
<line x1="452" y1="185" x2="509" y2="178" stroke="black" stroke-width="2" marker-end="url(#arrow)" />
<text x="480.5" y="181.5" font-family="sans-serif" font-size="12">16</text>
<line x1="423" y1="247" x2="555" y2="291" stroke="black" stroke-width="2" marker-end="url(#arrow)" />
<text x="489" y="269" font-family="sans-serif" font-size="12">17</text>
<line x1="476" y1="112" x2="556" y2="88" stroke="black" stroke-width="2" marker-end="url(#arrow)" />
<text x="516" y="100" font-family="sans-serif" font-size="12">18</text>
<line x1="555" y1="291" x2="643" y2="258" stroke="black" stroke-width="2" marker-end="url(#arrow)" />
<text x="599" y="274.5" font-family="sans-serif" font-size="12">19</text>
<line x1="91" y1="81" x2="122" y2="111" stroke="black" stroke-width="2" marker-end="url(#arrow)" />
<text x="106.5" y="96" font-family="sans-serif" font-size="12">20</text>
<line x1="367" y1="324" x2="423" y2="247" stroke="black" stroke-width="2" marker-end="url(#arrow)" />
<text x="395" y="285.5" font-family="sans-serif" font-size="12">21</text>
<line x1="555" y1="291" x2="503" y2="239" stroke="black" stroke-width="2" marker-end="url(#arrow)" />
<text x="529" y="265" font-family="sans-serif" font-size="12">22</text>
<line x1="466" y1="324" x2="555" y2="291" stroke="black" stroke-width="2" marker-end="url(#arrow)" />
<text x="510.5" y="307.5" font-family="sans-serif" font-size="12">23</text>
<line x1="509" y1="178" x2="556" y2="88" stroke="black" stroke-width="2" marker-end="url(#arrow)" />
<text x="532.5" y="133" font-family="sans-serif" font-size="12">24</text>
<line x1="509" y1="178" x2="599" y2="186" stroke="black" stroke-width="2" marker-end="url(#arrow)" />
<text x="554" y="182" font-family="sans-serif" font-size="12">25</text>
<line x1="555" y1="291" x2="599" y2="186" stroke="black" stroke-width="2" marker-end="url(#arrow)" />
<text x="577" y="238.5" font-family="sans-serif" font-size="12">26</text>
<circle cx="113" cy="257" r="4" style="fill:#dd0;"/>
<text x="113" y="269" style="fill:#dd0" font-family="sans-serif" font-size="12">2260_5140</text>
<circle cx="160" cy="152" r="4" style="fill:#d00;"/>
<text x="160" y="164" style="fill:#d00" font-family="sans-serif" font-size="12">3200_3040(99)</text>
<circle cx="122" cy="111" r="4" style="fill:#d00;"/>
<text x="122" y="123" style="fill:#d00" font-family="sans-serif" font-size="12">2440_2220(1)</text>
<circle cx="91" cy="81" r="4" style="fill:#d00;"/>
<text x="91" y="93" style="fill:#d00" font-family="sans-serif" font-size="12">1820_1620(2)</text>
<circle cx="71" cy="155" r="4" style="fill:#d00;"/>
<text x="71" y="167" style="fill:#d00" font-family="sans-serif" font-size="12">1420_3100(1)</text>
<circle cx="53" cy="230" r="4" style="fill:#d00;"/>
<text x="53" y="242" style="fill:#d00" font-family="sans-serif" font-size="12">1060_4600(1)</text>
<circle cx="181" cy="256" r="4" style="fill:#d00;"/>
<text x="181" y="268" style="fill:#d00" font-family="sans-serif" font-size="12">3620_5120(1)</text>
<circle cx="251" cy="323" r="4" style="fill:#d00;"/>
<text x="251" y="335" style="fill:#d00" font-family="sans-serif" font-size="12">5020_6460(2)</text>
<circle cx="309" cy="259" r="4" style="fill:#d00;"/>
<text x="309" y="271" style="fill:#d00" font-family="sans-serif" font-size="12">6180_5180(2)</text>
<circle cx="367" cy="324" r="4" style="fill:#d00;"/>
<text x="367" y="336" style="fill:#d00" font-family="sans-serif" font-size="12">7340_6480(3)</text>
<circle cx="423" cy="247" r="4" style="fill:#d00;"/>
<text x="423" y="259" style="fill:#d00" font-family="sans-serif" font-size="12">8460_4940(3)</text>
<circle cx="466" cy="324" r="4" style="fill:#d00;"/>
<text x="466" y="336" style="fill:#d00" font-family="sans-serif" font-size="12">9320_6480(4)</text>
<circle cx="555" cy="291" r="4" style="fill:#d00;"/>
<text x="555" y="303" style="fill:#d00" font-family="sans-serif" font-size="12">11100_5820(5)</text>
<circle cx="503" cy="239" r="4" style="fill:#d00;"/>
<text x="503" y="251" style="fill:#d00" font-family="sans-serif" font-size="12">10060_4780(4)</text>
<circle cx="643" cy="258" r="4" style="fill:#d00;"/>
<text x="643" y="270" style="fill:#d00" font-family="sans-serif" font-size="12">12860_5160(6)</text>
<circle cx="452" cy="185" r="4" style="fill:#d00;"/>
<text x="452" y="197" style="fill:#d00" font-family="sans-serif" font-size="12">9040_3700(3)</text>
<circle cx="509" cy="178" r="4" style="fill:#d00;"/>
<text x="509" y="190" style="fill:#d00" font-family="sans-serif" font-size="12">10180_3560(4)</text>
<circle cx="556" cy="88" r="4" style="fill:#d00;"/>
<text x="556" y="100" style="fill:#d00" font-family="sans-serif" font-size="12">11120_1760(5)</text>
<circle cx="476" cy="112" r="4" style="fill:#d00;"/>
<text x="476" y="124" style="fill:#d00" font-family="sans-serif" font-size="12">9520_2240(4)</text>
<circle cx="392" cy="91" r="4" style="fill:#d00;"/>
<text x="392" y="103" style="fill:#d00" font-family="sans-serif" font-size="12">7840_1820(3)</text>
<circle cx="599" cy="186" r="4" style="fill:#d00;"/>
<text x="599" y="198" style="fill:#d00" font-family="sans-serif" font-size="12">11980_3720(5)</text>
</svg>