<?xml version="1.0"?>
<svg version="1.1" xmlns="http://www.w3.org/2000/svg" xmlns:xlink="http://www.w3.org/1999/xlink" width="800" height="480">
<style type="text/css"> <![CDATA[
  .label {
    stroke: black;
    stroke-width: 0.3px;
  }
]]> </style>

<defs>
  <marker id="arrow" refX="7" refY="2" markerWidth="6" markerHeight="9" orient="auto" markerUnits="strokeWidth">
    <path d="M0,0 L0,4 L7,2 z" fill="#000" />
  </marker>
</defs>
<line x1="694" y1="310" x2="630" y2="277" stroke="black" stroke-width="2" marker-end="url(#arrow)" />
<text x="662" y="293.5" font-family="sans-serif" font-size="12">1</text>
<line x1="630" y1="277" x2="566" y2="239" stroke="black" stroke-width="2" marker-end="url(#arrow)" />
<text x="598" y="258" font-family="sans-serif" font-size="12">2</text>
<line x1="566" y1="239" x2="482" y2="317" stroke="black" stroke-width="2" marker-end="url(#arrow)" />
<text x="524" y="278" font-family="sans-serif" font-size="12">3</text>
<line x1="566" y1="239" x2="470" y2="182" stroke="black" stroke-width="2" marker-end="url(#arrow)" />
<text x="518" y="210.5" font-family="sans-serif" font-size="12">4</text>
<line x1="482" y1="317" x2="407" y2="236" stroke="black" stroke-width="2" marker-end="url(#arrow)" />
<text x="444.5" y="276.5" font-family="sans-serif" font-size="12">5</text>
<line x1="407" y1="236" x2="374" y2="181" stroke="black" stroke-width="2" marker-end="url(#arrow)" />
<text x="390.5" y="208.5" font-family="sans-serif" font-size="12">6</text>
<line x1="374" y1="181" x2="335" y2="115" stroke="black" stroke-width="2" marker-end="url(#arrow)" />
<text x="354.5" y="148" font-family="sans-serif" font-size="12">7</text>
<line x1="407" y1="236" x2="332" y2="300" stroke="black" stroke-width="2" marker-end="url(#arrow)" />
<text x="369.5" y="268" font-family="sans-serif" font-size="12">8</text>
<line x1="374" y1="181" x2="265" y2="250" stroke="black" stroke-width="2" marker-end="url(#arrow)" />
<text x="319.5" y="215.5" font-family="sans-serif" font-size="12">9</text>
<line x1="374" y1="181" x2="259" y2="197" stroke="black" stroke-width="2" marker-end="url(#arrow)" />
<text x="316.5" y="189" font-family="sans-serif" font-size="12">10</text>
<line x1="265" y1="250" x2="190" y2="190" stroke="black" stroke-width="2" marker-end="url(#arrow)" />
<text x="227.5" y="220" font-family="sans-serif" font-size="12">11</text>
<line x1="190" y1="190" x2="171" y2="264" stroke="black" stroke-width="2" marker-end="url(#arrow)" />
<text x="180.5" y="227" font-family="sans-serif" font-size="12">12</text>
<line x1="190" y1="190" x2="133" y2="126.05" stroke="black" stroke-width="2" marker-end="url(#arrow)" />
<text x="161.5" y="158.025" font-family="sans-serif" font-size="12">13</text>
<line x1="470" y1="182" x2="407" y2="236" stroke="black" stroke-width="2" marker-end="url(#arrow)" />
<text x="438.5" y="209" font-family="sans-serif" font-size="12">14</text>
<line x1="332" y1="300" x2="374" y2="181" stroke="black" stroke-width="2" marker-end="url(#arrow)" />
<text x="353" y="240.5" font-family="sans-serif" font-size="12">15</text>
<line x1="332" y1="300" x2="265" y2="250" stroke="black" stroke-width="2" marker-end="url(#arrow)" />
<text x="298.5" y="275" font-family="sans-serif" font-size="12">16</text>
<line x1="335" y1="115" x2="259" y2="197" stroke="black" stroke-width="2" marker-end="url(#arrow)" />
<text x="297" y="156" font-family="sans-serif" font-size="12">17</text>
<line x1="259" y1="197" x2="190" y2="190" stroke="black" stroke-width="2" marker-end="url(#arrow)" />
<text x="224.5" y="193.5" font-family="sans-serif" font-size="12">18</text>
<circle cx="694" cy="310" r="2" style="fill:#ff0;"/>
<text class="label" x="694" y="326" fill="#ff0" font-family="sans-serif" font-weight="bold" font-size="16">1</text>
<circle cx="133" cy="126.05" r="2" style="fill:#dd0;"/>
<text class="label" x="133" y="142.05" fill="#dd0" font-family="sans-serif" font-weight="bold" font-size="16">M</text>
<circle cx="171" cy="264" r="2" style="fill:#dd0;"/>
<text class="label" x="171" y="280" fill="#dd0" font-family="sans-serif" font-weight="bold" font-size="16">L</text>
<circle cx="190" cy="190" r="2" style="fill:#dd0;"/>
<text class="label" x="190" y="206" fill="#dd0" font-family="sans-serif" font-weight="bold" font-size="16">K</text>
<circle cx="265" cy="250" r="2" style="fill:#dd0;"/>
<text class="label" x="265" y="266" fill="#dd0" font-family="sans-serif" font-weight="bold" font-size="16">I</text>
<circle cx="259" cy="197" r="2" style="fill:#dd0;"/>
<text class="label" x="259" y="213" fill="#dd0" font-family="sans-serif" font-weight="bold" font-size="16">J</text>
<circle cx="335" cy="115" r="2" style="fill:#dd0;"/>
<text class="label" x="335" y="131" fill="#dd0" font-family="sans-serif" font-weight="bold" font-size="16">G</text>
<circle cx="374" cy="181" r="2" style="fill:#dd0;"/>
<text class="label" x="374" y="197" fill="#dd0" font-family="sans-serif" font-weight="bold" font-size="16">F</text>
<circle cx="332" cy="300" r="2" style="fill:#dd0;"/>
<text class="label" x="332" y="316" fill="#dd0" font-family="sans-serif" font-weight="bold" font-size="16">H</text>
<circle cx="407" cy="236" r="2" style="fill:#dd0;"/>
<text class="label" x="407" y="252" fill="#dd0" font-family="sans-serif" font-weight="bold" font-size="16">E</text>
<circle cx="470" cy="182" r="2" style="fill:#dd0;"/>
<text class="label" x="470" y="198" fill="#dd0" font-family="sans-serif" font-weight="bold" font-size="16">D</text>
<circle cx="482" cy="317" r="2" style="fill:#dd0;"/>
<text class="label" x="482" y="333" fill="#dd0" font-family="sans-serif" font-weight="bold" font-size="16">C</text>
<circle cx="566" cy="239" r="2" style="fill:#dd0;"/>
<text class="label" x="566" y="255" fill="#dd0" font-family="sans-serif" font-weight="bold" font-size="16">B</text>
<circle cx="630" cy="277" r="2" style="fill:#dd0;"/>
<text class="label" x="630" y="293" fill="#dd0" font-family="sans-serif" font-weight="bold" font-size="16">A</text>
</svg>