<?xml version="1.0"?>
<svg version="1.1" xmlns="http://www.w3.org/2000/svg" xmlns:xlink="http://www.w3.org/1999/xlink" width="800" height="480">
<style type="text/css"> <![CDATA[
  .label {
    stroke: black;
    stroke-width: 0.3px;
  }
]]> </style>

<defs>
  <marker id="arrow" refX="7" refY="2" markerWidth="6" markerHeight="9" orient="auto" markerUnits="strokeWidth">
    <path d="M0,0 L0,4 L7,2 z" fill="#000" />
  </marker>
</defs>
<line x1="184" y1="102" x2="119" y2="95" stroke="black" stroke-width="2" marker-end="url(#arrow)" />
<text x="151.5" y="98.5" font-family="sans-serif" font-size="12">1</text>
<line x1="218" y1="286" x2="136" y2="249" stroke="black" stroke-width="2" marker-end="url(#arrow)" />
<text x="177" y="267.5" font-family="sans-serif" font-size="12">2</text>
<line x1="274" y1="112" x2="184" y2="102" stroke="black" stroke-width="2" marker-end="url(#arrow)" />
<text x="229" y="107" font-family="sans-serif" font-size="12">3</text>
<line x1="338" y1="339" x2="218" y2="286" stroke="black" stroke-width="2" marker-end="url(#arrow)" />
<text x="278" y="312.5" font-family="sans-serif" font-size="12">4</text>
<line x1="315" y1="174" x2="274" y2="112" stroke="black" stroke-width="2" marker-end="url(#arrow)" />
<text x="294.5" y="143" font-family="sans-serif" font-size="12">5</text>
<line x1="377" y1="217" x2="315" y2="174" stroke="black" stroke-width="2" marker-end="url(#arrow)" />
<text x="346" y="195.5" font-family="sans-serif" font-size="12">6</text>
<line x1="434" y1="313" x2="338" y2="339" stroke="black" stroke-width="2" marker-end="url(#arrow)" />
<text x="386" y="326" font-family="sans-serif" font-size="12">7</text>
<line x1="434" y1="217" x2="434" y2="125" stroke="black" stroke-width="2" marker-end="url(#arrow)" />
<text x="434" y="171" font-family="sans-serif" font-size="12">8</text>
<line x1="377" y1="217" x2="434" y2="217" stroke="black" stroke-width="2" marker-end="url(#arrow)" />
<text x="405.5" y="217" font-family="sans-serif" font-size="12">9</text>
<line x1="434" y1="217" x2="434" y2="313" stroke="black" stroke-width="2" marker-end="url(#arrow)" />
<text x="434" y="265" font-family="sans-serif" font-size="12">10</text>
<line x1="434" y1="125" x2="509" y2="99" stroke="black" stroke-width="2" marker-end="url(#arrow)" />
<text x="471.5" y="112" font-family="sans-serif" font-size="12">11</text>
<line x1="434" y1="313" x2="531" y2="321" stroke="black" stroke-width="2" marker-end="url(#arrow)" />
<text x="482.5" y="317" font-family="sans-serif" font-size="12">12</text>
<line x1="509" y1="99" x2="547" y2="161" stroke="black" stroke-width="2" marker-end="url(#arrow)" />
<text x="528" y="130" font-family="sans-serif" font-size="12">13</text>
<line x1="531" y1="321" x2="593" y2="279" stroke="black" stroke-width="2" marker-end="url(#arrow)" />
<text x="562" y="300" font-family="sans-serif" font-size="12">14</text>
<line x1="593" y1="279" x2="641" y2="174.05" stroke="black" stroke-width="2" marker-end="url(#arrow)" />
<text x="617" y="226.525" font-family="sans-serif" font-size="12">15</text>
<line x1="184" y1="102" x2="149" y2="179" stroke="black" stroke-width="2" marker-end="url(#arrow)" />
<text x="166.5" y="140.5" font-family="sans-serif" font-size="12">16</text>
<line x1="218" y1="286" x2="149" y2="179" stroke="black" stroke-width="2" marker-end="url(#arrow)" />
<text x="183.5" y="232.5" font-family="sans-serif" font-size="12">17</text>
<line x1="509" y1="99" x2="497" y2="193" stroke="black" stroke-width="2" marker-end="url(#arrow)" />
<text x="503" y="146" font-family="sans-serif" font-size="12">18</text>
<line x1="531" y1="321" x2="630" y2="343" stroke="black" stroke-width="2" marker-end="url(#arrow)" />
<text x="580.5" y="332" font-family="sans-serif" font-size="12">19</text>
<line x1="630" y1="343" x2="713" y2="309" stroke="black" stroke-width="2" marker-end="url(#arrow)" />
<text x="671.5" y="326" font-family="sans-serif" font-size="12">20</text>
<line x1="593" y1="279" x2="630" y2="343" stroke="black" stroke-width="2" marker-end="url(#arrow)" />
<text x="611.5" y="311" font-family="sans-serif" font-size="12">21</text>
<circle cx="377" cy="217" r="2" style="fill:#ff0;"/>
<text class="label" x="377" y="233" fill="#ff0" font-family="sans-serif" font-weight="bold" font-size="16">1</text>
<circle cx="119" cy="95" r="2" style="fill:#dd0;"/>
<text class="label" x="119" y="111" fill="#dd0" font-family="sans-serif" font-weight="bold" font-size="16">A</text>
<circle cx="136" cy="249" r="2" style="fill:#dd0;"/>
<text class="label" x="136" y="265" fill="#dd0" font-family="sans-serif" font-weight="bold" font-size="16">B</text>
<circle cx="184" cy="102" r="2" style="fill:#dd0;"/>
<text class="label" x="184" y="118" fill="#dd0" font-family="sans-serif" font-weight="bold" font-size="16">C</text>
<circle cx="218" cy="286" r="2" style="fill:#dd0;"/>
<text class="label" x="218" y="302" fill="#dd0" font-family="sans-serif" font-weight="bold" font-size="16">D</text>
<circle cx="274" cy="112" r="2" style="fill:#dd0;"/>
<text class="label" x="274" y="128" fill="#dd0" font-family="sans-serif" font-weight="bold" font-size="16">E</text>
<circle cx="315" cy="174" r="2" style="fill:#dd0;"/>
<text class="label" x="315" y="190" fill="#dd0" font-family="sans-serif" font-weight="bold" font-size="16">F</text>
<circle cx="338" cy="339" r="2" style="fill:#dd0;"/>
<text class="label" x="338" y="355" fill="#dd0" font-family="sans-serif" font-weight="bold" font-size="16">G</text>
<circle cx="434" cy="125" r="2" style="fill:#dd0;"/>
<text class="label" x="434" y="141" fill="#dd0" font-family="sans-serif" font-weight="bold" font-size="16">H</text>
<circle cx="434" cy="217" r="2" style="fill:#dd0;"/>
<text class="label" x="434" y="233" fill="#dd0" font-family="sans-serif" font-weight="bold" font-size="16">I</text>
<circle cx="434" cy="313" r="2" style="fill:#dd0;"/>
<text class="label" x="434" y="329" fill="#dd0" font-family="sans-serif" font-weight="bold" font-size="16">J</text>
<circle cx="149" cy="179" r="2" style="fill:#dd0;"/>
<text class="label" x="149" y="195" fill="#dd0" font-family="sans-serif" font-weight="bold" font-size="16">P</text>
<circle cx="531" cy="321" r="2" style="fill:#dd0;"/>
<text class="label" x="531" y="337" fill="#dd0" font-family="sans-serif" font-weight="bold" font-size="16">L</text>
<circle cx="509" cy="99" r="2" style="fill:#dd0;"/>
<text class="label" x="509" y="115" fill="#dd0" font-family="sans-serif" font-weight="bold" font-size="16">K</text>
<circle cx="547" cy="161" r="2" style="fill:#dd0;"/>
<text class="label" x="547" y="177" fill="#dd0" font-family="sans-serif" font-weight="bold" font-size="16">M</text>
<circle cx="593" cy="279" r="2" style="fill:#dd0;"/>
<text class="label" x="593" y="295" fill="#dd0" font-family="sans-serif" font-weight="bold" font-size="16">N</text>
<circle cx="641" cy="174.05" r="2" style="fill:#dd0;"/>
<text class="label" x="641" y="190.05" fill="#dd0" font-family="sans-serif" font-weight="bold" font-size="16">O</text>
<circle cx="630" cy="343" r="2" style="fill:#dd0;"/>
<text class="label" x="630" y="359" fill="#dd0" font-family="sans-serif" font-weight="bold" font-size="16">R</text>
<circle cx="713" cy="309" r="2" style="fill:#dd0;"/>
<text class="label" x="713" y="325" fill="#dd0" font-family="sans-serif" font-weight="bold" font-size="16">S</text>
<circle cx="497" cy="193" r="2" style="fill:#dd0;"/>
<text class="label" x="497" y="209" fill="#dd0" font-family="sans-serif" font-weight="bold" font-size="16">Q</text>
</svg>