<?xml version="1.0"?>
<svg version="1.1" xmlns="http://www.w3.org/2000/svg" xmlns:xlink="http://www.w3.org/1999/xlink" width="800" height="480">
<style type="text/css"> <![CDATA[
  .label {
    stroke: black;
    stroke-width: 0.3px;
  }
]]> </style>

<defs>
  <marker id="arrow" refX="7" refY="2" markerWidth="6" markerHeight="9" orient="auto" markerUnits="strokeWidth">
    <path d="M0,0 L0,4 L7,2 z" fill="#000" />
  </marker>
</defs>
<line x1="713" y1="326" x2="655" y2="334" stroke="black" stroke-width="2" marker-end="url(#arrow)" />
<text x="684" y="330" font-family="sans-serif" font-size="12">1</text>
<line x1="655" y1="334" x2="621" y2="258" stroke="black" stroke-width="2" marker-end="url(#arrow)" />
<text x="638" y="296" font-family="sans-serif" font-size="12">2</text>
<line x1="655" y1="334" x2="582" y2="317" stroke="black" stroke-width="2" marker-end="url(#arrow)" />
<text x="618.5" y="325.5" font-family="sans-serif" font-size="12">3</text>
<line x1="621" y1="258" x2="520" y2="270" stroke="black" stroke-width="2" marker-end="url(#arrow)" />
<text x="570.5" y="264" font-family="sans-serif" font-size="12">4</text>
<line x1="582" y1="317" x2="484" y2="335" stroke="black" stroke-width="2" marker-end="url(#arrow)" />
<text x="533" y="326" font-family="sans-serif" font-size="12">5</text>
<line x1="520" y1="270" x2="463" y2="180" stroke="black" stroke-width="2" marker-end="url(#arrow)" />
<text x="491.5" y="225" font-family="sans-serif" font-size="12">6</text>
<line x1="520" y1="270" x2="459" y2="263" stroke="black" stroke-width="2" marker-end="url(#arrow)" />
<text x="489.5" y="266.5" font-family="sans-serif" font-size="12">7</text>
<line x1="463" y1="180" x2="419" y2="252" stroke="black" stroke-width="2" marker-end="url(#arrow)" />
<text x="441" y="216" font-family="sans-serif" font-size="12">8</text>
<line x1="484" y1="335" x2="356" y2="342" stroke="black" stroke-width="2" marker-end="url(#arrow)" />
<text x="420" y="338.5" font-family="sans-serif" font-size="12">9</text>
<line x1="582" y1="317" x2="520" y2="270" stroke="black" stroke-width="2" marker-end="url(#arrow)" />
<text x="551" y="293.5" font-family="sans-serif" font-size="12">10</text>
<line x1="459" y1="263" x2="463" y2="180" stroke="black" stroke-width="2" marker-end="url(#arrow)" />
<text x="461" y="221.5" font-family="sans-serif" font-size="12">11</text>
<line x1="484" y1="335" x2="459" y2="263" stroke="black" stroke-width="2" marker-end="url(#arrow)" />
<text x="471.5" y="299" font-family="sans-serif" font-size="12">12</text>
<line x1="356" y1="342" x2="459" y2="263" stroke="black" stroke-width="2" marker-end="url(#arrow)" />
<text x="407.5" y="302.5" font-family="sans-serif" font-size="12">13</text>
<line x1="327" y1="217" x2="354" y2="157" stroke="black" stroke-width="2" marker-end="url(#arrow)" />
<text x="340.5" y="187" font-family="sans-serif" font-size="12">14</text>
<line x1="356" y1="342" x2="327" y2="217" stroke="black" stroke-width="2" marker-end="url(#arrow)" />
<text x="341.5" y="279.5" font-family="sans-serif" font-size="12">15</text>
<line x1="354" y1="157" x2="293" y2="76" stroke="black" stroke-width="2" marker-end="url(#arrow)" />
<text x="323.5" y="116.5" font-family="sans-serif" font-size="12">16</text>
<line x1="327" y1="217" x2="251" y2="221" stroke="black" stroke-width="2" marker-end="url(#arrow)" />
<text x="289" y="219" font-family="sans-serif" font-size="12">17</text>
<line x1="251" y1="221" x2="232" y2="178" stroke="black" stroke-width="2" marker-end="url(#arrow)" />
<text x="241.5" y="199.5" font-family="sans-serif" font-size="12">18</text>
<line x1="293" y1="76" x2="208" y2="124" stroke="black" stroke-width="2" marker-end="url(#arrow)" />
<text x="250.5" y="100" font-family="sans-serif" font-size="12">19</text>
<line x1="251" y1="221" x2="175" y2="208" stroke="black" stroke-width="2" marker-end="url(#arrow)" />
<text x="213" y="214.5" font-family="sans-serif" font-size="12">20</text>
<line x1="175" y1="208" x2="164" y2="257" stroke="black" stroke-width="2" marker-end="url(#arrow)" />
<text x="169.5" y="232.5" font-family="sans-serif" font-size="12">21</text>
<line x1="208" y1="124" x2="138" y2="166.05" stroke="black" stroke-width="2" marker-end="url(#arrow)" />
<text x="173" y="145.025" font-family="sans-serif" font-size="12">22</text>
<line x1="175" y1="208" x2="101" y2="248" stroke="black" stroke-width="2" marker-end="url(#arrow)" />
<text x="138" y="228" font-family="sans-serif" font-size="12">23</text>
<line x1="376" y1="285" x2="327" y2="217" stroke="black" stroke-width="2" marker-end="url(#arrow)" />
<text x="351.5" y="251" font-family="sans-serif" font-size="12">24</text>
<line x1="232" y1="178" x2="208" y2="124" stroke="black" stroke-width="2" marker-end="url(#arrow)" />
<text x="220" y="151" font-family="sans-serif" font-size="12">25</text>
<line x1="232" y1="178" x2="175" y2="208" stroke="black" stroke-width="2" marker-end="url(#arrow)" />
<text x="203.5" y="193" font-family="sans-serif" font-size="12">26</text>
<line x1="138" y1="166.05" x2="175" y2="208" stroke="black" stroke-width="2" marker-end="url(#arrow)" />
<text x="156.5" y="187.025" font-family="sans-serif" font-size="12">27</text>
<circle cx="655" cy="334" r="2" style="fill:#dd0;"/>
<text class="label" x="655" y="350" fill="#dd0" font-family="sans-serif" font-weight="bold" font-size="16">A</text>
<circle cx="621" cy="258" r="2" style="fill:#dd0;"/>
<text class="label" x="621" y="274" fill="#dd0" font-family="sans-serif" font-weight="bold" font-size="16">B</text>
<circle cx="582" cy="317" r="2" style="fill:#dd0;"/>
<text class="label" x="582" y="333" fill="#dd0" font-family="sans-serif" font-weight="bold" font-size="16">C</text>
<circle cx="520" cy="270" r="2" style="fill:#dd0;"/>
<text class="label" x="520" y="286" fill="#dd0" font-family="sans-serif" font-weight="bold" font-size="16">D</text>
<circle cx="484" cy="335" r="2" style="fill:#dd0;"/>
<text class="label" x="484" y="351" fill="#dd0" font-family="sans-serif" font-weight="bold" font-size="16">E</text>
<circle cx="463" cy="180" r="2" style="fill:#dd0;"/>
<text class="label" x="463" y="196" fill="#dd0" font-family="sans-serif" font-weight="bold" font-size="16">F</text>
<circle cx="459" cy="263" r="2" style="fill:#dd0;"/>
<text class="label" x="459" y="279" fill="#dd0" font-family="sans-serif" font-weight="bold" font-size="16">G</text>
<circle cx="419" cy="252" r="2" style="fill:#dd0;"/>
<text class="label" x="419" y="268" fill="#dd0" font-family="sans-serif" font-weight="bold" font-size="16">H</text>
<circle cx="356" cy="342" r="2" style="fill:#dd0;"/>
<text class="label" x="356" y="358" fill="#dd0" font-family="sans-serif" font-weight="bold" font-size="16">I</text>
<circle cx="713" cy="326" r="2" style="fill:#ff0;"/>
<text class="label" x="713" y="342" fill="#ff0" font-family="sans-serif" font-weight="bold" font-size="16">1</text>
<circle cx="376" cy="285" r="2" style="fill:#ff0;"/>
<text class="label" x="376" y="301" fill="#ff0" font-family="sans-serif" font-weight="bold" font-size="16">2</text>
<circle cx="354" cy="157" r="2" style="fill:#dd0;"/>
<text class="label" x="354" y="173" fill="#dd0" font-family="sans-serif" font-weight="bold" font-size="16">J</text>
<circle cx="327" cy="217" r="2" style="fill:#dd0;"/>
<text class="label" x="327" y="233" fill="#dd0" font-family="sans-serif" font-weight="bold" font-size="16">K</text>
<circle cx="293" cy="76" r="2" style="fill:#dd0;"/>
<text class="label" x="293" y="92" fill="#dd0" font-family="sans-serif" font-weight="bold" font-size="16">L</text>
<circle cx="251" cy="221" r="2" style="fill:#dd0;"/>
<text class="label" x="251" y="237" fill="#dd0" font-family="sans-serif" font-weight="bold" font-size="16">M</text>
<circle cx="232" cy="178" r="2" style="fill:#dd0;"/>
<text class="label" x="232" y="194" fill="#dd0" font-family="sans-serif" font-weight="bold" font-size="16">N</text>
<circle cx="208" cy="124" r="2" style="fill:#dd0;"/>
<text class="label" x="208" y="140" fill="#dd0" font-family="sans-serif" font-weight="bold" font-size="16">O</text>
<circle cx="175" cy="208" r="2" style="fill:#dd0;"/>
<text class="label" x="175" y="224" fill="#dd0" font-family="sans-serif" font-weight="bold" font-size="16">P</text>
<circle cx="164" cy="257" r="2" style="fill:#dd0;"/>
<text class="label" x="164" y="273" fill="#dd0" font-family="sans-serif" font-weight="bold" font-size="16">Q</text>
<circle cx="138" cy="166.05" r="2" style="fill:#dd0;"/>
<text class="label" x="138" y="182.05" fill="#dd0" font-family="sans-serif" font-weight="bold" font-size="16">R</text>
<circle cx="101" cy="248" r="2" style="fill:#dd0;"/>
<text class="label" x="101" y="264" fill="#dd0" font-family="sans-serif" font-weight="bold" font-size="16">S</text>
</svg>